<?xml version="1.0" encoding="UTF-8" standalone="no"?>
<!DOCTYPE svg PUBLIC "-//W3C//DTD SVG 1.1//EN"
 "http://www.w3.org/Graphics/SVG/1.1/DTD/svg11.dtd">
<!-- Generated by graphviz version 12.2.0 (20241103.1931)
 -->
<!-- Title: /github/workspace/support/eigexed/fcarouge/linalg.hpp Pages: 1 -->
<svg width="430pt" height="282pt"
 viewBox="0.00 0.00 429.75 282.00" xmlns="http://www.w3.org/2000/svg" xmlns:xlink="http://www.w3.org/1999/xlink">

<svg id="main" version="1.1" xmlns="http://www.w3.org/2000/svg" xmlns:xlink="http://www.w3.org/1999/xlink" xml:space="preserve">

<style type="text/css"><![CDATA[
.node, .edge {opacity: 0.7;}
.node.selected, .edge.selected {opacity: 1;}
.edge:hover path { stroke: red; }
.edge:hover polygon { stroke: red; fill: red; }
]]></style>
<script type="application/ecmascript" xlink:href="svg.min.js"/>
<svg id="graph" class="graph">
<g id="graph0" class="graph" transform="scale(1 1) rotate(0) translate(4 278)">
<title>/github/workspace/support/eigexed/fcarouge/linalg.hpp</title>
<!-- Node1 -->
<g id="Node000001" class="node">
<title>Node1</title>
<g id="a_Node000001"><a xlink:title="Scalar type linear algebra with Eigen implementation.">
<polygon fill="#999999" stroke="#666666" points="242.12,-274 106.12,-274 106.12,-243.5 242.12,-243.5 242.12,-274"/>
<text text-anchor="start" x="114.12" y="-260.5" font-family="Helvetica,sans-Serif" font-size="10.00">/github/workspace/support</text>
<text text-anchor="middle" x="174.12" y="-249.25" font-family="Helvetica,sans-Serif" font-size="10.00">/eigexed/fcarouge/linalg.hpp</text>
</a>
</g>
</g>
<!-- Node2 -->
<g id="Node000002" class="node">
<title>Node2</title>
<g id="a_Node000002"><a xlink:href="eigen_8hpp.xhtml" target="_top" xlink:title="Linear algebra facade for Eigen3 third party implementation.">
<polygon fill="white" stroke="#666666" points="329,-207.5 231.25,-207.5 231.25,-188.25 329,-188.25 329,-207.5"/>
<text text-anchor="middle" x="280.12" y="-194" font-family="Helvetica,sans-Serif" font-size="10.00">fcarouge/eigen.hpp</text>
</a>
</g>
</g>
<!-- Node1&#45;&gt;Node2 -->
<g id="edge1_Node000001_Node000002" class="edge">
<title>Node1&#45;&gt;Node2</title>
<g id="a_edge1_Node000001_Node000002"><a xlink:title=" ">
<path fill="none" stroke="#63b8ff" d="M200.6,-243.05C216.9,-233.99 237.7,-222.44 253.95,-213.41"/>
<polygon fill="#63b8ff" stroke="#63b8ff" points="255.5,-216.55 262.55,-208.64 252.1,-210.43 255.5,-216.55"/>
</a>
</g>
</g>
<!-- Node3 -->
<g id="Node000003" class="node">
<title>Node3</title>
<g id="a_Node000003"><a xlink:href="typed__linear__algebra_8hpp.xhtml" target="_top" xlink:title="Typed linear algebra implementation.">
<polygon fill="white" stroke="#666666" points="228.25,-152.25 120,-152.25 120,-121.75 228.25,-121.75 228.25,-152.25"/>
<text text-anchor="start" x="128" y="-138.75" font-family="Helvetica,sans-Serif" font-size="10.00">fcarouge/typed_linear</text>
<text text-anchor="middle" x="174.12" y="-127.5" font-family="Helvetica,sans-Serif" font-size="10.00">_algebra.hpp</text>
</a>
</g>
</g>
<!-- Node1&#45;&gt;Node3 -->
<g id="edge15_Node000001_Node000003" class="edge">
<title>Node1&#45;&gt;Node3</title>
<g id="a_edge15_Node000001_Node000003"><a xlink:title=" ">
<path fill="none" stroke="#63b8ff" d="M174.12,-243.07C174.12,-223.39 174.12,-188.14 174.12,-163.94"/>
<polygon fill="#63b8ff" stroke="#63b8ff" points="177.63,-163.94 174.13,-153.94 170.63,-163.94 177.63,-163.94"/>
</a>
</g>
</g>
<!-- Node8 -->
<g id="Node000008" class="node">
<title>Node8</title>
<g id="a_Node000008"><a xlink:title=" ">
<polygon fill="#e0e0e0" stroke="#999999" points="48.25,-80.12 0,-80.12 0,-60.88 48.25,-60.88 48.25,-80.12"/>
<text text-anchor="middle" x="24.12" y="-66.62" font-family="Helvetica,sans-Serif" font-size="10.00">cstddef</text>
</a>
</g>
</g>
<!-- Node1&#45;&gt;Node8 -->
<g id="edge16_Node000001_Node000008" class="edge">
<title>Node1&#45;&gt;Node8</title>
<g id="a_edge16_Node000001_Node000008"><a xlink:title=" ">
<path fill="none" stroke="#63b8ff" d="M162.35,-243.14C135.09,-209.29 67.71,-125.61 38.27,-89.06"/>
<polygon fill="#63b8ff" stroke="#63b8ff" points="41.29,-87.23 32.29,-81.64 35.84,-91.62 41.29,-87.23"/>
</a>
</g>
</g>
<!-- Node2&#45;&gt;Node3 -->
<g id="edge2_Node000002_Node000003" class="edge">
<title>Node2&#45;&gt;Node3</title>
<g id="a_edge2_Node000002_Node000003"><a xlink:title=" ">
<path fill="none" stroke="#63b8ff" d="M264.03,-187.93C249.82,-180.04 228.6,-168.26 210.34,-158.12"/>
<polygon fill="#63b8ff" stroke="#63b8ff" points="212.05,-155.06 201.61,-153.27 208.65,-161.18 212.05,-155.06"/>
</a>
</g>
</g>
<!-- Node9 -->
<g id="Node000009" class="node">
<title>Node9</title>
<g id="a_Node000009"><a xlink:title=" ">
<polygon fill="#e0e0e0" stroke="#999999" points="398,-80.12 354.25,-80.12 354.25,-60.88 398,-60.88 398,-80.12"/>
<text text-anchor="middle" x="376.12" y="-66.62" font-family="Helvetica,sans-Serif" font-size="10.00">format</text>
</a>
</g>
</g>
<!-- Node2&#45;&gt;Node9 -->
<g id="edge12_Node000002_Node000009" class="edge">
<title>Node2&#45;&gt;Node9</title>
<g id="a_edge12_Node000002_Node000009"><a xlink:title=" ">
<path fill="none" stroke="#63b8ff" d="M289.89,-187.77C298.98,-179.07 312.65,-165.37 323.12,-152.25 339.26,-132.04 355.19,-106.88 365.31,-90.06"/>
<polygon fill="#63b8ff" stroke="#63b8ff" points="368.2,-92.04 370.29,-81.65 362.18,-88.47 368.2,-92.04"/>
</a>
</g>
</g>
<!-- Node11 -->
<g id="Node000011" class="node">
<title>Node11</title>
<g id="a_Node000011"><a xlink:title=" ">
<polygon fill="#e0e0e0" stroke="#999999" points="421.75,-146.62 370.5,-146.62 370.5,-127.38 421.75,-127.38 421.75,-146.62"/>
<text text-anchor="middle" x="396.12" y="-133.12" font-family="Helvetica,sans-Serif" font-size="10.00">sstream</text>
</a>
</g>
</g>
<!-- Node2&#45;&gt;Node11 -->
<g id="edge13_Node000002_Node000011" class="edge">
<title>Node2&#45;&gt;Node11</title>
<g id="a_edge13_Node000002_Node000011"><a xlink:title=" ">
<path fill="none" stroke="#63b8ff" d="M298,-187.8C316.78,-178.27 346.59,-163.14 368.43,-152.06"/>
<polygon fill="#63b8ff" stroke="#63b8ff" points="369.74,-155.32 377.07,-147.67 366.57,-149.07 369.74,-155.32"/>
</a>
</g>
</g>
<!-- Node12 -->
<g id="Node000012" class="node">
<title>Node12</title>
<g id="a_Node000012"><a xlink:title=" ">
<polygon fill="#e0e0e0" stroke="#999999" points="313.62,-146.62 246.62,-146.62 246.62,-127.38 313.62,-127.38 313.62,-146.62"/>
<text text-anchor="middle" x="280.12" y="-133.12" font-family="Helvetica,sans-Serif" font-size="10.00">Eigen/Eigen</text>
</a>
</g>
</g>
<!-- Node2&#45;&gt;Node12 -->
<g id="edge14_Node000002_Node000012" class="edge">
<title>Node2&#45;&gt;Node12</title>
<g id="a_edge14_Node000002_Node000012"><a xlink:title=" ">
<path fill="none" stroke="#63b8ff" d="M280.12,-187.93C280.12,-180.15 280.12,-168.58 280.12,-158.53"/>
<polygon fill="#63b8ff" stroke="#63b8ff" points="283.63,-158.54 280.13,-148.54 276.63,-158.54 283.63,-158.54"/>
</a>
</g>
</g>
<!-- Node4 -->
<g id="Node000004" class="node">
<title>Node4</title>
<g id="a_Node000004"><a xlink:href="utility_8hpp.xhtml" target="_top" xlink:title=" ">
<polygon fill="white" stroke="#666666" points="298.38,-85.75 193.88,-85.75 193.88,-55.25 298.38,-55.25 298.38,-85.75"/>
<text text-anchor="start" x="201.88" y="-72.25" font-family="Helvetica,sans-Serif" font-size="10.00">typed_linear_algebra</text>
<text text-anchor="middle" x="246.12" y="-61" font-family="Helvetica,sans-Serif" font-size="10.00">_internal/utility.hpp</text>
</a>
</g>
</g>
<!-- Node3&#45;&gt;Node4 -->
<g id="edge3_Node000003_Node000004" class="edge">
<title>Node3&#45;&gt;Node4</title>
<g id="a_edge3_Node000003_Node000004"><a xlink:title=" ">
<path fill="none" stroke="#63b8ff" d="M190.46,-121.36C199.58,-113.2 211.12,-102.86 221.32,-93.72"/>
<polygon fill="#63b8ff" stroke="#63b8ff" points="223.61,-96.37 228.72,-87.09 218.94,-91.15 223.61,-96.37"/>
</a>
</g>
</g>
<!-- Node5 -->
<g id="Node000005" class="node">
<title>Node5</title>
<g id="a_Node000005"><a xlink:title=" ">
<polygon fill="#e0e0e0" stroke="#999999" points="352,-19.25 296.25,-19.25 296.25,0 352,0 352,-19.25"/>
<text text-anchor="middle" x="324.12" y="-5.75" font-family="Helvetica,sans-Serif" font-size="10.00">concepts</text>
</a>
</g>
</g>
<!-- Node3&#45;&gt;Node5 -->
<g id="edge7_Node000003_Node000005" class="edge">
<title>Node3&#45;&gt;Node5</title>
<g id="a_edge7_Node000003_Node000005"><a xlink:title=" ">
<path fill="none" stroke="#63b8ff" d="M227.85,-121.36C259.8,-111.61 296.19,-98.32 307.12,-85.75 320.28,-70.64 323.86,-47.48 324.56,-30.88"/>
<polygon fill="#63b8ff" stroke="#63b8ff" points="328.06,-31.24 324.64,-21.21 321.06,-31.18 328.06,-31.24"/>
</a>
</g>
</g>
<!-- Node6 -->
<g id="Node000006" class="node">
<title>Node6</title>
<g id="a_Node000006"><a xlink:title=" ">
<polygon fill="#e0e0e0" stroke="#999999" points="146.62,-19.25 109.62,-19.25 109.62,0 146.62,0 146.62,-19.25"/>
<text text-anchor="middle" x="128.12" y="-5.75" font-family="Helvetica,sans-Serif" font-size="10.00">tuple</text>
</a>
</g>
</g>
<!-- Node3&#45;&gt;Node6 -->
<g id="edge11_Node000003_Node000006" class="edge">
<title>Node3&#45;&gt;Node6</title>
<g id="a_edge11_Node000003_Node000006"><a xlink:title=" ">
<path fill="none" stroke="#63b8ff" d="M135.57,-121.34C120.1,-113.32 103.89,-101.71 95.12,-85.75 84.68,-66.72 98.36,-43.73 111.15,-28.23"/>
<polygon fill="#63b8ff" stroke="#63b8ff" points="113.74,-30.59 117.76,-20.79 108.5,-25.94 113.74,-30.59"/>
</a>
</g>
</g>
<!-- Node3&#45;&gt;Node8 -->
<g id="edge8_Node000003_Node000008" class="edge">
<title>Node3&#45;&gt;Node8</title>
<g id="a_edge8_Node000003_Node000008"><a xlink:title=" ">
<path fill="none" stroke="#63b8ff" d="M140.09,-121.36C114.64,-110.42 80.11,-95.57 55.36,-84.93"/>
<polygon fill="#63b8ff" stroke="#63b8ff" points="57.04,-81.84 46.47,-81.11 54.27,-88.27 57.04,-81.84"/>
</a>
</g>
</g>
<!-- Node3&#45;&gt;Node9 -->
<g id="edge9_Node000003_Node000009" class="edge">
<title>Node3&#45;&gt;Node9</title>
<g id="a_edge9_Node000003_Node000009"><a xlink:title=" ">
<path fill="none" stroke="#63b8ff" d="M226.82,-121.26C259.63,-111.78 302.59,-98.83 340.12,-85.75 341.27,-85.35 342.43,-84.94 343.6,-84.52"/>
<polygon fill="#63b8ff" stroke="#63b8ff" points="344.61,-87.87 352.73,-81.07 342.14,-81.32 344.61,-87.87"/>
</a>
</g>
</g>
<!-- Node10 -->
<g id="Node000010" class="node">
<title>Node10</title>
<g id="a_Node000010"><a xlink:title=" ">
<polygon fill="#e0e0e0" stroke="#999999" points="175.88,-80.12 104.38,-80.12 104.38,-60.88 175.88,-60.88 175.88,-80.12"/>
<text text-anchor="middle" x="140.12" y="-66.62" font-family="Helvetica,sans-Serif" font-size="10.00">initializer_list</text>
</a>
</g>
</g>
<!-- Node3&#45;&gt;Node10 -->
<g id="edge10_Node000003_Node000010" class="edge">
<title>Node3&#45;&gt;Node10</title>
<g id="a_edge10_Node000003_Node000010"><a xlink:title=" ">
<path fill="none" stroke="#63b8ff" d="M166.41,-121.36C161.57,-112.18 155.28,-100.25 150.07,-90.36"/>
<polygon fill="#63b8ff" stroke="#63b8ff" points="153.24,-88.88 145.48,-81.66 147.05,-92.14 153.24,-88.88"/>
</a>
</g>
</g>
<!-- Node4&#45;&gt;Node5 -->
<g id="edge4_Node000004_Node000005" class="edge">
<title>Node4&#45;&gt;Node5</title>
<g id="a_edge4_Node000004_Node000005"><a xlink:title=" ">
<path fill="none" stroke="#63b8ff" d="M265.41,-54.95C276.83,-46.33 291.31,-35.4 303.03,-26.55"/>
<polygon fill="#63b8ff" stroke="#63b8ff" points="305.02,-29.43 310.89,-20.61 300.8,-23.84 305.02,-29.43"/>
</a>
</g>
</g>
<!-- Node4&#45;&gt;Node6 -->
<g id="edge5_Node000004_Node000006" class="edge">
<title>Node4&#45;&gt;Node6</title>
<g id="a_edge5_Node000004_Node000006"><a xlink:title=" ">
<path fill="none" stroke="#63b8ff" d="M216.65,-54.8C198.25,-45.61 174.68,-33.86 156.49,-24.78"/>
<polygon fill="#63b8ff" stroke="#63b8ff" points="158.09,-21.66 147.58,-20.33 154.96,-27.93 158.09,-21.66"/>
</a>
</g>
</g>
<!-- Node7 -->
<g id="Node000007" class="node">
<title>Node7</title>
<g id="a_Node000007"><a xlink:title=" ">
<polygon fill="#e0e0e0" stroke="#999999" points="276.62,-19.25 215.62,-19.25 215.62,0 276.62,0 276.62,-19.25"/>
<text text-anchor="middle" x="246.12" y="-5.75" font-family="Helvetica,sans-Serif" font-size="10.00">type_traits</text>
</a>
</g>
</g>
<!-- Node4&#45;&gt;Node7 -->
<g id="edge6_Node000004_Node000007" class="edge">
<title>Node4&#45;&gt;Node7</title>
<g id="a_edge6_Node000004_Node000007"><a xlink:title=" ">
<path fill="none" stroke="#63b8ff" d="M246.12,-54.95C246.12,-47.71 246.12,-38.84 246.12,-30.94"/>
<polygon fill="#63b8ff" stroke="#63b8ff" points="249.63,-31.21 246.13,-21.21 242.63,-31.21 249.63,-31.21"/>
</a>
</g>
</g>
</g>
</svg>
</svg>

<style type='text/css'>
<![CDATA[
[data-mouse-over-selected='false'] { opacity: 0.7; }
[data-mouse-over-selected='true']  { opacity: 1.0; }
]]>
</style>
<script type="application/ecmascript"><![CDATA[
document.addEventListener('DOMContentLoaded', (event) => {
  highlightEdges();
  highlightAdjacentNodes();
});
]]></script>
</svg>
