<?xml version="1.0" encoding="UTF-8" standalone="no"?>
<!DOCTYPE svg PUBLIC "-//W3C//DTD SVG 1.1//EN"
 "http://www.w3.org/Graphics/SVG/1.1/DTD/svg11.dtd">
<!-- Generated by graphviz version 12.2.0 (20241103.1931)
 -->
<!-- Title: /github/workspace/support/eigexed/fcarouge/linalg.hpp Pages: 1 -->
<svg width="565pt" height="337pt"
 viewBox="0.00 0.00 565.14 337.25" xmlns="http://www.w3.org/2000/svg" xmlns:xlink="http://www.w3.org/1999/xlink">
<g id="graph0" class="graph" transform="scale(1 1) rotate(0) translate(4 333.25)">
<title>/github/workspace/support/eigexed/fcarouge/linalg.hpp</title>
<!-- Node1 -->
<g id="Node000001" class="node">
<title>Node1</title>
<g id="a_Node000001"><a xlink:title="Scalar type linear algebra with Eigen implementation.">
<polygon fill="#999999" stroke="#666666" points="264.64,-329.25 128.64,-329.25 128.64,-298.75 264.64,-298.75 264.64,-329.25"/>
<text text-anchor="start" x="136.64" y="-315.75" font-family="Helvetica,sans-Serif" font-size="10.00">/github/workspace/support</text>
<text text-anchor="middle" x="196.64" y="-304.5" font-family="Helvetica,sans-Serif" font-size="10.00">/eigexed/fcarouge/linalg.hpp</text>
</a>
</g>
</g>
<!-- Node2 -->
<g id="Node000002" class="node">
<title>Node2</title>
<g id="a_Node000002"><a xlink:href="eigen_8hpp.xhtml" target="_top" xlink:title="Linear algebra facade for Eigen3 third party implementation.">
<polygon fill="white" stroke="#666666" points="441.51,-262.75 343.76,-262.75 343.76,-243.5 441.51,-243.5 441.51,-262.75"/>
<text text-anchor="middle" x="392.64" y="-249.25" font-family="Helvetica,sans-Serif" font-size="10.00">fcarouge/eigen.hpp</text>
</a>
</g>
</g>
<!-- Node1&#45;&gt;Node2 -->
<g id="edge1_Node000001_Node000002" class="edge">
<title>Node1&#45;&gt;Node2</title>
<g id="a_edge1_Node000001_Node000002"><a xlink:title=" ">
<path fill="none" stroke="#63b8ff" d="M245.59,-298.3C278.21,-288.5 320.59,-275.77 351.47,-266.49"/>
<polygon fill="#63b8ff" stroke="#63b8ff" points="352.27,-269.91 360.84,-263.68 350.25,-263.2 352.27,-269.91"/>
</a>
</g>
</g>
<!-- Node3 -->
<g id="Node000003" class="node">
<title>Node3</title>
<g id="a_Node000003"><a xlink:href="typed__linear__algebra_8hpp.xhtml" target="_top" xlink:title="Typed linear algebra implementation.">
<polygon fill="white" stroke="#666666" points="250.76,-207.5 142.51,-207.5 142.51,-177 250.76,-177 250.76,-207.5"/>
<text text-anchor="start" x="150.51" y="-194" font-family="Helvetica,sans-Serif" font-size="10.00">fcarouge/typed_linear</text>
<text text-anchor="middle" x="196.64" y="-182.75" font-family="Helvetica,sans-Serif" font-size="10.00">_algebra.hpp</text>
</a>
</g>
</g>
<!-- Node1&#45;&gt;Node3 -->
<g id="edge19_Node000001_Node000003" class="edge">
<title>Node1&#45;&gt;Node3</title>
<g id="a_edge19_Node000001_Node000003"><a xlink:title=" ">
<path fill="none" stroke="#63b8ff" d="M196.64,-298.32C196.64,-278.64 196.64,-243.39 196.64,-219.19"/>
<polygon fill="#63b8ff" stroke="#63b8ff" points="200.14,-219.19 196.64,-209.19 193.14,-219.19 200.14,-219.19"/>
</a>
</g>
</g>
<!-- Node9 -->
<g id="Node000009" class="node">
<title>Node9</title>
<g id="a_Node000009"><a xlink:title=" ">
<polygon fill="#e0e0e0" stroke="#999999" points="142.76,-74.5 94.51,-74.5 94.51,-55.25 142.76,-55.25 142.76,-74.5"/>
<text text-anchor="middle" x="118.64" y="-61" font-family="Helvetica,sans-Serif" font-size="10.00">cstddef</text>
</a>
</g>
</g>
<!-- Node1&#45;&gt;Node9 -->
<g id="edge20_Node000001_Node000009" class="edge">
<title>Node1&#45;&gt;Node9</title>
<g id="a_edge20_Node000001_Node000009"><a xlink:title=" ">
<path fill="none" stroke="#63b8ff" d="M169.73,-298.3C126.38,-272.88 42.61,-216.13 9.64,-141 4.19,-128.59 2.08,-121.76 9.64,-110.5 25.87,-86.32 57.78,-75.23 82.9,-70.15"/>
<polygon fill="#63b8ff" stroke="#63b8ff" points="83.5,-73.6 92.74,-68.42 82.29,-66.7 83.5,-73.6"/>
</a>
</g>
</g>
<!-- Node2&#45;&gt;Node3 -->
<g id="edge2_Node000002_Node000003" class="edge">
<title>Node2&#45;&gt;Node3</title>
<g id="a_edge2_Node000002_Node000003"><a xlink:title=" ">
<path fill="none" stroke="#63b8ff" d="M362.44,-243.05C334.22,-234.58 291.28,-221.68 256.17,-211.13"/>
<polygon fill="#63b8ff" stroke="#63b8ff" points="257.59,-207.91 247,-208.38 255.58,-214.61 257.59,-207.91"/>
</a>
</g>
</g>
<!-- Node10 -->
<g id="Node000010" class="node">
<title>Node10</title>
<g id="a_Node000010"><a xlink:title=" ">
<polygon fill="#e0e0e0" stroke="#999999" points="326.51,-74.5 282.76,-74.5 282.76,-55.25 326.51,-55.25 326.51,-74.5"/>
<text text-anchor="middle" x="304.64" y="-61" font-family="Helvetica,sans-Serif" font-size="10.00">format</text>
</a>
</g>
</g>
<!-- Node2&#45;&gt;Node10 -->
<g id="edge16_Node000002_Node000010" class="edge">
<title>Node2&#45;&gt;Node10</title>
<g id="a_edge16_Node000002_Node000010"><a xlink:title=" ">
<path fill="none" stroke="#63b8ff" d="M388.39,-243.14C374.86,-214.5 332.52,-124.9 313.75,-85.17"/>
<polygon fill="#63b8ff" stroke="#63b8ff" points="316.92,-83.68 309.48,-76.14 310.59,-86.67 316.92,-83.68"/>
</a>
</g>
</g>
<!-- Node12 -->
<g id="Node000012" class="node">
<title>Node12</title>
<g id="a_Node000012"><a xlink:title=" ">
<polygon fill="#e0e0e0" stroke="#999999" points="472.26,-201.88 421.01,-201.88 421.01,-182.62 472.26,-182.62 472.26,-201.88"/>
<text text-anchor="middle" x="446.64" y="-188.38" font-family="Helvetica,sans-Serif" font-size="10.00">sstream</text>
</a>
</g>
</g>
<!-- Node2&#45;&gt;Node12 -->
<g id="edge17_Node000002_Node000012" class="edge">
<title>Node2&#45;&gt;Node12</title>
<g id="a_edge17_Node000002_Node000012"><a xlink:title=" ">
<path fill="none" stroke="#63b8ff" d="M400.84,-243.18C408.77,-234.54 420.99,-221.21 430.81,-210.5"/>
<polygon fill="#63b8ff" stroke="#63b8ff" points="433.15,-213.13 437.33,-203.39 427.99,-208.4 433.15,-213.13"/>
</a>
</g>
</g>
<!-- Node13 -->
<g id="Node000013" class="node">
<title>Node13</title>
<g id="a_Node000013"><a xlink:title=" ">
<polygon fill="#e0e0e0" stroke="#999999" points="557.14,-201.88 490.14,-201.88 490.14,-182.62 557.14,-182.62 557.14,-201.88"/>
<text text-anchor="middle" x="523.64" y="-188.38" font-family="Helvetica,sans-Serif" font-size="10.00">Eigen/Eigen</text>
</a>
</g>
</g>
<!-- Node2&#45;&gt;Node13 -->
<g id="edge18_Node000002_Node000013" class="edge">
<title>Node2&#45;&gt;Node13</title>
<g id="a_edge18_Node000002_Node000013"><a xlink:title=" ">
<path fill="none" stroke="#63b8ff" d="M412.82,-243.05C434.32,-233.39 468.62,-217.98 493.36,-206.86"/>
<polygon fill="#63b8ff" stroke="#63b8ff" points="494.58,-210.15 502.27,-202.85 491.71,-203.76 494.58,-210.15"/>
</a>
</g>
</g>
<!-- Node4 -->
<g id="Node000004" class="node">
<title>Node4</title>
<g id="a_Node000004"><a xlink:href="format_8hpp.xhtml" target="_top" xlink:title="Formatting support for the typed matrix.">
<polygon fill="white" stroke="#666666" points="288.89,-141 184.39,-141 184.39,-110.5 288.89,-110.5 288.89,-141"/>
<text text-anchor="start" x="192.39" y="-127.5" font-family="Helvetica,sans-Serif" font-size="10.00">typed_linear_algebra</text>
<text text-anchor="middle" x="236.64" y="-116.25" font-family="Helvetica,sans-Serif" font-size="10.00">_internal/format.hpp</text>
</a>
</g>
</g>
<!-- Node3&#45;&gt;Node4 -->
<g id="edge3_Node000003_Node000004" class="edge">
<title>Node3&#45;&gt;Node4</title>
<g id="a_edge3_Node000003_Node000004"><a xlink:title=" ">
<path fill="none" stroke="#63b8ff" d="M205.71,-176.61C210.42,-169.03 216.29,-159.56 221.64,-150.93"/>
<polygon fill="#63b8ff" stroke="#63b8ff" points="224.5,-152.96 226.8,-142.61 218.55,-149.27 224.5,-152.96"/>
</a>
</g>
</g>
<!-- Node5 -->
<g id="Node000005" class="node">
<title>Node5</title>
<g id="a_Node000005"><a xlink:href="utility_8hpp.xhtml" target="_top" xlink:title=" ">
<polygon fill="white" stroke="#666666" points="240.89,-74.5 184.39,-74.5 184.39,-55.25 240.89,-55.25 240.89,-74.5"/>
<text text-anchor="middle" x="212.64" y="-61" font-family="Helvetica,sans-Serif" font-size="10.00">utility.hpp</text>
</a>
</g>
</g>
<!-- Node3&#45;&gt;Node5 -->
<g id="edge10_Node000003_Node000005" class="edge">
<title>Node3&#45;&gt;Node5</title>
<g id="a_edge10_Node000003_Node000005"><a xlink:title=" ">
<path fill="none" stroke="#63b8ff" d="M187.65,-176.71C178.73,-160.36 167.48,-133.12 175.64,-110.5 179.37,-100.16 186.65,-90.51 193.78,-82.86"/>
<polygon fill="#63b8ff" stroke="#63b8ff" points="196.13,-85.45 200.77,-75.93 191.21,-80.48 196.13,-85.45"/>
</a>
</g>
</g>
<!-- Node6 -->
<g id="Node000006" class="node">
<title>Node6</title>
<g id="a_Node000006"><a xlink:title=" ">
<polygon fill="#e0e0e0" stroke="#999999" points="337.51,-19.25 281.76,-19.25 281.76,0 337.51,0 337.51,-19.25"/>
<text text-anchor="middle" x="309.64" y="-5.75" font-family="Helvetica,sans-Serif" font-size="10.00">concepts</text>
</a>
</g>
</g>
<!-- Node3&#45;&gt;Node6 -->
<g id="edge11_Node000003_Node000006" class="edge">
<title>Node3&#45;&gt;Node6</title>
<g id="a_edge11_Node000003_Node000006"><a xlink:title=" ">
<path fill="none" stroke="#63b8ff" d="M250.96,-179.69C274.09,-172.22 299.61,-160.17 316.64,-141 342.56,-111.81 345.81,-92.94 335.64,-55.25 333.13,-45.97 328.16,-36.63 323.23,-28.91"/>
<polygon fill="#63b8ff" stroke="#63b8ff" points="326.19,-27.04 317.63,-20.8 320.43,-31.02 326.19,-27.04"/>
</a>
</g>
</g>
<!-- Node7 -->
<g id="Node000007" class="node">
<title>Node7</title>
<g id="a_Node000007"><a xlink:title=" ">
<polygon fill="#e0e0e0" stroke="#999999" points="75.14,-19.25 38.14,-19.25 38.14,0 75.14,0 75.14,-19.25"/>
<text text-anchor="middle" x="56.64" y="-5.75" font-family="Helvetica,sans-Serif" font-size="10.00">tuple</text>
</a>
</g>
</g>
<!-- Node3&#45;&gt;Node7 -->
<g id="edge15_Node000003_Node000007" class="edge">
<title>Node3&#45;&gt;Node7</title>
<g id="a_edge15_Node000003_Node000007"><a xlink:title=" ">
<path fill="none" stroke="#63b8ff" d="M142.04,-183.99C92.81,-176.19 25.74,-162.01 9.64,-141 -17.09,-106.14 18.21,-54.69 40.66,-28.04"/>
<polygon fill="#63b8ff" stroke="#63b8ff" points="43.25,-30.39 47.21,-20.56 37.99,-25.78 43.25,-30.39"/>
</a>
</g>
</g>
<!-- Node3&#45;&gt;Node9 -->
<g id="edge12_Node000003_Node000009" class="edge">
<title>Node3&#45;&gt;Node9</title>
<g id="a_edge12_Node000003_Node000009"><a xlink:title=" ">
<path fill="none" stroke="#63b8ff" d="M187.69,-176.87C173.47,-154.02 145.74,-109.44 130.09,-84.29"/>
<polygon fill="#63b8ff" stroke="#63b8ff" points="133.25,-82.75 125,-76.1 127.31,-86.44 133.25,-82.75"/>
</a>
</g>
</g>
<!-- Node3&#45;&gt;Node10 -->
<g id="edge13_Node000003_Node000010" class="edge">
<title>Node3&#45;&gt;Node10</title>
<g id="a_edge13_Node000003_Node000010"><a xlink:title=" ">
<path fill="none" stroke="#63b8ff" d="M249.78,-176.57C267.83,-168.91 286.28,-157.56 297.64,-141 308.62,-124.97 309.23,-102.3 307.79,-86.06"/>
<polygon fill="#63b8ff" stroke="#63b8ff" points="311.27,-85.65 306.55,-76.16 304.32,-86.52 311.27,-85.65"/>
</a>
</g>
</g>
<!-- Node11 -->
<g id="Node000011" class="node">
<title>Node11</title>
<g id="a_Node000011"><a xlink:title=" ">
<polygon fill="#e0e0e0" stroke="#999999" points="90.39,-135.38 18.89,-135.38 18.89,-116.12 90.39,-116.12 90.39,-135.38"/>
<text text-anchor="middle" x="54.64" y="-121.88" font-family="Helvetica,sans-Serif" font-size="10.00">initializer_list</text>
</a>
</g>
</g>
<!-- Node3&#45;&gt;Node11 -->
<g id="edge14_Node000003_Node000011" class="edge">
<title>Node3&#45;&gt;Node11</title>
<g id="a_edge14_Node000003_Node000011"><a xlink:title=" ">
<path fill="none" stroke="#63b8ff" d="M164.41,-176.61C140.54,-165.77 108.22,-151.09 84.84,-140.47"/>
<polygon fill="#63b8ff" stroke="#63b8ff" points="86.4,-137.33 75.85,-136.39 83.51,-143.71 86.4,-137.33"/>
</a>
</g>
</g>
<!-- Node4&#45;&gt;Node5 -->
<g id="edge4_Node000004_Node000005" class="edge">
<title>Node4&#45;&gt;Node5</title>
<g id="a_edge4_Node000004_Node000005"><a xlink:title=" ">
<path fill="none" stroke="#63b8ff" d="M230.7,-110.2C227.65,-102.7 223.88,-93.45 220.57,-85.35"/>
<polygon fill="#63b8ff" stroke="#63b8ff" points="223.92,-84.29 216.91,-76.35 217.44,-86.93 223.92,-84.29"/>
</a>
</g>
</g>
<!-- Node4&#45;&gt;Node9 -->
<g id="edge8_Node000004_Node000009" class="edge">
<title>Node4&#45;&gt;Node9</title>
<g id="a_edge8_Node000004_Node000009"><a xlink:title=" ">
<path fill="none" stroke="#63b8ff" d="M207.16,-110.05C188.76,-100.86 165.2,-89.11 147,-80.03"/>
<polygon fill="#63b8ff" stroke="#63b8ff" points="148.6,-76.91 138.09,-75.58 145.47,-83.18 148.6,-76.91"/>
</a>
</g>
</g>
<!-- Node4&#45;&gt;Node10 -->
<g id="edge9_Node000004_Node000010" class="edge">
<title>Node4&#45;&gt;Node10</title>
<g id="a_edge9_Node000004_Node000010"><a xlink:title=" ">
<path fill="none" stroke="#63b8ff" d="M253.44,-110.2C263.2,-101.75 275.52,-91.08 285.63,-82.33"/>
<polygon fill="#63b8ff" stroke="#63b8ff" points="287.74,-85.13 293.01,-75.94 283.16,-79.84 287.74,-85.13"/>
</a>
</g>
</g>
<!-- Node5&#45;&gt;Node6 -->
<g id="edge5_Node000005_Node000006" class="edge">
<title>Node5&#45;&gt;Node6</title>
<g id="a_edge5_Node000005_Node000006"><a xlink:title=" ">
<path fill="none" stroke="#63b8ff" d="M229.09,-54.84C243.86,-46.73 265.81,-34.68 283.07,-25.21"/>
<polygon fill="#63b8ff" stroke="#63b8ff" points="284.69,-28.31 291.77,-20.43 281.32,-22.18 284.69,-28.31"/>
</a>
</g>
</g>
<!-- Node5&#45;&gt;Node7 -->
<g id="edge6_Node000005_Node000007" class="edge">
<title>Node5&#45;&gt;Node7</title>
<g id="a_edge6_Node000005_Node000007"><a xlink:title=" ">
<path fill="none" stroke="#63b8ff" d="M186.17,-54.84C158.39,-45.36 114.82,-30.49 86,-20.65"/>
<polygon fill="#63b8ff" stroke="#63b8ff" points="87.4,-17.43 76.81,-17.51 85.14,-24.05 87.4,-17.43"/>
</a>
</g>
</g>
<!-- Node8 -->
<g id="Node000008" class="node">
<title>Node8</title>
<g id="a_Node000008"><a xlink:title=" ">
<polygon fill="#e0e0e0" stroke="#999999" points="243.14,-19.25 182.14,-19.25 182.14,0 243.14,0 243.14,-19.25"/>
<text text-anchor="middle" x="212.64" y="-5.75" font-family="Helvetica,sans-Serif" font-size="10.00">type_traits</text>
</a>
</g>
</g>
<!-- Node5&#45;&gt;Node8 -->
<g id="edge7_Node000005_Node000008" class="edge">
<title>Node5&#45;&gt;Node8</title>
<g id="a_edge7_Node000005_Node000008"><a xlink:title=" ">
<path fill="none" stroke="#63b8ff" d="M212.64,-55.08C212.64,-48.57 212.64,-39.42 212.64,-31.12"/>
<polygon fill="#63b8ff" stroke="#63b8ff" points="216.14,-31.12 212.64,-21.12 209.14,-31.12 216.14,-31.12"/>
</a>
</g>
</g>
</g>
</svg>
