<?xml version="1.0" encoding="UTF-8" standalone="no"?>
<!DOCTYPE svg PUBLIC "-//W3C//DTD SVG 1.1//EN"
 "http://www.w3.org/Graphics/SVG/1.1/DTD/svg11.dtd">
<!-- Generated by graphviz version 12.2.0 (20241103.1931)
 -->
<!-- Title: /github/workspace/support/eigen/fcarouge/eigen.hpp Pages: 1 -->
<svg width="716pt" height="293pt"
 viewBox="0.00 0.00 716.00 293.25" xmlns="http://www.w3.org/2000/svg" xmlns:xlink="http://www.w3.org/1999/xlink">
<g id="graph0" class="graph" transform="scale(1 1) rotate(0) translate(4 289.25)">
<title>/github/workspace/support/eigen/fcarouge/eigen.hpp</title>
<!-- Node1 -->
<g id="Node000001" class="node">
<title>Node1</title>
<g id="a_Node000001"><a xlink:title="Linear algebra facade for Eigen3 third party implementation.">
<polygon fill="#999999" stroke="#666666" points="635.88,-285.25 505.12,-285.25 505.12,-254.75 635.88,-254.75 635.88,-285.25"/>
<text text-anchor="start" x="513.12" y="-271.75" font-family="Helvetica,sans-Serif" font-size="10.00">/github/workspace/support</text>
<text text-anchor="middle" x="570.5" y="-260.5" font-family="Helvetica,sans-Serif" font-size="10.00">/eigen/fcarouge/eigen.hpp</text>
</a>
</g>
</g>
<!-- Node2 -->
<g id="Node000002" class="node">
<title>Node2</title>
<g id="a_Node000002"><a xlink:href="typed__linear__algebra_8hpp.xhtml" target="_top" xlink:title="Typed linear algebra implementation.">
<polygon fill="white" stroke="#666666" points="305.62,-218.75 197.38,-218.75 197.38,-188.25 305.62,-188.25 305.62,-218.75"/>
<text text-anchor="start" x="205.38" y="-205.25" font-family="Helvetica,sans-Serif" font-size="10.00">fcarouge/typed_linear</text>
<text text-anchor="middle" x="251.5" y="-194" font-family="Helvetica,sans-Serif" font-size="10.00">_algebra.hpp</text>
</a>
</g>
</g>
<!-- Node1&#45;&gt;Node2 -->
<g id="edge1_Node000001_Node000002" class="edge">
<title>Node1&#45;&gt;Node2</title>
<g id="a_edge1_Node000001_Node000002"><a xlink:title=" ">
<path fill="none" stroke="#63b8ff" d="M504.79,-255.71C449.85,-244.6 371.87,-228.84 316.99,-217.74"/>
<polygon fill="#63b8ff" stroke="#63b8ff" points="317.97,-214.37 307.47,-215.82 316.58,-221.23 317.97,-214.37"/>
</a>
</g>
</g>
<!-- Node9 -->
<g id="Node000009" class="node">
<title>Node9</title>
<g id="a_Node000009"><a xlink:title=" ">
<polygon fill="#e0e0e0" stroke="#999999" points="273.38,-74.5 229.62,-74.5 229.62,-55.25 273.38,-55.25 273.38,-74.5"/>
<text text-anchor="middle" x="251.5" y="-61" font-family="Helvetica,sans-Serif" font-size="10.00">format</text>
</a>
</g>
</g>
<!-- Node1&#45;&gt;Node9 -->
<g id="edge16_Node000001_Node000009" class="edge">
<title>Node1&#45;&gt;Node9</title>
<g id="a_edge16_Node000001_Node000009"><a xlink:title=" ">
<path fill="none" stroke="#63b8ff" d="M567.28,-254.4C559.47,-222.66 536.37,-147.29 486.5,-110.5 454.91,-87.2 341.82,-73.98 284.83,-68.65"/>
<polygon fill="#63b8ff" stroke="#63b8ff" points="285.35,-65.19 275.07,-67.77 284.72,-72.16 285.35,-65.19"/>
</a>
</g>
</g>
<!-- Node12 -->
<g id="Node000012" class="node">
<title>Node12</title>
<g id="a_Node000012"><a xlink:title=" ">
<polygon fill="#e0e0e0" stroke="#999999" points="623.12,-213.12 571.88,-213.12 571.88,-193.88 623.12,-193.88 623.12,-213.12"/>
<text text-anchor="middle" x="597.5" y="-199.62" font-family="Helvetica,sans-Serif" font-size="10.00">sstream</text>
</a>
</g>
</g>
<!-- Node1&#45;&gt;Node12 -->
<g id="edge17_Node000001_Node000012" class="edge">
<title>Node1&#45;&gt;Node12</title>
<g id="a_edge17_Node000001_Node000012"><a xlink:title=" ">
<path fill="none" stroke="#63b8ff" d="M576.63,-254.36C580.43,-245.28 585.36,-233.51 589.47,-223.68"/>
<polygon fill="#63b8ff" stroke="#63b8ff" points="592.59,-225.29 593.22,-214.72 586.13,-222.59 592.59,-225.29"/>
</a>
</g>
</g>
<!-- Node13 -->
<g id="Node000013" class="node">
<title>Node13</title>
<g id="a_Node000013"><a xlink:title=" ">
<polygon fill="#e0e0e0" stroke="#999999" points="708,-213.12 641,-213.12 641,-193.88 708,-193.88 708,-213.12"/>
<text text-anchor="middle" x="674.5" y="-199.62" font-family="Helvetica,sans-Serif" font-size="10.00">Eigen/Eigen</text>
</a>
</g>
</g>
<!-- Node1&#45;&gt;Node13 -->
<g id="edge18_Node000001_Node000013" class="edge">
<title>Node1&#45;&gt;Node13</title>
<g id="a_edge18_Node000001_Node000013"><a xlink:title=" ">
<path fill="none" stroke="#63b8ff" d="M594.1,-254.36C610.87,-243.96 633.34,-230.03 650.26,-219.54"/>
<polygon fill="#63b8ff" stroke="#63b8ff" points="652.03,-222.55 658.69,-214.31 648.34,-216.6 652.03,-222.55"/>
</a>
</g>
</g>
<!-- Node3 -->
<g id="Node000003" class="node">
<title>Node3</title>
<g id="a_Node000003"><a xlink:href="format_8hpp.xhtml" target="_top" xlink:title="Formatting support for the typed matrix.">
<polygon fill="white" stroke="#666666" points="223.75,-146.62 119.25,-146.62 119.25,-116.12 223.75,-116.12 223.75,-146.62"/>
<text text-anchor="start" x="127.25" y="-133.12" font-family="Helvetica,sans-Serif" font-size="10.00">typed_linear_algebra</text>
<text text-anchor="middle" x="171.5" y="-121.88" font-family="Helvetica,sans-Serif" font-size="10.00">_internal/format.hpp</text>
</a>
</g>
</g>
<!-- Node2&#45;&gt;Node3 -->
<g id="edge2_Node000002_Node000003" class="edge">
<title>Node2&#45;&gt;Node3</title>
<g id="a_edge2_Node000002_Node000003"><a xlink:title=" ">
<path fill="none" stroke="#63b8ff" d="M234.92,-187.97C223.88,-178.29 209.15,-165.37 196.66,-154.43"/>
<polygon fill="#63b8ff" stroke="#63b8ff" points="199.02,-151.84 189.19,-147.88 194.41,-157.11 199.02,-151.84"/>
</a>
</g>
</g>
<!-- Node4 -->
<g id="Node000004" class="node">
<title>Node4</title>
<g id="a_Node000004"><a xlink:href="utility_8hpp.xhtml" target="_top" xlink:title=" ">
<polygon fill="white" stroke="#666666" points="118.75,-74.5 62.25,-74.5 62.25,-55.25 118.75,-55.25 118.75,-74.5"/>
<text text-anchor="middle" x="90.5" y="-61" font-family="Helvetica,sans-Serif" font-size="10.00">utility.hpp</text>
</a>
</g>
</g>
<!-- Node2&#45;&gt;Node4 -->
<g id="edge9_Node000002_Node000004" class="edge">
<title>Node2&#45;&gt;Node4</title>
<g id="a_edge9_Node000002_Node000004"><a xlink:title=" ">
<path fill="none" stroke="#63b8ff" d="M197.12,-198.97C163.71,-193.76 122.94,-181.37 99.5,-152.25 84.61,-133.74 84.64,-105.3 86.86,-86.16"/>
<polygon fill="#63b8ff" stroke="#63b8ff" points="90.31,-86.78 88.33,-76.37 83.39,-85.74 90.31,-86.78"/>
</a>
</g>
</g>
<!-- Node5 -->
<g id="Node000005" class="node">
<title>Node5</title>
<g id="a_Node000005"><a xlink:title=" ">
<polygon fill="#e0e0e0" stroke="#999999" points="362.38,-19.25 306.62,-19.25 306.62,0 362.38,0 362.38,-19.25"/>
<text text-anchor="middle" x="334.5" y="-5.75" font-family="Helvetica,sans-Serif" font-size="10.00">concepts</text>
</a>
</g>
</g>
<!-- Node2&#45;&gt;Node5 -->
<g id="edge10_Node000002_Node000005" class="edge">
<title>Node2&#45;&gt;Node5</title>
<g id="a_edge10_Node000002_Node000005"><a xlink:title=" ">
<path fill="none" stroke="#63b8ff" d="M305.97,-198.61C368.17,-192.9 464.23,-179.78 486.5,-152.25 529.33,-99.29 426.28,-47.41 369.25,-23.82"/>
<polygon fill="#63b8ff" stroke="#63b8ff" points="370.83,-20.69 360.25,-20.19 368.21,-27.18 370.83,-20.69"/>
</a>
</g>
</g>
<!-- Node6 -->
<g id="Node000006" class="node">
<title>Node6</title>
<g id="a_Node000006"><a xlink:title=" ">
<polygon fill="#e0e0e0" stroke="#999999" points="37,-19.25 0,-19.25 0,0 37,0 37,-19.25"/>
<text text-anchor="middle" x="18.5" y="-5.75" font-family="Helvetica,sans-Serif" font-size="10.00">tuple</text>
</a>
</g>
</g>
<!-- Node2&#45;&gt;Node6 -->
<g id="edge14_Node000002_Node000006" class="edge">
<title>Node2&#45;&gt;Node6</title>
<g id="a_edge14_Node000002_Node000006"><a xlink:title=" ">
<path fill="none" stroke="#63b8ff" d="M197.19,-198.22C160.68,-192.75 113.55,-180.35 81.5,-152.25 44.5,-119.81 28.21,-61.44 21.93,-30.75"/>
<polygon fill="#63b8ff" stroke="#63b8ff" points="25.37,-30.12 20.09,-20.93 18.49,-31.4 25.37,-30.12"/>
</a>
</g>
</g>
<!-- Node8 -->
<g id="Node000008" class="node">
<title>Node8</title>
<g id="a_Node000008"><a xlink:title=" ">
<polygon fill="#e0e0e0" stroke="#999999" points="186.62,-74.5 138.38,-74.5 138.38,-55.25 186.62,-55.25 186.62,-74.5"/>
<text text-anchor="middle" x="162.5" y="-61" font-family="Helvetica,sans-Serif" font-size="10.00">cstddef</text>
</a>
</g>
</g>
<!-- Node2&#45;&gt;Node8 -->
<g id="edge11_Node000002_Node000008" class="edge">
<title>Node2&#45;&gt;Node8</title>
<g id="a_edge11_Node000002_Node000008"><a xlink:title=" ">
<path fill="none" stroke="#63b8ff" d="M197.16,-198.09C166.3,-192.48 130.05,-179.96 110.5,-152.25 99.81,-137.09 102.75,-127.36 110.5,-110.5 115.96,-98.62 126.31,-88.72 136.35,-81.28"/>
<polygon fill="#63b8ff" stroke="#63b8ff" points="138.15,-84.29 144.46,-75.78 134.22,-78.5 138.15,-84.29"/>
</a>
</g>
</g>
<!-- Node2&#45;&gt;Node9 -->
<g id="edge12_Node000002_Node000009" class="edge">
<title>Node2&#45;&gt;Node9</title>
<g id="a_edge12_Node000002_Node000009"><a xlink:title=" ">
<path fill="none" stroke="#63b8ff" d="M251.5,-187.88C251.5,-163.39 251.5,-114.05 251.5,-86.2"/>
<polygon fill="#63b8ff" stroke="#63b8ff" points="255,-86.29 251.5,-76.29 248,-86.29 255,-86.29"/>
</a>
</g>
</g>
<!-- Node10 -->
<g id="Node000010" class="node">
<title>Node10</title>
<g id="a_Node000010"><a xlink:title=" ">
<polygon fill="#e0e0e0" stroke="#999999" points="351.25,-141 279.75,-141 279.75,-121.75 351.25,-121.75 351.25,-141"/>
<text text-anchor="middle" x="315.5" y="-127.5" font-family="Helvetica,sans-Serif" font-size="10.00">initializer_list</text>
</a>
</g>
</g>
<!-- Node2&#45;&gt;Node10 -->
<g id="edge13_Node000002_Node000010" class="edge">
<title>Node2&#45;&gt;Node10</title>
<g id="a_edge13_Node000002_Node000010"><a xlink:title=" ">
<path fill="none" stroke="#63b8ff" d="M264.76,-187.97C275.03,-176.72 289.28,-161.11 300.06,-149.29"/>
<polygon fill="#63b8ff" stroke="#63b8ff" points="302.33,-152 306.49,-142.25 297.16,-147.28 302.33,-152"/>
</a>
</g>
</g>
<!-- Node11 -->
<g id="Node000011" class="node">
<title>Node11</title>
<g id="a_Node000011"><a xlink:title=" ">
<polygon fill="#e0e0e0" stroke="#999999" points="477.25,-152.25 369.75,-152.25 369.75,-110.5 477.25,-110.5 477.25,-152.25"/>
<text text-anchor="start" x="377.75" y="-138.75" font-family="Helvetica,sans-Serif" font-size="10.00">typed_linear_algebra</text>
<text text-anchor="start" x="377.75" y="-127.5" font-family="Helvetica,sans-Serif" font-size="10.00">_internal/typed_linear</text>
<text text-anchor="middle" x="423.5" y="-116.25" font-family="Helvetica,sans-Serif" font-size="10.00">_algebra.tpp</text>
</a>
</g>
</g>
<!-- Node2&#45;&gt;Node11 -->
<g id="edge15_Node000002_Node000011" class="edge">
<title>Node2&#45;&gt;Node11</title>
<g id="a_edge15_Node000002_Node000011"><a xlink:title=" ">
<path fill="none" stroke="#63b8ff" d="M287.56,-187.8C309.45,-178.87 337.95,-167.25 363.2,-156.96"/>
<polygon fill="#63b8ff" stroke="#63b8ff" points="364.45,-160.23 372.39,-153.21 361.81,-153.75 364.45,-160.23"/>
</a>
</g>
</g>
<!-- Node3&#45;&gt;Node4 -->
<g id="edge3_Node000003_Node000004" class="edge">
<title>Node3&#45;&gt;Node4</title>
<g id="a_edge3_Node000003_Node000004"><a xlink:title=" ">
<path fill="none" stroke="#63b8ff" d="M153.12,-115.74C140.35,-105.57 123.35,-92.03 110.28,-81.63"/>
<polygon fill="#63b8ff" stroke="#63b8ff" points="112.77,-79.13 102.76,-75.64 108.41,-84.61 112.77,-79.13"/>
</a>
</g>
</g>
<!-- Node3&#45;&gt;Node8 -->
<g id="edge7_Node000003_Node000008" class="edge">
<title>Node3&#45;&gt;Node8</title>
<g id="a_edge7_Node000003_Node000008"><a xlink:title=" ">
<path fill="none" stroke="#63b8ff" d="M169.46,-115.74C168.23,-106.95 166.65,-95.65 165.31,-86.03"/>
<polygon fill="#63b8ff" stroke="#63b8ff" points="168.79,-85.62 163.94,-76.2 161.86,-86.58 168.79,-85.62"/>
</a>
</g>
</g>
<!-- Node3&#45;&gt;Node9 -->
<g id="edge8_Node000003_Node000009" class="edge">
<title>Node3&#45;&gt;Node9</title>
<g id="a_edge8_Node000003_Node000009"><a xlink:title=" ">
<path fill="none" stroke="#63b8ff" d="M189.65,-115.74C202.27,-105.57 219.06,-92.03 231.96,-81.63"/>
<polygon fill="#63b8ff" stroke="#63b8ff" points="233.79,-84.65 239.38,-75.65 229.4,-79.2 233.79,-84.65"/>
</a>
</g>
</g>
<!-- Node4&#45;&gt;Node5 -->
<g id="edge4_Node000004_Node000005" class="edge">
<title>Node4&#45;&gt;Node5</title>
<g id="a_edge4_Node000004_Node000005"><a xlink:title=" ">
<path fill="none" stroke="#63b8ff" d="M119.04,-57.55C122.56,-56.77 126.11,-55.99 129.5,-55.25 187.1,-42.61 253.84,-28.11 295.11,-19.16"/>
<polygon fill="#63b8ff" stroke="#63b8ff" points="295.8,-22.59 304.83,-17.05 294.31,-15.75 295.8,-22.59"/>
</a>
</g>
</g>
<!-- Node4&#45;&gt;Node6 -->
<g id="edge5_Node000004_Node000006" class="edge">
<title>Node4&#45;&gt;Node6</title>
<g id="a_edge5_Node000004_Node000006"><a xlink:title=" ">
<path fill="none" stroke="#63b8ff" d="M78.29,-54.84C67.67,-46.99 52.06,-35.45 39.46,-26.12"/>
<polygon fill="#63b8ff" stroke="#63b8ff" points="41.87,-23.56 31.75,-20.42 37.71,-29.19 41.87,-23.56"/>
</a>
</g>
</g>
<!-- Node7 -->
<g id="Node000007" class="node">
<title>Node7</title>
<g id="a_Node000007"><a xlink:title=" ">
<polygon fill="#e0e0e0" stroke="#999999" points="121,-19.25 60,-19.25 60,0 121,0 121,-19.25"/>
<text text-anchor="middle" x="90.5" y="-5.75" font-family="Helvetica,sans-Serif" font-size="10.00">type_traits</text>
</a>
</g>
</g>
<!-- Node4&#45;&gt;Node7 -->
<g id="edge6_Node000004_Node000007" class="edge">
<title>Node4&#45;&gt;Node7</title>
<g id="a_edge6_Node000004_Node000007"><a xlink:title=" ">
<path fill="none" stroke="#63b8ff" d="M90.5,-55.08C90.5,-48.57 90.5,-39.42 90.5,-31.12"/>
<polygon fill="#63b8ff" stroke="#63b8ff" points="94,-31.12 90.5,-21.12 87,-31.12 94,-31.12"/>
</a>
</g>
</g>
</g>
</svg>
