<?xml version="1.0" encoding="UTF-8" standalone="no"?>
<!DOCTYPE svg PUBLIC "-//W3C//DTD SVG 1.1//EN"
 "http://www.w3.org/Graphics/SVG/1.1/DTD/svg11.dtd">
<!-- Generated by graphviz version 12.2.0 (20241103.1931)
 -->
<!-- Title: /github/workspace/support/eigexed/fcarouge/linalg.hpp Pages: 1 -->
<svg width="754pt" height="349pt"
 viewBox="0.00 0.00 754.12 348.50" xmlns="http://www.w3.org/2000/svg" xmlns:xlink="http://www.w3.org/1999/xlink">
<g id="graph0" class="graph" transform="scale(1 1) rotate(0) translate(4 344.5)">
<title>/github/workspace/support/eigexed/fcarouge/linalg.hpp</title>
<!-- Node1 -->
<g id="Node000001" class="node">
<title>Node1</title>
<g id="a_Node000001"><a xlink:title="Scalar type linear algebra with Eigen implementation.">
<polygon fill="#999999" stroke="#666666" points="352.5,-340.5 216.5,-340.5 216.5,-310 352.5,-310 352.5,-340.5"/>
<text text-anchor="start" x="224.5" y="-327" font-family="Helvetica,sans-Serif" font-size="10.00">/github/workspace/support</text>
<text text-anchor="middle" x="284.5" y="-315.75" font-family="Helvetica,sans-Serif" font-size="10.00">/eigexed/fcarouge/linalg.hpp</text>
</a>
</g>
</g>
<!-- Node2 -->
<g id="Node000002" class="node">
<title>Node2</title>
<g id="a_Node000002"><a xlink:href="eigen_8hpp.xhtml" target="_top" xlink:title="Linear algebra facade for Eigen3 third party implementation.">
<polygon fill="white" stroke="#666666" points="562.38,-274 464.62,-274 464.62,-254.75 562.38,-254.75 562.38,-274"/>
<text text-anchor="middle" x="513.5" y="-260.5" font-family="Helvetica,sans-Serif" font-size="10.00">fcarouge/eigen.hpp</text>
</a>
</g>
</g>
<!-- Node1&#45;&gt;Node2 -->
<g id="edge1_Node000001_Node000002" class="edge">
<title>Node1&#45;&gt;Node2</title>
<g id="a_edge1_Node000001_Node000002"><a xlink:title=" ">
<path fill="none" stroke="#63b8ff" d="M341.7,-309.55C380.47,-299.58 431.07,-286.57 467.29,-277.25"/>
<polygon fill="#63b8ff" stroke="#63b8ff" points="467.76,-280.75 476.58,-274.87 466.02,-273.97 467.76,-280.75"/>
</a>
</g>
</g>
<!-- Node3 -->
<g id="Node000003" class="node">
<title>Node3</title>
<g id="a_Node000003"><a xlink:href="typed__linear__algebra_8hpp.xhtml" target="_top" xlink:title="Typed linear algebra implementation.">
<polygon fill="white" stroke="#666666" points="338.62,-218.75 230.38,-218.75 230.38,-188.25 338.62,-188.25 338.62,-218.75"/>
<text text-anchor="start" x="238.38" y="-205.25" font-family="Helvetica,sans-Serif" font-size="10.00">fcarouge/typed_linear</text>
<text text-anchor="middle" x="284.5" y="-194" font-family="Helvetica,sans-Serif" font-size="10.00">_algebra.hpp</text>
</a>
</g>
</g>
<!-- Node1&#45;&gt;Node3 -->
<g id="edge21_Node000001_Node000003" class="edge">
<title>Node1&#45;&gt;Node3</title>
<g id="a_edge21_Node000001_Node000003"><a xlink:title=" ">
<path fill="none" stroke="#63b8ff" d="M284.5,-309.57C284.5,-289.89 284.5,-254.64 284.5,-230.44"/>
<polygon fill="#63b8ff" stroke="#63b8ff" points="288,-230.44 284.5,-220.44 281,-230.44 288,-230.44"/>
</a>
</g>
</g>
<!-- Node10 -->
<g id="Node000010" class="node">
<title>Node10</title>
<g id="a_Node000010"><a xlink:title=" ">
<polygon fill="#e0e0e0" stroke="#999999" points="78.62,-74.5 30.38,-74.5 30.38,-55.25 78.62,-55.25 78.62,-74.5"/>
<text text-anchor="middle" x="54.5" y="-61" font-family="Helvetica,sans-Serif" font-size="10.00">cstddef</text>
</a>
</g>
</g>
<!-- Node1&#45;&gt;Node10 -->
<g id="edge22_Node000001_Node000010" class="edge">
<title>Node1&#45;&gt;Node10</title>
<g id="a_edge22_Node000001_Node000010"><a xlink:title=" ">
<path fill="none" stroke="#63b8ff" d="M253.33,-309.55C204.44,-284.7 110.73,-229.42 66.5,-152.25 54.87,-131.96 52.91,-104.72 53.18,-86.29"/>
<polygon fill="#63b8ff" stroke="#63b8ff" points="56.67,-86.55 53.58,-76.41 49.68,-86.26 56.67,-86.55"/>
</a>
</g>
</g>
<!-- Node2&#45;&gt;Node3 -->
<g id="edge2_Node000002_Node000003" class="edge">
<title>Node2&#45;&gt;Node3</title>
<g id="a_edge2_Node000002_Node000003"><a xlink:title=" ">
<path fill="none" stroke="#63b8ff" d="M478.22,-254.3C444.13,-245.54 391.66,-232.05 349.93,-221.32"/>
<polygon fill="#63b8ff" stroke="#63b8ff" points="351.04,-217.99 340.48,-218.89 349.29,-224.77 351.04,-217.99"/>
</a>
</g>
</g>
<!-- Node11 -->
<g id="Node000011" class="node">
<title>Node11</title>
<g id="a_Node000011"><a xlink:title=" ">
<polygon fill="#e0e0e0" stroke="#999999" points="274.38,-74.5 230.62,-74.5 230.62,-55.25 274.38,-55.25 274.38,-74.5"/>
<text text-anchor="middle" x="252.5" y="-61" font-family="Helvetica,sans-Serif" font-size="10.00">format</text>
</a>
</g>
</g>
<!-- Node2&#45;&gt;Node11 -->
<g id="edge18_Node000002_Node000011" class="edge">
<title>Node2&#45;&gt;Node11</title>
<g id="a_edge18_Node000002_Node000011"><a xlink:title=" ">
<path fill="none" stroke="#63b8ff" d="M526.91,-254.42C562.3,-229.75 652.64,-159.37 609.5,-110.5 588.25,-86.43 370.85,-72.24 286.08,-67.58"/>
<polygon fill="#63b8ff" stroke="#63b8ff" points="286.49,-64.1 276.32,-67.06 286.12,-71.09 286.49,-64.1"/>
</a>
</g>
</g>
<!-- Node14 -->
<g id="Node000014" class="node">
<title>Node14</title>
<g id="a_Node000014"><a xlink:title=" ">
<polygon fill="#e0e0e0" stroke="#999999" points="746.12,-213.12 694.88,-213.12 694.88,-193.88 746.12,-193.88 746.12,-213.12"/>
<text text-anchor="middle" x="720.5" y="-199.62" font-family="Helvetica,sans-Serif" font-size="10.00">sstream</text>
</a>
</g>
</g>
<!-- Node2&#45;&gt;Node14 -->
<g id="edge19_Node000002_Node000014" class="edge">
<title>Node2&#45;&gt;Node14</title>
<g id="a_edge19_Node000002_Node000014"><a xlink:title=" ">
<path fill="none" stroke="#63b8ff" d="M550.89,-254.31C584.9,-245.84 636.37,-232.48 680.5,-218.75 682.08,-218.26 683.7,-217.74 685.33,-217.21"/>
<polygon fill="#63b8ff" stroke="#63b8ff" points="686.29,-220.58 694.63,-214.05 684.04,-213.95 686.29,-220.58"/>
</a>
</g>
</g>
<!-- Node15 -->
<g id="Node000015" class="node">
<title>Node15</title>
<g id="a_Node000015"><a xlink:title=" ">
<polygon fill="#e0e0e0" stroke="#999999" points="547,-213.12 480,-213.12 480,-193.88 547,-193.88 547,-213.12"/>
<text text-anchor="middle" x="513.5" y="-199.62" font-family="Helvetica,sans-Serif" font-size="10.00">Eigen/Eigen</text>
</a>
</g>
</g>
<!-- Node2&#45;&gt;Node15 -->
<g id="edge20_Node000002_Node000015" class="edge">
<title>Node2&#45;&gt;Node15</title>
<g id="a_edge20_Node000002_Node000015"><a xlink:title=" ">
<path fill="none" stroke="#63b8ff" d="M513.5,-254.43C513.5,-246.65 513.5,-235.08 513.5,-225.03"/>
<polygon fill="#63b8ff" stroke="#63b8ff" points="517,-225.04 513.5,-215.04 510,-225.04 517,-225.04"/>
</a>
</g>
</g>
<!-- Node4 -->
<g id="Node000004" class="node">
<title>Node4</title>
<g id="a_Node000004"><a xlink:href="typed__linear__algebra__forward_8hpp.xhtml" target="_top" xlink:title="Authoritative forward declaration header.">
<polygon fill="white" stroke="#666666" points="600.75,-146.62 496.25,-146.62 496.25,-116.12 600.75,-116.12 600.75,-146.62"/>
<text text-anchor="start" x="504.25" y="-133.12" font-family="Helvetica,sans-Serif" font-size="10.00">typed_linear_algebra</text>
<text text-anchor="middle" x="548.5" y="-121.88" font-family="Helvetica,sans-Serif" font-size="10.00">_forward.hpp</text>
</a>
</g>
</g>
<!-- Node3&#45;&gt;Node4 -->
<g id="edge3_Node000003_Node000004" class="edge">
<title>Node3&#45;&gt;Node4</title>
<g id="a_edge3_Node000003_Node000004"><a xlink:title=" ">
<path fill="none" stroke="#63b8ff" d="M339.06,-190.12C380.09,-180.54 437.59,-166.54 487.5,-152.25 489.59,-151.65 491.71,-151.03 493.85,-150.39"/>
<polygon fill="#63b8ff" stroke="#63b8ff" points="494.65,-153.81 503.19,-147.53 492.6,-147.11 494.65,-153.81"/>
</a>
</g>
</g>
<!-- Node5 -->
<g id="Node000005" class="node">
<title>Node5</title>
<g id="a_Node000005"><a xlink:href="format_8hpp.xhtml" target="_top" xlink:title="Formatting support for the typed matrix.">
<polygon fill="white" stroke="#666666" points="224.75,-146.62 120.25,-146.62 120.25,-116.12 224.75,-116.12 224.75,-146.62"/>
<text text-anchor="start" x="128.25" y="-133.12" font-family="Helvetica,sans-Serif" font-size="10.00">typed_linear_algebra</text>
<text text-anchor="middle" x="172.5" y="-121.88" font-family="Helvetica,sans-Serif" font-size="10.00">_internal/format.hpp</text>
</a>
</g>
</g>
<!-- Node3&#45;&gt;Node5 -->
<g id="edge4_Node000003_Node000005" class="edge">
<title>Node3&#45;&gt;Node5</title>
<g id="a_edge4_Node000003_Node000005"><a xlink:title=" ">
<path fill="none" stroke="#63b8ff" d="M261.02,-187.8C244.89,-177.7 223.26,-164.15 205.41,-152.98"/>
<polygon fill="#63b8ff" stroke="#63b8ff" points="207.56,-150.2 197.23,-147.86 203.85,-156.13 207.56,-150.2"/>
</a>
</g>
</g>
<!-- Node6 -->
<g id="Node000006" class="node">
<title>Node6</title>
<g id="a_Node000006"><a xlink:href="utility_8hpp.xhtml" target="_top" xlink:title=" ">
<polygon fill="white" stroke="#666666" points="176.75,-74.5 120.25,-74.5 120.25,-55.25 176.75,-55.25 176.75,-74.5"/>
<text text-anchor="middle" x="148.5" y="-61" font-family="Helvetica,sans-Serif" font-size="10.00">utility.hpp</text>
</a>
</g>
</g>
<!-- Node3&#45;&gt;Node6 -->
<g id="edge11_Node000003_Node000006" class="edge">
<title>Node3&#45;&gt;Node6</title>
<g id="a_edge11_Node000003_Node000006"><a xlink:title=" ">
<path fill="none" stroke="#63b8ff" d="M230,-193.93C184.85,-185.6 125.87,-171.38 111.5,-152.25 100.36,-137.41 105.2,-127.96 111.5,-110.5 115.23,-100.16 122.52,-90.51 129.64,-82.86"/>
<polygon fill="#63b8ff" stroke="#63b8ff" points="132,-85.45 136.64,-75.93 127.07,-80.48 132,-85.45"/>
</a>
</g>
</g>
<!-- Node7 -->
<g id="Node000007" class="node">
<title>Node7</title>
<g id="a_Node000007"><a xlink:title=" ">
<polygon fill="#e0e0e0" stroke="#999999" points="442.38,-19.25 386.62,-19.25 386.62,0 442.38,0 442.38,-19.25"/>
<text text-anchor="middle" x="414.5" y="-5.75" font-family="Helvetica,sans-Serif" font-size="10.00">concepts</text>
</a>
</g>
</g>
<!-- Node3&#45;&gt;Node7 -->
<g id="edge12_Node000003_Node000007" class="edge">
<title>Node3&#45;&gt;Node7</title>
<g id="a_edge12_Node000003_Node000007"><a xlink:title=" ">
<path fill="none" stroke="#63b8ff" d="M338.82,-197.93C426.72,-189.99 592.13,-172.51 609.5,-152.25 662.1,-90.89 524.3,-41.49 453.48,-20.94"/>
<polygon fill="#63b8ff" stroke="#63b8ff" points="454.76,-17.67 444.19,-18.31 452.85,-24.4 454.76,-17.67"/>
</a>
</g>
</g>
<!-- Node8 -->
<g id="Node000008" class="node">
<title>Node8</title>
<g id="a_Node000008"><a xlink:title=" ">
<polygon fill="#e0e0e0" stroke="#999999" points="37,-19.25 0,-19.25 0,0 37,0 37,-19.25"/>
<text text-anchor="middle" x="18.5" y="-5.75" font-family="Helvetica,sans-Serif" font-size="10.00">tuple</text>
</a>
</g>
</g>
<!-- Node3&#45;&gt;Node8 -->
<g id="edge16_Node000003_Node000008" class="edge">
<title>Node3&#45;&gt;Node8</title>
<g id="a_edge16_Node000003_Node000008"><a xlink:title=" ">
<path fill="none" stroke="#63b8ff" d="M230.24,-201.79C182.83,-198.62 114.29,-187.56 66.5,-152.25 34.39,-128.52 32.76,-112.81 21.5,-74.5 17.32,-60.28 16.69,-43.52 17.03,-30.74"/>
<polygon fill="#63b8ff" stroke="#63b8ff" points="20.51,-31.2 17.54,-21.03 13.52,-30.84 20.51,-31.2"/>
</a>
</g>
</g>
<!-- Node3&#45;&gt;Node10 -->
<g id="edge13_Node000003_Node000010" class="edge">
<title>Node3&#45;&gt;Node10</title>
<g id="a_edge13_Node000003_Node000010"><a xlink:title=" ">
<path fill="none" stroke="#63b8ff" d="M230.22,-199.05C190.58,-194.02 137.5,-181.8 100.5,-152.25 79.06,-135.13 66.37,-105.24 59.91,-85.5"/>
<polygon fill="#63b8ff" stroke="#63b8ff" points="63.34,-84.75 57.12,-76.18 56.64,-86.76 63.34,-84.75"/>
</a>
</g>
</g>
<!-- Node3&#45;&gt;Node11 -->
<g id="edge14_Node000003_Node000011" class="edge">
<title>Node3&#45;&gt;Node11</title>
<g id="a_edge14_Node000003_Node000011"><a xlink:title=" ">
<path fill="none" stroke="#63b8ff" d="M280.6,-188.02C277.95,-178 274.39,-164.34 271.5,-152.25 266.1,-129.66 260.44,-103.61 256.72,-86.07"/>
<polygon fill="#63b8ff" stroke="#63b8ff" points="260.19,-85.52 254.7,-76.46 253.34,-86.97 260.19,-85.52"/>
</a>
</g>
</g>
<!-- Node12 -->
<g id="Node000012" class="node">
<title>Node12</title>
<g id="a_Node000012"><a xlink:title=" ">
<polygon fill="#e0e0e0" stroke="#999999" points="352.25,-141 280.75,-141 280.75,-121.75 352.25,-121.75 352.25,-141"/>
<text text-anchor="middle" x="316.5" y="-127.5" font-family="Helvetica,sans-Serif" font-size="10.00">initializer_list</text>
</a>
</g>
</g>
<!-- Node3&#45;&gt;Node12 -->
<g id="edge15_Node000003_Node000012" class="edge">
<title>Node3&#45;&gt;Node12</title>
<g id="a_edge15_Node000003_Node000012"><a xlink:title=" ">
<path fill="none" stroke="#63b8ff" d="M291.13,-187.97C295.96,-177.38 302.56,-162.93 307.81,-151.42"/>
<polygon fill="#63b8ff" stroke="#63b8ff" points="310.91,-153.06 311.88,-142.51 304.54,-150.15 310.91,-153.06"/>
</a>
</g>
</g>
<!-- Node13 -->
<g id="Node000013" class="node">
<title>Node13</title>
<g id="a_Node000013"><a xlink:title=" ">
<polygon fill="#e0e0e0" stroke="#999999" points="478.25,-152.25 370.75,-152.25 370.75,-110.5 478.25,-110.5 478.25,-152.25"/>
<text text-anchor="start" x="378.75" y="-138.75" font-family="Helvetica,sans-Serif" font-size="10.00">typed_linear_algebra</text>
<text text-anchor="start" x="378.75" y="-127.5" font-family="Helvetica,sans-Serif" font-size="10.00">_internal/typed_linear</text>
<text text-anchor="middle" x="424.5" y="-116.25" font-family="Helvetica,sans-Serif" font-size="10.00">_algebra.tpp</text>
</a>
</g>
</g>
<!-- Node3&#45;&gt;Node13 -->
<g id="edge17_Node000003_Node000013" class="edge">
<title>Node3&#45;&gt;Node13</title>
<g id="a_edge17_Node000003_Node000013"><a xlink:title=" ">
<path fill="none" stroke="#63b8ff" d="M313.85,-187.8C331.19,-179.11 353.63,-167.87 373.76,-157.79"/>
<polygon fill="#63b8ff" stroke="#63b8ff" points="375.31,-160.93 382.69,-153.32 372.18,-154.67 375.31,-160.93"/>
</a>
</g>
</g>
<!-- Node5&#45;&gt;Node6 -->
<g id="edge5_Node000005_Node000006" class="edge">
<title>Node5&#45;&gt;Node6</title>
<g id="a_edge5_Node000005_Node000006"><a xlink:title=" ">
<path fill="none" stroke="#63b8ff" d="M167.05,-115.74C163.71,-106.75 159.39,-95.14 155.76,-85.38"/>
<polygon fill="#63b8ff" stroke="#63b8ff" points="159.08,-84.27 152.31,-76.12 152.52,-86.71 159.08,-84.27"/>
</a>
</g>
</g>
<!-- Node5&#45;&gt;Node10 -->
<g id="edge9_Node000005_Node000010" class="edge">
<title>Node5&#45;&gt;Node10</title>
<g id="a_edge9_Node000005_Node000010"><a xlink:title=" ">
<path fill="none" stroke="#63b8ff" d="M145.72,-115.74C126.33,-105.14 100.24,-90.88 80.93,-80.32"/>
<polygon fill="#63b8ff" stroke="#63b8ff" points="82.76,-77.34 72.31,-75.61 79.41,-83.48 82.76,-77.34"/>
</a>
</g>
</g>
<!-- Node5&#45;&gt;Node11 -->
<g id="edge10_Node000005_Node000011" class="edge">
<title>Node5&#45;&gt;Node11</title>
<g id="a_edge10_Node000005_Node000011"><a xlink:title=" ">
<path fill="none" stroke="#63b8ff" d="M190.65,-115.74C203.27,-105.57 220.06,-92.03 232.96,-81.63"/>
<polygon fill="#63b8ff" stroke="#63b8ff" points="234.79,-84.65 240.38,-75.65 230.4,-79.2 234.79,-84.65"/>
</a>
</g>
</g>
<!-- Node6&#45;&gt;Node7 -->
<g id="edge6_Node000006_Node000007" class="edge">
<title>Node6&#45;&gt;Node7</title>
<g id="a_edge6_Node000006_Node000007"><a xlink:title=" ">
<path fill="none" stroke="#63b8ff" d="M177.22,-58.13C225.03,-48.55 321.02,-29.34 375.11,-18.51"/>
<polygon fill="#63b8ff" stroke="#63b8ff" points="375.7,-21.96 384.82,-16.57 374.33,-15.1 375.7,-21.96"/>
</a>
</g>
</g>
<!-- Node6&#45;&gt;Node8 -->
<g id="edge7_Node000006_Node000008" class="edge">
<title>Node6&#45;&gt;Node8</title>
<g id="a_edge7_Node000006_Node000008"><a xlink:title=" ">
<path fill="none" stroke="#63b8ff" d="M126.45,-54.84C104.81,-45.98 71.68,-32.41 47.83,-22.64"/>
<polygon fill="#63b8ff" stroke="#63b8ff" points="49.26,-19.44 38.68,-18.89 46.61,-25.92 49.26,-19.44"/>
</a>
</g>
</g>
<!-- Node9 -->
<g id="Node000009" class="node">
<title>Node9</title>
<g id="a_Node000009"><a xlink:title=" ">
<polygon fill="#e0e0e0" stroke="#999999" points="179,-19.25 118,-19.25 118,0 179,0 179,-19.25"/>
<text text-anchor="middle" x="148.5" y="-5.75" font-family="Helvetica,sans-Serif" font-size="10.00">type_traits</text>
</a>
</g>
</g>
<!-- Node6&#45;&gt;Node9 -->
<g id="edge8_Node000006_Node000009" class="edge">
<title>Node6&#45;&gt;Node9</title>
<g id="a_edge8_Node000006_Node000009"><a xlink:title=" ">
<path fill="none" stroke="#63b8ff" d="M148.5,-55.08C148.5,-48.57 148.5,-39.42 148.5,-31.12"/>
<polygon fill="#63b8ff" stroke="#63b8ff" points="152,-31.12 148.5,-21.12 145,-31.12 152,-31.12"/>
</a>
</g>
</g>
</g>
</svg>
