<?xml version="1.0" encoding="UTF-8" standalone="no"?>
<!DOCTYPE svg PUBLIC "-//W3C//DTD SVG 1.1//EN"
 "http://www.w3.org/Graphics/SVG/1.1/DTD/svg11.dtd">
<!-- Generated by graphviz version 12.2.0 (20241103.1931)
 -->
<!-- Title: /github/workspace/support/eigen/fcarouge/eigen.hpp Pages: 1 -->
<svg width="528pt" height="227pt"
 viewBox="0.00 0.00 528.38 226.75" xmlns="http://www.w3.org/2000/svg" xmlns:xlink="http://www.w3.org/1999/xlink">
<g id="graph0" class="graph" transform="scale(1 1) rotate(0) translate(4 222.75)">
<title>/github/workspace/support/eigen/fcarouge/eigen.hpp</title>
<!-- Node1 -->
<g id="Node000001" class="node">
<title>Node1</title>
<g id="a_Node000001"><a xlink:title="Linear algebra facade for Eigen3 third party implementation.">
<polygon fill="#999999" stroke="#666666" points="448.25,-218.75 317.5,-218.75 317.5,-188.25 448.25,-188.25 448.25,-218.75"/>
<text text-anchor="start" x="325.5" y="-205.25" font-family="Helvetica,sans-Serif" font-size="10.00">/github/workspace/support</text>
<text text-anchor="middle" x="382.88" y="-194" font-family="Helvetica,sans-Serif" font-size="10.00">/eigen/fcarouge/eigen.hpp</text>
</a>
</g>
</g>
<!-- Node2 -->
<g id="Node000002" class="node">
<title>Node2</title>
<g id="a_Node000002"><a xlink:href="typed__linear__algebra_8hpp.xhtml" target="_top" xlink:title="Typed linear algebra implementation.">
<polygon fill="white" stroke="#666666" points="292,-152.25 183.75,-152.25 183.75,-121.75 292,-121.75 292,-152.25"/>
<text text-anchor="start" x="191.75" y="-138.75" font-family="Helvetica,sans-Serif" font-size="10.00">fcarouge/typed_linear</text>
<text text-anchor="middle" x="237.88" y="-127.5" font-family="Helvetica,sans-Serif" font-size="10.00">_algebra.hpp</text>
</a>
</g>
</g>
<!-- Node1&#45;&gt;Node2 -->
<g id="edge1_Node000001_Node000002" class="edge">
<title>Node1&#45;&gt;Node2</title>
<g id="a_edge1_Node000001_Node000002"><a xlink:title=" ">
<path fill="none" stroke="#63b8ff" d="M349.97,-187.86C329.65,-178.82 303.34,-167.12 281.32,-157.33"/>
<polygon fill="#63b8ff" stroke="#63b8ff" points="282.84,-154.17 272.28,-153.3 280,-160.57 282.84,-154.17"/>
</a>
</g>
</g>
<!-- Node8 -->
<g id="Node000008" class="node">
<title>Node8</title>
<g id="a_Node000008"><a xlink:title=" ">
<polygon fill="#e0e0e0" stroke="#999999" points="413.75,-80.12 370,-80.12 370,-60.88 413.75,-60.88 413.75,-80.12"/>
<text text-anchor="middle" x="391.88" y="-66.62" font-family="Helvetica,sans-Serif" font-size="10.00">format</text>
</a>
</g>
</g>
<!-- Node1&#45;&gt;Node8 -->
<g id="edge11_Node000001_Node000008" class="edge">
<title>Node1&#45;&gt;Node8</title>
<g id="a_edge11_Node000001_Node000008"><a xlink:title=" ">
<path fill="none" stroke="#63b8ff" d="M379.13,-187.84C375.51,-171.6 371.1,-144.69 374.88,-121.75 376.58,-111.39 380.14,-100.29 383.56,-91.16"/>
<polygon fill="#63b8ff" stroke="#63b8ff" points="386.79,-92.52 387.25,-81.94 380.29,-89.92 386.79,-92.52"/>
</a>
</g>
</g>
<!-- Node10 -->
<g id="Node000010" class="node">
<title>Node10</title>
<g id="a_Node000010"><a xlink:title=" ">
<polygon fill="#e0e0e0" stroke="#999999" points="435.5,-146.62 384.25,-146.62 384.25,-127.38 435.5,-127.38 435.5,-146.62"/>
<text text-anchor="middle" x="409.88" y="-133.12" font-family="Helvetica,sans-Serif" font-size="10.00">sstream</text>
</a>
</g>
</g>
<!-- Node1&#45;&gt;Node10 -->
<g id="edge12_Node000001_Node000010" class="edge">
<title>Node1&#45;&gt;Node10</title>
<g id="a_edge12_Node000001_Node000010"><a xlink:title=" ">
<path fill="none" stroke="#63b8ff" d="M389,-187.86C392.8,-178.78 397.73,-167.01 401.84,-157.18"/>
<polygon fill="#63b8ff" stroke="#63b8ff" points="404.96,-158.79 405.6,-148.22 398.51,-156.09 404.96,-158.79"/>
</a>
</g>
</g>
<!-- Node11 -->
<g id="Node000011" class="node">
<title>Node11</title>
<g id="a_Node000011"><a xlink:title=" ">
<polygon fill="#e0e0e0" stroke="#999999" points="520.38,-146.62 453.38,-146.62 453.38,-127.38 520.38,-127.38 520.38,-146.62"/>
<text text-anchor="middle" x="486.88" y="-133.12" font-family="Helvetica,sans-Serif" font-size="10.00">Eigen/Eigen</text>
</a>
</g>
</g>
<!-- Node1&#45;&gt;Node11 -->
<g id="edge13_Node000001_Node000011" class="edge">
<title>Node1&#45;&gt;Node11</title>
<g id="a_edge13_Node000001_Node000011"><a xlink:title=" ">
<path fill="none" stroke="#63b8ff" d="M406.47,-187.86C423.25,-177.46 445.71,-163.53 462.63,-153.04"/>
<polygon fill="#63b8ff" stroke="#63b8ff" points="464.41,-156.05 471.06,-147.81 460.72,-150.1 464.41,-156.05"/>
</a>
</g>
</g>
<!-- Node3 -->
<g id="Node000003" class="node">
<title>Node3</title>
<g id="a_Node000003"><a xlink:href="utility_8hpp.xhtml" target="_top" xlink:title=" ">
<polygon fill="white" stroke="#666666" points="158.12,-85.75 53.62,-85.75 53.62,-55.25 158.12,-55.25 158.12,-85.75"/>
<text text-anchor="start" x="61.62" y="-72.25" font-family="Helvetica,sans-Serif" font-size="10.00">typed_linear_algebra</text>
<text text-anchor="middle" x="105.88" y="-61" font-family="Helvetica,sans-Serif" font-size="10.00">_internal/utility.hpp</text>
</a>
</g>
</g>
<!-- Node2&#45;&gt;Node3 -->
<g id="edge2_Node000002_Node000003" class="edge">
<title>Node2&#45;&gt;Node3</title>
<g id="a_edge2_Node000002_Node000003"><a xlink:title=" ">
<path fill="none" stroke="#63b8ff" d="M207.92,-121.36C189.61,-112.42 165.96,-100.86 146.04,-91.12"/>
<polygon fill="#63b8ff" stroke="#63b8ff" points="147.59,-87.99 137.07,-86.74 144.52,-94.28 147.59,-87.99"/>
</a>
</g>
</g>
<!-- Node4 -->
<g id="Node000004" class="node">
<title>Node4</title>
<g id="a_Node000004"><a xlink:title=" ">
<polygon fill="#e0e0e0" stroke="#999999" points="55.75,-19.25 0,-19.25 0,0 55.75,0 55.75,-19.25"/>
<text text-anchor="middle" x="27.88" y="-5.75" font-family="Helvetica,sans-Serif" font-size="10.00">concepts</text>
</a>
</g>
</g>
<!-- Node2&#45;&gt;Node4 -->
<g id="edge6_Node000002_Node000004" class="edge">
<title>Node2&#45;&gt;Node4</title>
<g id="a_edge6_Node000002_Node000004"><a xlink:title=" ">
<path fill="none" stroke="#63b8ff" d="M183.52,-128.26C133.4,-120.03 63.96,-105.46 44.88,-85.75 30.79,-71.21 27.42,-47.59 27.02,-30.72"/>
<polygon fill="#63b8ff" stroke="#63b8ff" points="30.51,-30.95 27.14,-20.9 23.51,-30.86 30.51,-30.95"/>
</a>
</g>
</g>
<!-- Node5 -->
<g id="Node000005" class="node">
<title>Node5</title>
<g id="a_Node000005"><a xlink:title=" ">
<polygon fill="#e0e0e0" stroke="#999999" points="197.38,-19.25 160.38,-19.25 160.38,0 197.38,0 197.38,-19.25"/>
<text text-anchor="middle" x="178.88" y="-5.75" font-family="Helvetica,sans-Serif" font-size="10.00">tuple</text>
</a>
</g>
</g>
<!-- Node2&#45;&gt;Node5 -->
<g id="edge10_Node000002_Node000005" class="edge">
<title>Node2&#45;&gt;Node5</title>
<g id="a_edge10_Node000002_Node000005"><a xlink:title=" ">
<path fill="none" stroke="#63b8ff" d="M227.05,-121.62C220.06,-111.87 211.14,-98.49 204.88,-85.75 196.03,-67.77 188.86,-46.02 184.3,-30.56"/>
<polygon fill="#63b8ff" stroke="#63b8ff" points="187.73,-29.83 181.64,-21.16 181,-31.73 187.73,-29.83"/>
</a>
</g>
</g>
<!-- Node7 -->
<g id="Node000007" class="node">
<title>Node7</title>
<g id="a_Node000007"><a xlink:title=" ">
<polygon fill="#e0e0e0" stroke="#999999" points="262,-80.12 213.75,-80.12 213.75,-60.88 262,-60.88 262,-80.12"/>
<text text-anchor="middle" x="237.88" y="-66.62" font-family="Helvetica,sans-Serif" font-size="10.00">cstddef</text>
</a>
</g>
</g>
<!-- Node2&#45;&gt;Node7 -->
<g id="edge7_Node000002_Node000007" class="edge">
<title>Node2&#45;&gt;Node7</title>
<g id="a_edge7_Node000002_Node000007"><a xlink:title=" ">
<path fill="none" stroke="#63b8ff" d="M237.88,-121.36C237.88,-112.58 237.88,-101.27 237.88,-91.65"/>
<polygon fill="#63b8ff" stroke="#63b8ff" points="241.38,-91.84 237.88,-81.84 234.38,-91.84 241.38,-91.84"/>
</a>
</g>
</g>
<!-- Node2&#45;&gt;Node8 -->
<g id="edge8_Node000002_Node000008" class="edge">
<title>Node2&#45;&gt;Node8</title>
<g id="a_edge8_Node000002_Node000008"><a xlink:title=" ">
<path fill="none" stroke="#63b8ff" d="M274.92,-121.35C299.42,-111.54 332.2,-98.19 360.88,-85.75 361.35,-85.54 361.83,-85.33 362.31,-85.12"/>
<polygon fill="#63b8ff" stroke="#63b8ff" points="363.51,-88.42 371.2,-81.14 360.65,-82.03 363.51,-88.42"/>
</a>
</g>
</g>
<!-- Node9 -->
<g id="Node000009" class="node">
<title>Node9</title>
<g id="a_Node000009"><a xlink:title=" ">
<polygon fill="#e0e0e0" stroke="#999999" points="351.62,-80.12 280.12,-80.12 280.12,-60.88 351.62,-60.88 351.62,-80.12"/>
<text text-anchor="middle" x="315.88" y="-66.62" font-family="Helvetica,sans-Serif" font-size="10.00">initializer_list</text>
</a>
</g>
</g>
<!-- Node2&#45;&gt;Node9 -->
<g id="edge9_Node000002_Node000009" class="edge">
<title>Node2&#45;&gt;Node9</title>
<g id="a_edge9_Node000002_Node000009"><a xlink:title=" ">
<path fill="none" stroke="#63b8ff" d="M255.57,-121.36C267.75,-111.29 283.93,-97.92 296.46,-87.56"/>
<polygon fill="#63b8ff" stroke="#63b8ff" points="298.56,-90.36 304.04,-81.29 294.1,-84.96 298.56,-90.36"/>
</a>
</g>
</g>
<!-- Node3&#45;&gt;Node4 -->
<g id="edge3_Node000003_Node000004" class="edge">
<title>Node3&#45;&gt;Node4</title>
<g id="a_edge3_Node000003_Node000004"><a xlink:title=" ">
<path fill="none" stroke="#63b8ff" d="M86.59,-54.95C75.17,-46.33 60.69,-35.4 48.97,-26.55"/>
<polygon fill="#63b8ff" stroke="#63b8ff" points="51.2,-23.84 41.11,-20.61 46.98,-29.43 51.2,-23.84"/>
</a>
</g>
</g>
<!-- Node3&#45;&gt;Node5 -->
<g id="edge4_Node000003_Node000005" class="edge">
<title>Node3&#45;&gt;Node5</title>
<g id="a_edge4_Node000003_Node000005"><a xlink:title=" ">
<path fill="none" stroke="#63b8ff" d="M123.92,-54.95C134.5,-46.41 147.89,-35.62 158.8,-26.81"/>
<polygon fill="#63b8ff" stroke="#63b8ff" points="160.86,-29.65 166.44,-20.65 156.46,-24.2 160.86,-29.65"/>
</a>
</g>
</g>
<!-- Node6 -->
<g id="Node000006" class="node">
<title>Node6</title>
<g id="a_Node000006"><a xlink:title=" ">
<polygon fill="#e0e0e0" stroke="#999999" points="136.38,-19.25 75.38,-19.25 75.38,0 136.38,0 136.38,-19.25"/>
<text text-anchor="middle" x="105.88" y="-5.75" font-family="Helvetica,sans-Serif" font-size="10.00">type_traits</text>
</a>
</g>
</g>
<!-- Node3&#45;&gt;Node6 -->
<g id="edge5_Node000003_Node000006" class="edge">
<title>Node3&#45;&gt;Node6</title>
<g id="a_edge5_Node000003_Node000006"><a xlink:title=" ">
<path fill="none" stroke="#63b8ff" d="M105.88,-54.95C105.88,-47.71 105.88,-38.84 105.88,-30.94"/>
<polygon fill="#63b8ff" stroke="#63b8ff" points="109.38,-31.21 105.88,-21.21 102.38,-31.21 109.38,-31.21"/>
</a>
</g>
</g>
</g>
</svg>
