<?xml version="1.0" encoding="UTF-8" standalone="no"?>
<!DOCTYPE svg PUBLIC "-//W3C//DTD SVG 1.1//EN"
 "http://www.w3.org/Graphics/SVG/1.1/DTD/svg11.dtd">
<!-- Generated by graphviz version 12.2.0 (20241103.1931)
 -->
<!-- Title: /github/workspace/support/eigexed/fcarouge/linalg.hpp Pages: 1 -->
<svg width="601pt" height="349pt"
 viewBox="0.00 0.00 601.06 348.50" xmlns="http://www.w3.org/2000/svg" xmlns:xlink="http://www.w3.org/1999/xlink">
<g id="graph0" class="graph" transform="scale(1 1) rotate(0) translate(4 344.5)">
<title>/github/workspace/support/eigexed/fcarouge/linalg.hpp</title>
<!-- Node1 -->
<g id="Node000001" class="node">
<title>Node1</title>
<g id="a_Node000001"><a xlink:title="Scalar type linear algebra with Eigen implementation.">
<polygon fill="#999999" stroke="#666666" points="315.44,-340.5 179.44,-340.5 179.44,-310 315.44,-310 315.44,-340.5"/>
<text text-anchor="start" x="187.44" y="-327" font-family="Helvetica,sans-Serif" font-size="10.00">/github/workspace/support</text>
<text text-anchor="middle" x="247.44" y="-315.75" font-family="Helvetica,sans-Serif" font-size="10.00">/eigexed/fcarouge/linalg.hpp</text>
</a>
</g>
</g>
<!-- Node2 -->
<g id="Node000002" class="node">
<title>Node2</title>
<g id="a_Node000002"><a xlink:href="eigen_8hpp.xhtml" target="_top" xlink:title="Linear algebra facade for Eigen3 third party implementation.">
<polygon fill="white" stroke="#666666" points="451.31,-274 353.56,-274 353.56,-254.75 451.31,-254.75 451.31,-274"/>
<text text-anchor="middle" x="402.44" y="-260.5" font-family="Helvetica,sans-Serif" font-size="10.00">fcarouge/eigen.hpp</text>
</a>
</g>
</g>
<!-- Node1&#45;&gt;Node2 -->
<g id="edge1_Node000001_Node000002" class="edge">
<title>Node1&#45;&gt;Node2</title>
<g id="a_edge1_Node000001_Node000002"><a xlink:title=" ">
<path fill="none" stroke="#63b8ff" d="M286.15,-309.55C311.34,-299.98 343.9,-287.61 368.16,-278.39"/>
<polygon fill="#63b8ff" stroke="#63b8ff" points="369.14,-281.76 377.25,-274.94 366.66,-275.22 369.14,-281.76"/>
</a>
</g>
</g>
<!-- Node3 -->
<g id="Node000003" class="node">
<title>Node3</title>
<g id="a_Node000003"><a xlink:href="typed__linear__algebra_8hpp.xhtml" target="_top" xlink:title="Typed linear algebra implementation.">
<polygon fill="white" stroke="#666666" points="301.56,-218.75 193.31,-218.75 193.31,-188.25 301.56,-188.25 301.56,-218.75"/>
<text text-anchor="start" x="201.31" y="-205.25" font-family="Helvetica,sans-Serif" font-size="10.00">fcarouge/typed_linear</text>
<text text-anchor="middle" x="247.44" y="-194" font-family="Helvetica,sans-Serif" font-size="10.00">_algebra.hpp</text>
</a>
</g>
</g>
<!-- Node1&#45;&gt;Node3 -->
<g id="edge20_Node000001_Node000003" class="edge">
<title>Node1&#45;&gt;Node3</title>
<g id="a_edge20_Node000001_Node000003"><a xlink:title=" ">
<path fill="none" stroke="#63b8ff" d="M247.44,-309.57C247.44,-289.89 247.44,-254.64 247.44,-230.44"/>
<polygon fill="#63b8ff" stroke="#63b8ff" points="250.94,-230.44 247.44,-220.44 243.94,-230.44 250.94,-230.44"/>
</a>
</g>
</g>
<!-- Node9 -->
<g id="Node000009" class="node">
<title>Node9</title>
<g id="a_Node000009"><a xlink:title=" ">
<polygon fill="#e0e0e0" stroke="#999999" points="61.56,-74.5 13.31,-74.5 13.31,-55.25 61.56,-55.25 61.56,-74.5"/>
<text text-anchor="middle" x="37.44" y="-61" font-family="Helvetica,sans-Serif" font-size="10.00">cstddef</text>
</a>
</g>
</g>
<!-- Node1&#45;&gt;Node9 -->
<g id="edge21_Node000001_Node000009" class="edge">
<title>Node1&#45;&gt;Node9</title>
<g id="a_edge21_Node000001_Node000009"><a xlink:title=" ">
<path fill="none" stroke="#63b8ff" d="M217.15,-309.51C169.78,-284.6 79.65,-229.25 41.44,-152.25 31.13,-131.48 31.8,-104.34 33.96,-86.07"/>
<polygon fill="#63b8ff" stroke="#63b8ff" points="37.41,-86.69 35.39,-76.28 30.48,-85.67 37.41,-86.69"/>
</a>
</g>
</g>
<!-- Node2&#45;&gt;Node3 -->
<g id="edge2_Node000002_Node000003" class="edge">
<title>Node2&#45;&gt;Node3</title>
<g id="a_edge2_Node000002_Node000003"><a xlink:title=" ">
<path fill="none" stroke="#63b8ff" d="M378.56,-254.3C356.82,-246.05 324.03,-233.59 296.69,-223.21"/>
<polygon fill="#63b8ff" stroke="#63b8ff" points="298.13,-220.01 287.54,-219.73 295.64,-226.55 298.13,-220.01"/>
</a>
</g>
</g>
<!-- Node10 -->
<g id="Node000010" class="node">
<title>Node10</title>
<g id="a_Node000010"><a xlink:title=" ">
<polygon fill="#e0e0e0" stroke="#999999" points="447.31,-74.5 403.56,-74.5 403.56,-55.25 447.31,-55.25 447.31,-74.5"/>
<text text-anchor="middle" x="425.44" y="-61" font-family="Helvetica,sans-Serif" font-size="10.00">format</text>
</a>
</g>
</g>
<!-- Node2&#45;&gt;Node10 -->
<g id="edge17_Node000002_Node000010" class="edge">
<title>Node2&#45;&gt;Node10</title>
<g id="a_edge17_Node000002_Node000010"><a xlink:title=" ">
<path fill="none" stroke="#63b8ff" d="M415.34,-254.46C425.67,-246.46 439.4,-233.72 445.44,-218.75 463.73,-173.39 445.72,-114.89 433.91,-85.12"/>
<polygon fill="#63b8ff" stroke="#63b8ff" points="437.3,-84.16 430.22,-76.28 430.84,-86.86 437.3,-84.16"/>
</a>
</g>
</g>
<!-- Node13 -->
<g id="Node000013" class="node">
<title>Node13</title>
<g id="a_Node000013"><a xlink:title=" ">
<polygon fill="#e0e0e0" stroke="#999999" points="593.06,-213.12 541.81,-213.12 541.81,-193.88 593.06,-193.88 593.06,-213.12"/>
<text text-anchor="middle" x="567.44" y="-199.62" font-family="Helvetica,sans-Serif" font-size="10.00">sstream</text>
</a>
</g>
</g>
<!-- Node2&#45;&gt;Node13 -->
<g id="edge18_Node000002_Node000013" class="edge">
<title>Node2&#45;&gt;Node13</title>
<g id="a_edge18_Node000002_Node000013"><a xlink:title=" ">
<path fill="none" stroke="#63b8ff" d="M427.86,-254.3C455.59,-244.41 500.21,-228.49 531.52,-217.32"/>
<polygon fill="#63b8ff" stroke="#63b8ff" points="532.32,-220.75 540.56,-214.09 529.97,-214.15 532.32,-220.75"/>
</a>
</g>
</g>
<!-- Node14 -->
<g id="Node000014" class="node">
<title>Node14</title>
<g id="a_Node000014"><a xlink:title=" ">
<polygon fill="#e0e0e0" stroke="#999999" points="435.94,-213.12 368.94,-213.12 368.94,-193.88 435.94,-193.88 435.94,-213.12"/>
<text text-anchor="middle" x="402.44" y="-199.62" font-family="Helvetica,sans-Serif" font-size="10.00">Eigen/Eigen</text>
</a>
</g>
</g>
<!-- Node2&#45;&gt;Node14 -->
<g id="edge19_Node000002_Node000014" class="edge">
<title>Node2&#45;&gt;Node14</title>
<g id="a_edge19_Node000002_Node000014"><a xlink:title=" ">
<path fill="none" stroke="#63b8ff" d="M402.44,-254.43C402.44,-246.65 402.44,-235.08 402.44,-225.03"/>
<polygon fill="#63b8ff" stroke="#63b8ff" points="405.94,-225.04 402.44,-215.04 398.94,-225.04 405.94,-225.04"/>
</a>
</g>
</g>
<!-- Node4 -->
<g id="Node000004" class="node">
<title>Node4</title>
<g id="a_Node000004"><a xlink:href="format_8hpp.xhtml" target="_top" xlink:title="Formatting support for the typed matrix.">
<polygon fill="white" stroke="#666666" points="193.69,-146.62 89.19,-146.62 89.19,-116.12 193.69,-116.12 193.69,-146.62"/>
<text text-anchor="start" x="97.19" y="-133.12" font-family="Helvetica,sans-Serif" font-size="10.00">typed_linear_algebra</text>
<text text-anchor="middle" x="141.44" y="-121.88" font-family="Helvetica,sans-Serif" font-size="10.00">_internal/format.hpp</text>
</a>
</g>
</g>
<!-- Node3&#45;&gt;Node4 -->
<g id="edge3_Node000003_Node000004" class="edge">
<title>Node3&#45;&gt;Node4</title>
<g id="a_edge3_Node000003_Node000004"><a xlink:title=" ">
<path fill="none" stroke="#63b8ff" d="M225.21,-187.8C210.09,-177.79 189.85,-164.41 173.06,-153.29"/>
<polygon fill="#63b8ff" stroke="#63b8ff" points="175.16,-150.49 164.89,-147.89 171.3,-156.33 175.16,-150.49"/>
</a>
</g>
</g>
<!-- Node5 -->
<g id="Node000005" class="node">
<title>Node5</title>
<g id="a_Node000005"><a xlink:href="utility_8hpp.xhtml" target="_top" xlink:title=" ">
<polygon fill="white" stroke="#666666" points="152.69,-74.5 96.19,-74.5 96.19,-55.25 152.69,-55.25 152.69,-74.5"/>
<text text-anchor="middle" x="124.44" y="-61" font-family="Helvetica,sans-Serif" font-size="10.00">utility.hpp</text>
</a>
</g>
</g>
<!-- Node3&#45;&gt;Node5 -->
<g id="edge10_Node000003_Node000005" class="edge">
<title>Node3&#45;&gt;Node5</title>
<g id="a_edge10_Node000003_Node000005"><a xlink:title=" ">
<path fill="none" stroke="#63b8ff" d="M192.84,-202.01C154.66,-198.44 106.09,-186.75 80.44,-152.25 69.37,-137.36 73.4,-127.67 80.44,-110.5 85.03,-99.29 93.95,-89.39 102.57,-81.78"/>
<polygon fill="#63b8ff" stroke="#63b8ff" points="104.52,-84.71 110.06,-75.68 100.1,-79.28 104.52,-84.71"/>
</a>
</g>
</g>
<!-- Node6 -->
<g id="Node000006" class="node">
<title>Node6</title>
<g id="a_Node000006"><a xlink:title=" ">
<polygon fill="#e0e0e0" stroke="#999999" points="374.31,-19.25 318.56,-19.25 318.56,0 374.31,0 374.31,-19.25"/>
<text text-anchor="middle" x="346.44" y="-5.75" font-family="Helvetica,sans-Serif" font-size="10.00">concepts</text>
</a>
</g>
</g>
<!-- Node3&#45;&gt;Node6 -->
<g id="edge11_Node000003_Node000006" class="edge">
<title>Node3&#45;&gt;Node6</title>
<g id="a_edge11_Node000003_Node000006"><a xlink:title=" ">
<path fill="none" stroke="#63b8ff" d="M301.68,-194.59C351.24,-186.27 419.57,-171.69 438.44,-152.25 468.98,-120.79 480.93,-91.62 456.44,-55.25 440.73,-31.93 410.54,-20.8 385.75,-15.48"/>
<polygon fill="#63b8ff" stroke="#63b8ff" points="386.42,-12.04 375.95,-13.64 385.13,-18.92 386.42,-12.04"/>
</a>
</g>
</g>
<!-- Node7 -->
<g id="Node000007" class="node">
<title>Node7</title>
<g id="a_Node000007"><a xlink:title=" ">
<polygon fill="#e0e0e0" stroke="#999999" points="48.94,-19.25 11.94,-19.25 11.94,0 48.94,0 48.94,-19.25"/>
<text text-anchor="middle" x="30.44" y="-5.75" font-family="Helvetica,sans-Serif" font-size="10.00">tuple</text>
</a>
</g>
</g>
<!-- Node3&#45;&gt;Node7 -->
<g id="edge15_Node000003_Node000007" class="edge">
<title>Node3&#45;&gt;Node7</title>
<g id="a_edge15_Node000003_Node000007"><a xlink:title=" ">
<path fill="none" stroke="#63b8ff" d="M193.21,-201.75C148.06,-198.43 84.41,-187.21 41.44,-152.25 5.64,-123.13 -7.59,-99.8 4.44,-55.25 6.94,-45.97 11.91,-36.63 16.84,-28.91"/>
<polygon fill="#63b8ff" stroke="#63b8ff" points="19.64,-31.02 22.44,-20.8 13.88,-27.04 19.64,-31.02"/>
</a>
</g>
</g>
<!-- Node3&#45;&gt;Node9 -->
<g id="edge12_Node000003_Node000009" class="edge">
<title>Node3&#45;&gt;Node9</title>
<g id="a_edge12_Node000003_Node000009"><a xlink:title=" ">
<path fill="none" stroke="#63b8ff" d="M192.91,-199.88C154.04,-195.26 102.94,-183.18 69.44,-152.25 50.74,-134.99 42.92,-105.81 39.68,-86.2"/>
<polygon fill="#63b8ff" stroke="#63b8ff" points="43.17,-85.85 38.35,-76.42 36.23,-86.8 43.17,-85.85"/>
</a>
</g>
</g>
<!-- Node3&#45;&gt;Node10 -->
<g id="edge13_Node000003_Node000010" class="edge">
<title>Node3&#45;&gt;Node10</title>
<g id="a_edge13_Node000003_Node000010"><a xlink:title=" ">
<path fill="none" stroke="#63b8ff" d="M301.82,-193.39C346.09,-184.79 403.6,-170.49 418.44,-152.25 433.4,-133.86 432.59,-105.39 429.76,-86.21"/>
<polygon fill="#63b8ff" stroke="#63b8ff" points="433.21,-85.6 427.97,-76.39 426.32,-86.86 433.21,-85.6"/>
</a>
</g>
</g>
<!-- Node11 -->
<g id="Node000011" class="node">
<title>Node11</title>
<g id="a_Node000011"><a xlink:title=" ">
<polygon fill="#e0e0e0" stroke="#999999" points="283.19,-141 211.69,-141 211.69,-121.75 283.19,-121.75 283.19,-141"/>
<text text-anchor="middle" x="247.44" y="-127.5" font-family="Helvetica,sans-Serif" font-size="10.00">initializer_list</text>
</a>
</g>
</g>
<!-- Node3&#45;&gt;Node11 -->
<g id="edge14_Node000003_Node000011" class="edge">
<title>Node3&#45;&gt;Node11</title>
<g id="a_edge14_Node000003_Node000011"><a xlink:title=" ">
<path fill="none" stroke="#63b8ff" d="M247.44,-187.97C247.44,-177.71 247.44,-163.83 247.44,-152.5"/>
<polygon fill="#63b8ff" stroke="#63b8ff" points="250.94,-152.65 247.44,-142.65 243.94,-152.65 250.94,-152.65"/>
</a>
</g>
</g>
<!-- Node12 -->
<g id="Node000012" class="node">
<title>Node12</title>
<g id="a_Node000012"><a xlink:title=" ">
<polygon fill="#e0e0e0" stroke="#999999" points="409.19,-152.25 301.69,-152.25 301.69,-110.5 409.19,-110.5 409.19,-152.25"/>
<text text-anchor="start" x="309.69" y="-138.75" font-family="Helvetica,sans-Serif" font-size="10.00">typed_linear_algebra</text>
<text text-anchor="start" x="309.69" y="-127.5" font-family="Helvetica,sans-Serif" font-size="10.00">_internal/typed_linear</text>
<text text-anchor="middle" x="355.44" y="-116.25" font-family="Helvetica,sans-Serif" font-size="10.00">_algebra.tpp</text>
</a>
</g>
</g>
<!-- Node3&#45;&gt;Node12 -->
<g id="edge16_Node000003_Node000012" class="edge">
<title>Node3&#45;&gt;Node12</title>
<g id="a_edge16_Node000003_Node000012"><a xlink:title=" ">
<path fill="none" stroke="#63b8ff" d="M270.08,-187.8C282.96,-179.43 299.5,-168.7 314.58,-158.9"/>
<polygon fill="#63b8ff" stroke="#63b8ff" points="316.47,-161.85 322.95,-153.47 312.66,-155.98 316.47,-161.85"/>
</a>
</g>
</g>
<!-- Node4&#45;&gt;Node5 -->
<g id="edge4_Node000004_Node000005" class="edge">
<title>Node4&#45;&gt;Node5</title>
<g id="a_edge4_Node000004_Node000005"><a xlink:title=" ">
<path fill="none" stroke="#63b8ff" d="M137.58,-115.74C135.24,-106.85 132.22,-95.39 129.66,-85.7"/>
<polygon fill="#63b8ff" stroke="#63b8ff" points="133.08,-84.94 127.15,-76.16 126.31,-86.72 133.08,-84.94"/>
</a>
</g>
</g>
<!-- Node4&#45;&gt;Node9 -->
<g id="edge8_Node000004_Node000009" class="edge">
<title>Node4&#45;&gt;Node9</title>
<g id="a_edge8_Node000004_Node000009"><a xlink:title=" ">
<path fill="none" stroke="#63b8ff" d="M117.84,-115.74C101.06,-105.34 78.6,-91.4 61.68,-80.91"/>
<polygon fill="#63b8ff" stroke="#63b8ff" points="63.59,-77.98 53.25,-75.68 59.9,-83.93 63.59,-77.98"/>
</a>
</g>
</g>
<!-- Node4&#45;&gt;Node10 -->
<g id="edge9_Node000004_Node000010" class="edge">
<title>Node4&#45;&gt;Node10</title>
<g id="a_edge9_Node000004_Node000010"><a xlink:title=" ">
<path fill="none" stroke="#63b8ff" d="M184.57,-115.63C190.54,-113.79 196.62,-112.02 202.44,-110.5 268.91,-93.08 348.07,-78.72 391.94,-71.31"/>
<polygon fill="#63b8ff" stroke="#63b8ff" points="392.3,-74.8 401.59,-69.7 391.15,-67.9 392.3,-74.8"/>
</a>
</g>
</g>
<!-- Node5&#45;&gt;Node6 -->
<g id="edge5_Node000005_Node000006" class="edge">
<title>Node5&#45;&gt;Node6</title>
<g id="a_edge5_Node000005_Node000006"><a xlink:title=" ">
<path fill="none" stroke="#63b8ff" d="M153,-57.02C192.24,-47.61 262.96,-30.65 307.16,-20.05"/>
<polygon fill="#63b8ff" stroke="#63b8ff" points="307.95,-23.46 316.86,-17.72 306.31,-16.65 307.95,-23.46"/>
</a>
</g>
</g>
<!-- Node5&#45;&gt;Node7 -->
<g id="edge6_Node000005_Node000007" class="edge">
<title>Node5&#45;&gt;Node7</title>
<g id="a_edge6_Node000005_Node000007"><a xlink:title=" ">
<path fill="none" stroke="#63b8ff" d="M108.49,-54.84C94.18,-46.73 72.9,-34.68 56.18,-25.21"/>
<polygon fill="#63b8ff" stroke="#63b8ff" points="58.2,-22.33 47.78,-20.45 54.75,-28.42 58.2,-22.33"/>
</a>
</g>
</g>
<!-- Node8 -->
<g id="Node000008" class="node">
<title>Node8</title>
<g id="a_Node000008"><a xlink:title=" ">
<polygon fill="#e0e0e0" stroke="#999999" points="154.94,-19.25 93.94,-19.25 93.94,0 154.94,0 154.94,-19.25"/>
<text text-anchor="middle" x="124.44" y="-5.75" font-family="Helvetica,sans-Serif" font-size="10.00">type_traits</text>
</a>
</g>
</g>
<!-- Node5&#45;&gt;Node8 -->
<g id="edge7_Node000005_Node000008" class="edge">
<title>Node5&#45;&gt;Node8</title>
<g id="a_edge7_Node000005_Node000008"><a xlink:title=" ">
<path fill="none" stroke="#63b8ff" d="M124.44,-55.08C124.44,-48.57 124.44,-39.42 124.44,-31.12"/>
<polygon fill="#63b8ff" stroke="#63b8ff" points="127.94,-31.12 124.44,-21.12 120.94,-31.12 127.94,-31.12"/>
</a>
</g>
</g>
</g>
</svg>
