<?xml version="1.0" encoding="UTF-8" standalone="no"?>
<!DOCTYPE svg PUBLIC "-//W3C//DTD SVG 1.1//EN"
 "http://www.w3.org/Graphics/SVG/1.1/DTD/svg11.dtd">
<!-- Generated by graphviz version 12.2.0 (20241103.1931)
 -->
<!-- Title: fcarouge::typed_linear_algebra_internal::for_constexpr Pages: 1 -->
<svg width="267pt" height="68pt"
 viewBox="0.00 0.00 266.50 67.75" xmlns="http://www.w3.org/2000/svg" xmlns:xlink="http://www.w3.org/1999/xlink">
<g id="graph0" class="graph" transform="scale(1 1) rotate(0) translate(4 63.75)">
<title>fcarouge::typed_linear_algebra_internal::for_constexpr</title>
<!-- Node1 -->
<g id="Node000001" class="node">
<title>Node1</title>
<g id="a_Node000001"><a xlink:title="Compile&#45;time for loop.">
<polygon fill="#999999" stroke="#666666" points="258.5,-41.75 148.75,-41.75 148.75,0 258.5,0 258.5,-41.75"/>
<text text-anchor="start" x="156.75" y="-28.25" font-family="Helvetica,sans-Serif" font-size="10.00">fcarouge::typed_linear</text>
<text text-anchor="start" x="156.75" y="-17" font-family="Helvetica,sans-Serif" font-size="10.00">_algebra_internal::for</text>
<text text-anchor="middle" x="203.62" y="-5.75" font-family="Helvetica,sans-Serif" font-size="10.00">_constexpr</text>
</a>
</g>
</g>
<!-- Node1&#45;&gt;Node1 -->
<g id="edge1_Node000001_Node000001" class="edge">
<title>Node1&#45;&gt;Node1</title>
<g id="a_edge1_Node000001_Node000001"><a xlink:title=" ">
<path fill="none" stroke="#63b8ff" d="M227.86,-52.86C223.67,-57.01 215.6,-59.75 203.62,-59.75 182.92,-59.75 173.86,-51.55 176.45,-42.07"/>
<polygon fill="#63b8ff" stroke="#63b8ff" points="231.15,-54.1 230.4,-43.53 224.4,-52.26 231.15,-54.1"/>
</a>
</g>
</g>
<!-- Node2 -->
<g id="Node000002" class="node">
<title>Node2</title>
<g id="a_Node000002"><a xlink:href="structfcarouge_1_1typed__matrix.xhtml#ad916908512a4cb1426ed4d3f77a6864f" target="_top" xlink:title=" ">
<polygon fill="white" stroke="#666666" points="112.75,-36.12 0,-36.12 0,-5.62 112.75,-5.62 112.75,-36.12"/>
<text text-anchor="start" x="8" y="-22.62" font-family="Helvetica,sans-Serif" font-size="10.00">fcarouge::typed_matrix</text>
<text text-anchor="middle" x="56.38" y="-11.38" font-family="Helvetica,sans-Serif" font-size="10.00">::typed_matrix</text>
</a>
</g>
</g>
<!-- Node1&#45;&gt;Node2 -->
<g id="edge2_Node000001_Node000002" class="edge">
<title>Node1&#45;&gt;Node2</title>
<g id="a_edge2_Node000001_Node000002"><a xlink:title=" ">
<path fill="none" stroke="#63b8ff" d="M137.21,-20.88C129.11,-20.88 120.89,-20.88 112.96,-20.88"/>
<polygon fill="#63b8ff" stroke="#63b8ff" points="137.03,-24.38 147.03,-20.88 137.03,-17.38 137.03,-24.38"/>
</a>
</g>
</g>
</g>
</svg>
