<?xml version="1.0" encoding="UTF-8" standalone="no"?>
<!DOCTYPE svg PUBLIC "-//W3C//DTD SVG 1.1//EN"
 "http://www.w3.org/Graphics/SVG/1.1/DTD/svg11.dtd">
<!-- Generated by graphviz version 12.2.0 (20241103.1931)
 -->
<!-- Title: fcarouge::internal::for_constexpr Pages: 1 -->
<svg width="399pt" height="57pt"
 viewBox="0.00 0.00 398.75 56.50" xmlns="http://www.w3.org/2000/svg" xmlns:xlink="http://www.w3.org/1999/xlink">
<g id="graph0" class="graph" transform="scale(1 1) rotate(0) translate(4 52.5)">
<title>fcarouge::internal::for_constexpr</title>
<!-- Node1 -->
<g id="Node000001" class="node">
<title>Node1</title>
<g id="a_Node000001"><a xlink:title=" ">
<polygon fill="#999999" stroke="#666666" points="390.75,-30.5 301.25,-30.5 301.25,0 390.75,0 390.75,-30.5"/>
<text text-anchor="start" x="309.25" y="-17" font-family="Helvetica,sans-Serif" font-size="10.00">fcarouge::internal</text>
<text text-anchor="middle" x="346" y="-5.75" font-family="Helvetica,sans-Serif" font-size="10.00">::for_constexpr</text>
</a>
</g>
</g>
<!-- Node1&#45;&gt;Node1 -->
<g id="edge3_Node000001_Node000001" class="edge">
<title>Node1&#45;&gt;Node1</title>
<g id="a_edge3_Node000001_Node000001"><a xlink:title=" ">
<path fill="none" stroke="#63b8ff" d="M369.31,-42.2C365.5,-45.97 357.73,-48.5 346,-48.5 324.55,-48.5 316.34,-40.06 321.37,-30.99"/>
<polygon fill="#63b8ff" stroke="#63b8ff" points="372.76,-42.83 370.45,-32.49 365.81,-42.01 372.76,-42.83"/>
</a>
</g>
</g>
<!-- Node2 -->
<g id="Node000002" class="node">
<title>Node2</title>
<g id="a_Node000002"><a xlink:href="namespacefcarouge.xhtml#a5ad0022b969a210b7261d0158bc1dd7b" target="_top" xlink:title="Compile&#45;time for loop.">
<polygon fill="white" stroke="#666666" points="265.25,-24.88 148.75,-24.88 148.75,-5.63 265.25,-5.63 265.25,-24.88"/>
<text text-anchor="middle" x="207" y="-11.38" font-family="Helvetica,sans-Serif" font-size="10.00">fcarouge::for_constexpr</text>
</a>
</g>
</g>
<!-- Node1&#45;&gt;Node2 -->
<g id="edge1_Node000001_Node000002" class="edge">
<title>Node1&#45;&gt;Node2</title>
<g id="a_edge1_Node000001_Node000002"><a xlink:title=" ">
<path fill="none" stroke="#63b8ff" d="M289.53,-15.25C281.63,-15.25 273.48,-15.25 265.53,-15.25"/>
<polygon fill="#63b8ff" stroke="#63b8ff" points="289.38,-18.75 299.38,-15.25 289.38,-11.75 289.38,-18.75"/>
</a>
</g>
</g>
<!-- Node3 -->
<g id="Node000003" class="node">
<title>Node3</title>
<g id="a_Node000003"><a xlink:href="structfcarouge_1_1typed__matrix.xhtml#a7d3c8d07ff8b67263306db0c41afa940" target="_top" xlink:title=" ">
<polygon fill="white" stroke="#666666" points="112.75,-30.5 0,-30.5 0,0 112.75,0 112.75,-30.5"/>
<text text-anchor="start" x="8" y="-17" font-family="Helvetica,sans-Serif" font-size="10.00">fcarouge::typed_matrix</text>
<text text-anchor="middle" x="56.38" y="-5.75" font-family="Helvetica,sans-Serif" font-size="10.00">::typed_matrix</text>
</a>
</g>
</g>
<!-- Node2&#45;&gt;Node3 -->
<g id="edge2_Node000002_Node000003" class="edge">
<title>Node2&#45;&gt;Node3</title>
<g id="a_edge2_Node000002_Node000003"><a xlink:title=" ">
<path fill="none" stroke="#63b8ff" d="M137.25,-15.25C129.2,-15.25 121.06,-15.25 113.22,-15.25"/>
<polygon fill="#63b8ff" stroke="#63b8ff" points="137.02,-18.75 147.02,-15.25 137.02,-11.75 137.02,-18.75"/>
</a>
</g>
</g>
</g>
</svg>
