<?xml version="1.0" encoding="UTF-8" standalone="no"?>
<!DOCTYPE svg PUBLIC "-//W3C//DTD SVG 1.1//EN"
 "http://www.w3.org/Graphics/SVG/1.1/DTD/svg11.dtd">
<!-- Generated by graphviz version 12.2.0 (20241103.1931)
 -->
<!-- Title: fcarouge::typed_matrix::typed_matrix Pages: 1 -->
<svg width="402pt" height="100pt"
 viewBox="0.00 0.00 401.75 99.50" xmlns="http://www.w3.org/2000/svg" xmlns:xlink="http://www.w3.org/1999/xlink">

<svg id="main" version="1.1" xmlns="http://www.w3.org/2000/svg" xmlns:xlink="http://www.w3.org/1999/xlink" xml:space="preserve">

<style type="text/css"><![CDATA[
.node, .edge {opacity: 0.7;}
.node.selected, .edge.selected {opacity: 1;}
.edge:hover path { stroke: red; }
.edge:hover polygon { stroke: red; fill: red; }
]]></style>
<script type="application/ecmascript" xlink:href="svg.min.js"/>
<svg id="graph" class="graph">
<g id="graph0" class="graph" transform="scale(1 1) rotate(0) translate(4 95.5)">
<title>fcarouge::typed_matrix::typed_matrix</title>
<!-- Node1 -->
<g id="Node000001" class="node">
<title>Node1</title>
<g id="a_Node000001"><a xlink:title=" ">
<polygon fill="#999999" stroke="#666666" points="112.75,-51.5 0,-51.5 0,-21 112.75,-21 112.75,-51.5"/>
<text text-anchor="start" x="8" y="-38" font-family="Helvetica,sans-Serif" font-size="10.00">fcarouge::typed_matrix</text>
<text text-anchor="middle" x="56.38" y="-26.75" font-family="Helvetica,sans-Serif" font-size="10.00">::typed_matrix</text>
</a>
</g>
</g>
<!-- Node2 -->
<g id="Node000002" class="node">
<title>Node2</title>
<g id="a_Node000002"><a xlink:href="namespacefcarouge.xhtml#a5ad0022b969a210b7261d0158bc1dd7b" target="_top" xlink:title="Compile&#45;time for loop.">
<polygon fill="white" stroke="#666666" points="266.75,-67.88 150.25,-67.88 150.25,-48.62 266.75,-48.62 266.75,-67.88"/>
<text text-anchor="middle" x="208.5" y="-54.38" font-family="Helvetica,sans-Serif" font-size="10.00">fcarouge::for_constexpr</text>
</a>
</g>
</g>
<!-- Node1&#45;&gt;Node2 -->
<g id="edge1_Node000001_Node000002" class="edge">
<title>Node1&#45;&gt;Node2</title>
<g id="a_edge1_Node000001_Node000002"><a xlink:title=" ">
<path fill="none" stroke="#63b8ff" d="M112.85,-44.38C121.27,-45.61 130.05,-46.9 138.71,-48.17"/>
<polygon fill="#63b8ff" stroke="#63b8ff" points="138.09,-51.62 148.49,-49.6 139.11,-44.69 138.09,-51.62"/>
</a>
</g>
</g>
<!-- Node4 -->
<g id="Node000004" class="node">
<title>Node4</title>
<g id="a_Node000004"><a xlink:href="structfcarouge_1_1element__traits.xhtml#a87ce85c64c4f639ff0f5ce3a0886e949" target="_top" xlink:title=" ">
<polygon fill="white" stroke="#666666" points="268.25,-30.5 148.75,-30.5 148.75,0 268.25,0 268.25,-30.5"/>
<text text-anchor="start" x="156.75" y="-17" font-family="Helvetica,sans-Serif" font-size="10.00">fcarouge::element_traits</text>
<text text-anchor="middle" x="208.5" y="-5.75" font-family="Helvetica,sans-Serif" font-size="10.00">::to_underlying</text>
</a>
</g>
</g>
<!-- Node1&#45;&gt;Node4 -->
<g id="edge4_Node000001_Node000004" class="edge">
<title>Node1&#45;&gt;Node4</title>
<g id="a_edge4_Node000001_Node000004"><a xlink:title=" ">
<path fill="none" stroke="#63b8ff" d="M112.85,-28.49C120.83,-27.37 129.13,-26.21 137.35,-25.06"/>
<polygon fill="#63b8ff" stroke="#63b8ff" points="137.56,-28.57 146.98,-23.72 136.59,-21.64 137.56,-28.57"/>
</a>
</g>
</g>
<!-- Node3 -->
<g id="Node000003" class="node">
<title>Node3</title>
<g id="a_Node000003"><a xlink:href="namespacefcarouge_1_1internal.xhtml#a4c0bbc15a41d76dd2b4b23d8566fba57" target="_top" xlink:title=" ">
<polygon fill="white" stroke="#666666" points="393.75,-73.5 304.25,-73.5 304.25,-43 393.75,-43 393.75,-73.5"/>
<text text-anchor="start" x="312.25" y="-60" font-family="Helvetica,sans-Serif" font-size="10.00">fcarouge::internal</text>
<text text-anchor="middle" x="349" y="-48.75" font-family="Helvetica,sans-Serif" font-size="10.00">::for_constexpr</text>
</a>
</g>
</g>
<!-- Node2&#45;&gt;Node3 -->
<g id="edge2_Node000002_Node000003" class="edge">
<title>Node2&#45;&gt;Node3</title>
<g id="a_edge2_Node000002_Node000003"><a xlink:title=" ">
<path fill="none" stroke="#63b8ff" d="M267.03,-58.25C275.52,-58.25 284.24,-58.25 292.67,-58.25"/>
<polygon fill="#63b8ff" stroke="#63b8ff" points="292.44,-61.75 302.44,-58.25 292.44,-54.75 292.44,-61.75"/>
</a>
</g>
</g>
<!-- Node3&#45;&gt;Node3 -->
<g id="edge3_Node000003_Node000003" class="edge">
<title>Node3&#45;&gt;Node3</title>
<g id="a_edge3_Node000003_Node000003"><a xlink:title=" ">
<path fill="none" stroke="#63b8ff" d="M324.1,-73.99C319.02,-83.06 327.32,-91.5 349,-91.5 360.86,-91.5 368.71,-88.97 372.56,-85.2"/>
<polygon fill="#63b8ff" stroke="#63b8ff" points="376.01,-85.83 373.72,-75.49 369.06,-85.01 376.01,-85.83"/>
</a>
</g>
</g>
</g>
</svg>
</svg>

<style type='text/css'>
<![CDATA[
[data-mouse-over-selected='false'] { opacity: 0.7; }
[data-mouse-over-selected='true']  { opacity: 1.0; }
]]>
</style>
<script type="application/ecmascript"><![CDATA[
document.addEventListener('DOMContentLoaded', (event) => {
  highlightEdges();
  highlightAdjacentNodes();
});
]]></script>
</svg>
