<?xml version="1.0" encoding="UTF-8" standalone="no"?>
<!DOCTYPE svg PUBLIC "-//W3C//DTD SVG 1.1//EN"
 "http://www.w3.org/Graphics/SVG/1.1/DTD/svg11.dtd">
<!-- Generated by graphviz version 12.2.0 (20241103.1931)
 -->
<!-- Title: fcarouge::typed_matrix&lt; Matrix, RowIndexes, ColumnIndexes &gt; Pages: 1 -->
<svg width="128pt" height="692pt"
 viewBox="0.00 0.00 128.15 691.75" xmlns="http://www.w3.org/2000/svg" xmlns:xlink="http://www.w3.org/1999/xlink">
<g id="graph0" class="graph" transform="scale(1 1) rotate(0) translate(4 687.75)">
<title>fcarouge::typed_matrix&lt; Matrix, RowIndexes, ColumnIndexes &gt;</title>
<!-- Node1 -->
<g id="Node000001" class="node">
<title>Node1</title>
<g id="a_Node000001"><a xlink:title="Strongly typed matrix.">
<polygon fill="#999999" stroke="none" points="104.75,-575.5 0,-575.5 0,0 104.75,0 104.75,-575.5"/>
<text text-anchor="start" x="4" y="-562" font-family="Helvetica,sans-Serif" font-size="10.00">fcarouge::typed_matrix</text>
<text text-anchor="start" x="4" y="-550.75" font-family="Helvetica,sans-Serif" font-size="10.00">&lt; Matrix, RowIndexes,</text>
<text text-anchor="start" x="13.75" y="-539.5" font-family="Helvetica,sans-Serif" font-size="10.00"> ColumnIndexes &gt;</text>
<text text-anchor="start" x="50.88" y="-524.25" font-family="Helvetica,sans-Serif" font-size="10.00"> </text>
<text text-anchor="start" x="8.25" y="-509" font-family="Helvetica,sans-Serif" font-size="10.00">+</text>
<text text-anchor="start" x="22.5" y="-509" font-family="Helvetica,sans-Serif" font-size="10.00">typed_matrix()</text>
<text text-anchor="start" x="8.25" y="-493.75" font-family="Helvetica,sans-Serif" font-size="10.00">+</text>
<text text-anchor="start" x="22.5" y="-493.75" font-family="Helvetica,sans-Serif" font-size="10.00">typed_matrix()</text>
<text text-anchor="start" x="8.25" y="-478.5" font-family="Helvetica,sans-Serif" font-size="10.00">+</text>
<text text-anchor="start" x="22.5" y="-478.5" font-family="Helvetica,sans-Serif" font-size="10.00">typed_matrix()</text>
<text text-anchor="start" x="8.25" y="-463.25" font-family="Helvetica,sans-Serif" font-size="10.00">+</text>
<text text-anchor="start" x="22.5" y="-463.25" font-family="Helvetica,sans-Serif" font-size="10.00">operator=()</text>
<text text-anchor="start" x="8.25" y="-448" font-family="Helvetica,sans-Serif" font-size="10.00">+</text>
<text text-anchor="start" x="22.5" y="-448" font-family="Helvetica,sans-Serif" font-size="10.00">typed_matrix()</text>
<text text-anchor="start" x="8.25" y="-432.75" font-family="Helvetica,sans-Serif" font-size="10.00">+</text>
<text text-anchor="start" x="22.5" y="-432.75" font-family="Helvetica,sans-Serif" font-size="10.00">operator=()</text>
<text text-anchor="start" x="8.25" y="-417.5" font-family="Helvetica,sans-Serif" font-size="10.00">+</text>
<text text-anchor="start" x="22.5" y="-417.5" font-family="Helvetica,sans-Serif" font-size="10.00">typed_matrix()</text>
<text text-anchor="start" x="8.25" y="-402.25" font-family="Helvetica,sans-Serif" font-size="10.00">+</text>
<text text-anchor="start" x="22.5" y="-402.25" font-family="Helvetica,sans-Serif" font-size="10.00">typed_matrix()</text>
<text text-anchor="start" x="8.25" y="-387" font-family="Helvetica,sans-Serif" font-size="10.00">+</text>
<text text-anchor="start" x="22.5" y="-387" font-family="Helvetica,sans-Serif" font-size="10.00">typed_matrix()</text>
<text text-anchor="start" x="8.25" y="-371.75" font-family="Helvetica,sans-Serif" font-size="10.00">+</text>
<text text-anchor="start" x="22.5" y="-371.75" font-family="Helvetica,sans-Serif" font-size="10.00">typed_matrix()</text>
<text text-anchor="start" x="8.25" y="-356.5" font-family="Helvetica,sans-Serif" font-size="10.00">+</text>
<text text-anchor="start" x="22.5" y="-356.5" font-family="Helvetica,sans-Serif" font-size="10.00">typed_matrix()</text>
<text text-anchor="start" x="8.25" y="-341.25" font-family="Helvetica,sans-Serif" font-size="10.00">+</text>
<text text-anchor="start" x="22.5" y="-341.25" font-family="Helvetica,sans-Serif" font-size="10.00">typed_matrix()</text>
<text text-anchor="start" x="8.25" y="-326" font-family="Helvetica,sans-Serif" font-size="10.00">+</text>
<text text-anchor="start" x="22.5" y="-326" font-family="Helvetica,sans-Serif" font-size="10.00">explicit()</text>
<text text-anchor="start" x="8.25" y="-310.75" font-family="Helvetica,sans-Serif" font-size="10.00">+</text>
<text text-anchor="start" x="22.5" y="-310.75" font-family="Helvetica,sans-Serif" font-size="10.00">operator[]()</text>
<text text-anchor="start" x="8.25" y="-295.5" font-family="Helvetica,sans-Serif" font-size="10.00">+</text>
<text text-anchor="start" x="22.5" y="-295.5" font-family="Helvetica,sans-Serif" font-size="10.00">at()</text>
<text text-anchor="start" x="9.38" y="-280.25" font-family="Helvetica,sans-Serif" font-size="10.00">*</text>
<text text-anchor="start" x="22.5" y="-280.25" font-family="Helvetica,sans-Serif" font-size="10.00">underlying</text>
<text text-anchor="start" x="9.38" y="-265" font-family="Helvetica,sans-Serif" font-size="10.00">*</text>
<text text-anchor="start" x="22.5" y="-265" font-family="Helvetica,sans-Serif" font-size="10.00">row_indexes</text>
<text text-anchor="start" x="9.38" y="-249.75" font-family="Helvetica,sans-Serif" font-size="10.00">*</text>
<text text-anchor="start" x="22.5" y="-249.75" font-family="Helvetica,sans-Serif" font-size="10.00">column_indexes</text>
<text text-anchor="start" x="9.38" y="-234.5" font-family="Helvetica,sans-Serif" font-size="10.00">*</text>
<text text-anchor="start" x="22.5" y="-234.5" font-family="Helvetica,sans-Serif" font-size="10.00">element</text>
<text text-anchor="start" x="9.38" y="-219.25" font-family="Helvetica,sans-Serif" font-size="10.00">*</text>
<text text-anchor="start" x="22.5" y="-219.25" font-family="Helvetica,sans-Serif" font-size="10.00">typed_matrix()</text>
<text text-anchor="start" x="9.38" y="-204" font-family="Helvetica,sans-Serif" font-size="10.00">*</text>
<text text-anchor="start" x="22.5" y="-204" font-family="Helvetica,sans-Serif" font-size="10.00">typed_matrix()</text>
<text text-anchor="start" x="9.38" y="-188.75" font-family="Helvetica,sans-Serif" font-size="10.00">*</text>
<text text-anchor="start" x="22.5" y="-188.75" font-family="Helvetica,sans-Serif" font-size="10.00">typed_matrix()</text>
<text text-anchor="start" x="9.38" y="-173.5" font-family="Helvetica,sans-Serif" font-size="10.00">*</text>
<text text-anchor="start" x="22.5" y="-173.5" font-family="Helvetica,sans-Serif" font-size="10.00">operator=()</text>
<text text-anchor="start" x="9.38" y="-158.25" font-family="Helvetica,sans-Serif" font-size="10.00">*</text>
<text text-anchor="start" x="22.5" y="-158.25" font-family="Helvetica,sans-Serif" font-size="10.00">typed_matrix()</text>
<text text-anchor="start" x="9.38" y="-143" font-family="Helvetica,sans-Serif" font-size="10.00">*</text>
<text text-anchor="start" x="22.5" y="-143" font-family="Helvetica,sans-Serif" font-size="10.00">operator=()</text>
<text text-anchor="start" x="9.38" y="-127.75" font-family="Helvetica,sans-Serif" font-size="10.00">*</text>
<text text-anchor="start" x="22.5" y="-127.75" font-family="Helvetica,sans-Serif" font-size="10.00">typed_matrix()</text>
<text text-anchor="start" x="9.38" y="-112.5" font-family="Helvetica,sans-Serif" font-size="10.00">*</text>
<text text-anchor="start" x="22.5" y="-112.5" font-family="Helvetica,sans-Serif" font-size="10.00">typed_matrix()</text>
<text text-anchor="start" x="9.38" y="-97.25" font-family="Helvetica,sans-Serif" font-size="10.00">*</text>
<text text-anchor="start" x="22.5" y="-97.25" font-family="Helvetica,sans-Serif" font-size="10.00">typed_matrix()</text>
<text text-anchor="start" x="9.38" y="-82" font-family="Helvetica,sans-Serif" font-size="10.00">*</text>
<text text-anchor="start" x="22.5" y="-82" font-family="Helvetica,sans-Serif" font-size="10.00">typed_matrix()</text>
<text text-anchor="start" x="9.38" y="-66.75" font-family="Helvetica,sans-Serif" font-size="10.00">*</text>
<text text-anchor="start" x="22.5" y="-66.75" font-family="Helvetica,sans-Serif" font-size="10.00">typed_matrix()</text>
<text text-anchor="start" x="9.38" y="-51.5" font-family="Helvetica,sans-Serif" font-size="10.00">*</text>
<text text-anchor="start" x="22.5" y="-51.5" font-family="Helvetica,sans-Serif" font-size="10.00">typed_matrix()</text>
<text text-anchor="start" x="9.38" y="-36.25" font-family="Helvetica,sans-Serif" font-size="10.00">*</text>
<text text-anchor="start" x="22.5" y="-36.25" font-family="Helvetica,sans-Serif" font-size="10.00">explicit()</text>
<text text-anchor="start" x="9.38" y="-21" font-family="Helvetica,sans-Serif" font-size="10.00">*</text>
<text text-anchor="start" x="22.5" y="-21" font-family="Helvetica,sans-Serif" font-size="10.00">operator[]()</text>
<text text-anchor="start" x="9.38" y="-5.75" font-family="Helvetica,sans-Serif" font-size="10.00">*</text>
<text text-anchor="start" x="22.5" y="-5.75" font-family="Helvetica,sans-Serif" font-size="10.00">at()</text>
<polygon fill="#666666" stroke="#666666" points="0,-535.75 0,-535.75 104.75,-535.75 104.75,-535.75 0,-535.75"/>
<polygon fill="#666666" stroke="#666666" points="0,-520.5 0,-520.5 104.75,-520.5 104.75,-520.5 0,-520.5"/>
<polygon fill="none" stroke="#666666" points="0,0 0,-575.5 104.75,-575.5 104.75,0 0,0"/>
</a>
</g>
</g>
<!-- Node2 -->
<g id="Node000002" class="node">
<title>Node2</title>
<g id="a_Node000002"><a xlink:title=" ">
<polygon fill="white" stroke="none" points="43.5,-683.75 9.25,-683.75 9.25,-634 43.5,-634 43.5,-683.75"/>
<text text-anchor="start" x="13.25" y="-670.25" font-family="Helvetica,sans-Serif" font-size="10.00">Matrix</text>
<text text-anchor="start" x="24.88" y="-655" font-family="Helvetica,sans-Serif" font-size="10.00"> </text>
<text text-anchor="start" x="24.88" y="-639.75" font-family="Helvetica,sans-Serif" font-size="10.00"> </text>
<polygon fill="#666666" stroke="#666666" points="9.25,-666.5 9.25,-666.5 43.5,-666.5 43.5,-666.5 9.25,-666.5"/>
<polygon fill="#666666" stroke="#666666" points="9.25,-651.25 9.25,-651.25 43.5,-651.25 43.5,-651.25 9.25,-651.25"/>
<polygon fill="none" stroke="#666666" points="9.25,-634 9.25,-683.75 43.5,-683.75 43.5,-634 9.25,-634"/>
</a>
</g>
</g>
<!-- Node2&#45;&gt;Node1 -->
<g id="edge1_Node000001_Node000002" class="edge">
<title>Node2&#45;&gt;Node1</title>
<g id="a_edge1_Node000001_Node000002"><a xlink:title=" ">
<path fill="none" stroke="#63b8ff" d="M27.32,-634.02C27.85,-621.88 28.56,-606.9 29.38,-593.5 29.48,-591.82 29.58,-590.14 29.68,-588.46"/>
<polygon fill="none" stroke="#63b8ff" points="29.69,-588.32 26.08,-582.09 30.44,-576.35 34.06,-582.59 29.69,-588.32"/>
</a>
</g>
<text text-anchor="middle" x="42.88" y="-600.88" font-family="Helvetica,sans-Serif" font-size="10.00" fill="grey"> +data</text>
</g>
<!-- Node3 -->
<g id="Node000003" class="node">
<title>Node3</title>
<g id="a_Node000003"><a xlink:title=" ">
<polygon fill="white" stroke="none" points="95.12,-683.75 61.62,-683.75 61.62,-634 95.12,-634 95.12,-683.75"/>
<text text-anchor="start" x="65.62" y="-670.25" font-family="Helvetica,sans-Serif" font-size="10.00">size_t</text>
<text text-anchor="start" x="76.88" y="-655" font-family="Helvetica,sans-Serif" font-size="10.00"> </text>
<text text-anchor="start" x="76.88" y="-639.75" font-family="Helvetica,sans-Serif" font-size="10.00"> </text>
<polygon fill="#666666" stroke="#666666" points="61.62,-666.5 61.62,-666.5 95.12,-666.5 95.12,-666.5 61.62,-666.5"/>
<polygon fill="#666666" stroke="#666666" points="61.62,-651.25 61.62,-651.25 95.12,-651.25 95.12,-651.25 61.62,-651.25"/>
<polygon fill="none" stroke="#666666" points="61.62,-634 61.62,-683.75 95.12,-683.75 95.12,-634 61.62,-634"/>
</a>
</g>
</g>
<!-- Node3&#45;&gt;Node1 -->
<g id="edge2_Node000001_Node000003" class="edge">
<title>Node3&#45;&gt;Node1</title>
<g id="a_edge2_Node000001_Node000003"><a xlink:title=" ">
<path fill="none" stroke="#63b8ff" d="M76.71,-634.22C75.87,-622.27 74.75,-606.39 73.45,-587.99"/>
<polygon fill="none" stroke="#63b8ff" points="73.46,-588.09 69.05,-582.38 72.62,-576.11 77.03,-581.82 73.46,-588.09"/>
</a>
</g>
<text text-anchor="middle" x="97.65" y="-606.5" font-family="Helvetica,sans-Serif" font-size="10.00" fill="grey"> +columns</text>
<text text-anchor="middle" x="97.65" y="-595.25" font-family="Helvetica,sans-Serif" font-size="10.00" fill="grey">+rows</text>
</g>
</g>
</svg>
