<?xml version="1.0" encoding="UTF-8" standalone="no"?>
<!DOCTYPE svg PUBLIC "-//W3C//DTD SVG 1.1//EN"
 "http://www.w3.org/Graphics/SVG/1.1/DTD/svg11.dtd">
<!-- Generated by graphviz version 12.2.0 (20241103.1931)
 -->
<!-- Title: std::formatter&lt; TypedMatrix, Char &gt; Pages: 1 -->
<svg width="137pt" height="115pt"
 viewBox="0.00 0.00 136.75 114.75" xmlns="http://www.w3.org/2000/svg" xmlns:xlink="http://www.w3.org/1999/xlink">
<g id="graph0" class="graph" transform="scale(1 1) rotate(0) translate(4 110.75)">
<title>std::formatter&lt; TypedMatrix, Char &gt;</title>
<!-- Node1 -->
<g id="Node000001" class="node">
<title>Node1</title>
<g id="a_Node000001"><a xlink:title="Specialization of the standard formatter for the typed matrix.">
<polygon fill="#999999" stroke="none" points="128.75,-106.75 0,-106.75 0,0 128.75,0 128.75,-106.75"/>
<text text-anchor="start" x="4" y="-93.25" font-family="Helvetica,sans-Serif" font-size="10.00">std::formatter&lt; TypedMatrix,</text>
<text text-anchor="start" x="49" y="-82" font-family="Helvetica,sans-Serif" font-size="10.00"> Char &gt;</text>
<text text-anchor="start" x="62.88" y="-66.75" font-family="Helvetica,sans-Serif" font-size="10.00"> </text>
<text text-anchor="start" x="23.25" y="-51.5" font-family="Helvetica,sans-Serif" font-size="10.00">+</text>
<text text-anchor="start" x="52.5" y="-51.5" font-family="Helvetica,sans-Serif" font-size="10.00">parse()</text>
<text text-anchor="start" x="23.25" y="-36.25" font-family="Helvetica,sans-Serif" font-size="10.00">+</text>
<text text-anchor="start" x="52.5" y="-36.25" font-family="Helvetica,sans-Serif" font-size="10.00">format()</text>
<text text-anchor="start" x="23.25" y="-21" font-family="Helvetica,sans-Serif" font-size="10.00">+</text>
<text text-anchor="start" x="52.5" y="-21" font-family="Helvetica,sans-Serif" font-size="10.00">format()</text>
<text text-anchor="start" x="23.25" y="-5.75" font-family="Helvetica,sans-Serif" font-size="10.00">+</text>
<text text-anchor="start" x="52.5" y="-5.75" font-family="Helvetica,sans-Serif" font-size="10.00">format()</text>
<polygon fill="#666666" stroke="#666666" points="0,-78.25 0,-78.25 128.75,-78.25 128.75,-78.25 0,-78.25"/>
<polygon fill="#666666" stroke="#666666" points="0,-63 0,-63 128.75,-63 128.75,-63 0,-63"/>
<polygon fill="none" stroke="#666666" points="0,0 0,-106.75 128.75,-106.75 128.75,0 0,0"/>
</a>
</g>
</g>
</g>
</svg>
