<?xml version="1.0" encoding="UTF-8" standalone="no"?>
<!DOCTYPE svg PUBLIC "-//W3C//DTD SVG 1.1//EN"
 "http://www.w3.org/Graphics/SVG/1.1/DTD/svg11.dtd">
<!-- Generated by graphviz version 12.2.0 (20241103.1931)
 -->
<!-- Title: /github/workspace/include/fcarouge/typed_linear_algebra.hpp Pages: 1 -->
<svg width="640pt" height="238pt"
 viewBox="0.00 0.00 640.00 238.00" xmlns="http://www.w3.org/2000/svg" xmlns:xlink="http://www.w3.org/1999/xlink">
<g id="graph0" class="graph" transform="scale(1 1) rotate(0) translate(4 234)">
<title>/github/workspace/include/fcarouge/typed_linear_algebra.hpp</title>
<!-- Node1 -->
<g id="Node000001" class="node">
<title>Node1</title>
<g id="a_Node000001"><a xlink:title="Typed linear algebra implementation.">
<polygon fill="#999999" stroke="#666666" points="394.88,-230 265.62,-230 265.62,-188.25 394.88,-188.25 394.88,-230"/>
<text text-anchor="start" x="273.62" y="-216.5" font-family="Helvetica,sans-Serif" font-size="10.00">/github/workspace/include</text>
<text text-anchor="start" x="273.62" y="-205.25" font-family="Helvetica,sans-Serif" font-size="10.00">/fcarouge/typed_linear</text>
<text text-anchor="middle" x="330.25" y="-194" font-family="Helvetica,sans-Serif" font-size="10.00">_algebra.hpp</text>
</a>
</g>
</g>
<!-- Node2 -->
<g id="Node000002" class="node">
<title>Node2</title>
<g id="a_Node000002"><a xlink:href="typed__linear__algebra__forward_8hpp.xhtml" target="_top" xlink:title="Authoritative forward declaration header.">
<polygon fill="white" stroke="#666666" points="104.5,-146.62 0,-146.62 0,-116.12 104.5,-116.12 104.5,-146.62"/>
<text text-anchor="start" x="8" y="-133.12" font-family="Helvetica,sans-Serif" font-size="10.00">typed_linear_algebra</text>
<text text-anchor="middle" x="52.25" y="-121.88" font-family="Helvetica,sans-Serif" font-size="10.00">_forward.hpp</text>
</a>
</g>
</g>
<!-- Node1&#45;&gt;Node2 -->
<g id="edge1_Node000001_Node000002" class="edge">
<title>Node1&#45;&gt;Node2</title>
<g id="a_edge1_Node000001_Node000002"><a xlink:title=" ">
<path fill="none" stroke="#63b8ff" d="M265.14,-191.59C223.12,-180.76 167.34,-166.1 118.25,-152.25 116,-151.62 113.71,-150.96 111.4,-150.3"/>
<polygon fill="#63b8ff" stroke="#63b8ff" points="112.53,-146.98 101.95,-147.54 110.57,-153.7 112.53,-146.98"/>
</a>
</g>
</g>
<!-- Node3 -->
<g id="Node000003" class="node">
<title>Node3</title>
<g id="a_Node000003"><a xlink:href="format_8hpp.xhtml" target="_top" xlink:title="Formatting support for the typed matrix.">
<polygon fill="white" stroke="#666666" points="302.5,-146.62 198,-146.62 198,-116.12 302.5,-116.12 302.5,-146.62"/>
<text text-anchor="start" x="206" y="-133.12" font-family="Helvetica,sans-Serif" font-size="10.00">typed_linear_algebra</text>
<text text-anchor="middle" x="250.25" y="-121.88" font-family="Helvetica,sans-Serif" font-size="10.00">_internal/format.hpp</text>
</a>
</g>
</g>
<!-- Node1&#45;&gt;Node3 -->
<g id="edge2_Node000001_Node000003" class="edge">
<title>Node1&#45;&gt;Node3</title>
<g id="a_edge2_Node000001_Node000003"><a xlink:title=" ">
<path fill="none" stroke="#63b8ff" d="M308.81,-187.83C298.07,-177.66 285.04,-165.32 274,-154.87"/>
<polygon fill="#63b8ff" stroke="#63b8ff" points="276.43,-152.34 266.76,-148.01 271.61,-157.42 276.43,-152.34"/>
</a>
</g>
</g>
<!-- Node4 -->
<g id="Node000004" class="node">
<title>Node4</title>
<g id="a_Node000004"><a xlink:href="utility_8hpp.xhtml" target="_top" xlink:title=" ">
<polygon fill="white" stroke="#666666" points="354.5,-74.5 298,-74.5 298,-55.25 354.5,-55.25 354.5,-74.5"/>
<text text-anchor="middle" x="326.25" y="-61" font-family="Helvetica,sans-Serif" font-size="10.00">utility.hpp</text>
</a>
</g>
</g>
<!-- Node1&#45;&gt;Node4 -->
<g id="edge9_Node000001_Node000004" class="edge">
<title>Node1&#45;&gt;Node4</title>
<g id="a_edge9_Node000001_Node000004"><a xlink:title=" ">
<path fill="none" stroke="#63b8ff" d="M337.1,-187.83C342.86,-168.02 349.4,-137.06 344.25,-110.5 342.58,-101.9 339.26,-92.85 335.91,-85.17"/>
<polygon fill="#63b8ff" stroke="#63b8ff" points="339.1,-83.72 331.68,-76.16 332.77,-86.7 339.1,-83.72"/>
</a>
</g>
</g>
<!-- Node5 -->
<g id="Node000005" class="node">
<title>Node5</title>
<g id="a_Node000005"><a xlink:title=" ">
<polygon fill="#e0e0e0" stroke="#999999" points="213.12,-19.25 157.38,-19.25 157.38,0 213.12,0 213.12,-19.25"/>
<text text-anchor="middle" x="185.25" y="-5.75" font-family="Helvetica,sans-Serif" font-size="10.00">concepts</text>
</a>
</g>
</g>
<!-- Node1&#45;&gt;Node5 -->
<g id="edge10_Node000001_Node000005" class="edge">
<title>Node1&#45;&gt;Node5</title>
<g id="a_edge10_Node000001_Node000005"><a xlink:title=" ">
<path fill="none" stroke="#63b8ff" d="M265.34,-199.08C234.3,-191.52 199.04,-177.66 176.25,-152.25 146.91,-119.55 145.1,-97.47 157.25,-55.25 159.99,-45.72 165.44,-36.25 170.8,-28.51"/>
<polygon fill="#63b8ff" stroke="#63b8ff" points="173.48,-30.77 176.67,-20.67 167.88,-26.58 173.48,-30.77"/>
</a>
</g>
</g>
<!-- Node6 -->
<g id="Node000006" class="node">
<title>Node6</title>
<g id="a_Node000006"><a xlink:title=" ">
<polygon fill="#e0e0e0" stroke="#999999" points="421.75,-19.25 384.75,-19.25 384.75,0 421.75,0 421.75,-19.25"/>
<text text-anchor="middle" x="403.25" y="-5.75" font-family="Helvetica,sans-Serif" font-size="10.00">tuple</text>
</a>
</g>
</g>
<!-- Node1&#45;&gt;Node6 -->
<g id="edge14_Node000001_Node000006" class="edge">
<title>Node1&#45;&gt;Node6</title>
<g id="a_edge14_Node000001_Node000006"><a xlink:title=" ">
<path fill="none" stroke="#63b8ff" d="M341.89,-187.84C347.58,-177.42 354.26,-164.38 359.25,-152.25 376.65,-109.92 391.1,-58.08 398.31,-30.36"/>
<polygon fill="#63b8ff" stroke="#63b8ff" points="401.64,-31.46 400.72,-20.9 394.86,-29.73 401.64,-31.46"/>
</a>
</g>
</g>
<!-- Node8 -->
<g id="Node000008" class="node">
<title>Node8</title>
<g id="a_Node000008"><a xlink:title=" ">
<polygon fill="#e0e0e0" stroke="#999999" points="214.38,-74.5 166.12,-74.5 166.12,-55.25 214.38,-55.25 214.38,-74.5"/>
<text text-anchor="middle" x="190.25" y="-61" font-family="Helvetica,sans-Serif" font-size="10.00">cstddef</text>
</a>
</g>
</g>
<!-- Node1&#45;&gt;Node8 -->
<g id="edge11_Node000001_Node000008" class="edge">
<title>Node1&#45;&gt;Node8</title>
<g id="a_edge11_Node000001_Node000008"><a xlink:title=" ">
<path fill="none" stroke="#63b8ff" d="M265.27,-198.94C236.97,-191.36 206.41,-177.52 189.25,-152.25 176.04,-132.81 179.38,-104.79 183.96,-85.99"/>
<polygon fill="#63b8ff" stroke="#63b8ff" points="187.33,-86.94 186.65,-76.36 180.59,-85.05 187.33,-86.94"/>
</a>
</g>
</g>
<!-- Node9 -->
<g id="Node000009" class="node">
<title>Node9</title>
<g id="a_Node000009"><a xlink:title=" ">
<polygon fill="#e0e0e0" stroke="#999999" points="277.12,-74.5 233.38,-74.5 233.38,-55.25 277.12,-55.25 277.12,-74.5"/>
<text text-anchor="middle" x="255.25" y="-61" font-family="Helvetica,sans-Serif" font-size="10.00">format</text>
</a>
</g>
</g>
<!-- Node1&#45;&gt;Node9 -->
<g id="edge12_Node000001_Node000009" class="edge">
<title>Node1&#45;&gt;Node9</title>
<g id="a_edge12_Node000001_Node000009"><a xlink:title=" ">
<path fill="none" stroke="#63b8ff" d="M330.31,-187.98C329.51,-167.16 325.75,-134.42 311.25,-110.5 304.04,-98.62 292.46,-88.6 281.68,-81.09"/>
<polygon fill="#63b8ff" stroke="#63b8ff" points="283.73,-78.25 273.44,-75.74 279.92,-84.12 283.73,-78.25"/>
</a>
</g>
</g>
<!-- Node10 -->
<g id="Node000010" class="node">
<title>Node10</title>
<g id="a_Node000010"><a xlink:title=" ">
<polygon fill="#e0e0e0" stroke="#999999" points="506,-141 434.5,-141 434.5,-121.75 506,-121.75 506,-141"/>
<text text-anchor="middle" x="470.25" y="-127.5" font-family="Helvetica,sans-Serif" font-size="10.00">initializer_list</text>
</a>
</g>
</g>
<!-- Node1&#45;&gt;Node10 -->
<g id="edge13_Node000001_Node000010" class="edge">
<title>Node1&#45;&gt;Node10</title>
<g id="a_edge13_Node000001_Node000010"><a xlink:title=" ">
<path fill="none" stroke="#63b8ff" d="M367.77,-187.83C391.6,-174.93 421.89,-158.54 443.35,-146.93"/>
<polygon fill="#63b8ff" stroke="#63b8ff" points="444.93,-150.06 452.06,-142.22 441.6,-143.9 444.93,-150.06"/>
</a>
</g>
</g>
<!-- Node11 -->
<g id="Node000011" class="node">
<title>Node11</title>
<g id="a_Node000011"><a xlink:title=" ">
<polygon fill="#e0e0e0" stroke="#999999" points="632,-152.25 524.5,-152.25 524.5,-110.5 632,-110.5 632,-152.25"/>
<text text-anchor="start" x="532.5" y="-138.75" font-family="Helvetica,sans-Serif" font-size="10.00">typed_linear_algebra</text>
<text text-anchor="start" x="532.5" y="-127.5" font-family="Helvetica,sans-Serif" font-size="10.00">_internal/typed_linear</text>
<text text-anchor="middle" x="578.25" y="-116.25" font-family="Helvetica,sans-Serif" font-size="10.00">_algebra.tpp</text>
</a>
</g>
</g>
<!-- Node1&#45;&gt;Node11 -->
<g id="edge15_Node000001_Node000011" class="edge">
<title>Node1&#45;&gt;Node11</title>
<g id="a_edge15_Node000001_Node000011"><a xlink:title=" ">
<path fill="none" stroke="#63b8ff" d="M394.95,-188.8C427.85,-178.92 468.73,-166.57 513.47,-152.78"/>
<polygon fill="#63b8ff" stroke="#63b8ff" points="514.34,-156.18 522.86,-149.89 512.27,-149.49 514.34,-156.18"/>
</a>
</g>
</g>
<!-- Node3&#45;&gt;Node4 -->
<g id="edge3_Node000003_Node000004" class="edge">
<title>Node3&#45;&gt;Node4</title>
<g id="a_edge3_Node000003_Node000004"><a xlink:title=" ">
<path fill="none" stroke="#63b8ff" d="M267.5,-115.74C279.36,-105.67 295.12,-92.29 307.33,-81.93"/>
<polygon fill="#63b8ff" stroke="#63b8ff" points="309.34,-84.82 314.7,-75.68 304.81,-79.48 309.34,-84.82"/>
</a>
</g>
</g>
<!-- Node3&#45;&gt;Node8 -->
<g id="edge7_Node000003_Node000008" class="edge">
<title>Node3&#45;&gt;Node8</title>
<g id="a_edge7_Node000003_Node000008"><a xlink:title=" ">
<path fill="none" stroke="#63b8ff" d="M236.64,-115.74C227.54,-105.96 215.55,-93.08 206.04,-82.85"/>
<polygon fill="#63b8ff" stroke="#63b8ff" points="208.86,-80.74 199.49,-75.81 203.74,-85.51 208.86,-80.74"/>
</a>
</g>
</g>
<!-- Node3&#45;&gt;Node9 -->
<g id="edge8_Node000003_Node000009" class="edge">
<title>Node3&#45;&gt;Node9</title>
<g id="a_edge8_Node000003_Node000009"><a xlink:title=" ">
<path fill="none" stroke="#63b8ff" d="M251.38,-115.74C252.07,-106.95 252.94,-95.65 253.69,-86.03"/>
<polygon fill="#63b8ff" stroke="#63b8ff" points="257.17,-86.45 254.45,-76.21 250.19,-85.91 257.17,-86.45"/>
</a>
</g>
</g>
<!-- Node4&#45;&gt;Node5 -->
<g id="edge4_Node000004_Node000005" class="edge">
<title>Node4&#45;&gt;Node5</title>
<g id="a_edge4_Node000004_Node000005"><a xlink:title=" ">
<path fill="none" stroke="#63b8ff" d="M302.33,-54.84C279.75,-46.31 245.61,-33.42 220.02,-23.76"/>
<polygon fill="#63b8ff" stroke="#63b8ff" points="221.29,-20.5 210.7,-20.24 218.82,-27.04 221.29,-20.5"/>
</a>
</g>
</g>
<!-- Node4&#45;&gt;Node6 -->
<g id="edge5_Node000004_Node000006" class="edge">
<title>Node4&#45;&gt;Node6</title>
<g id="a_edge5_Node000004_Node000006"><a xlink:title=" ">
<path fill="none" stroke="#63b8ff" d="M339.31,-54.84C350.71,-46.96 367.48,-35.36 380.99,-26.02"/>
<polygon fill="#63b8ff" stroke="#63b8ff" points="382.65,-29.13 388.88,-20.56 378.66,-23.37 382.65,-29.13"/>
</a>
</g>
</g>
<!-- Node7 -->
<g id="Node000007" class="node">
<title>Node7</title>
<g id="a_Node000007"><a xlink:title=" ">
<polygon fill="#e0e0e0" stroke="#999999" points="356.75,-19.25 295.75,-19.25 295.75,0 356.75,0 356.75,-19.25"/>
<text text-anchor="middle" x="326.25" y="-5.75" font-family="Helvetica,sans-Serif" font-size="10.00">type_traits</text>
</a>
</g>
</g>
<!-- Node4&#45;&gt;Node7 -->
<g id="edge6_Node000004_Node000007" class="edge">
<title>Node4&#45;&gt;Node7</title>
<g id="a_edge6_Node000004_Node000007"><a xlink:title=" ">
<path fill="none" stroke="#63b8ff" d="M326.25,-55.08C326.25,-48.57 326.25,-39.42 326.25,-31.12"/>
<polygon fill="#63b8ff" stroke="#63b8ff" points="329.75,-31.12 326.25,-21.12 322.75,-31.12 329.75,-31.12"/>
</a>
</g>
</g>
</g>
</svg>
