<?xml version="1.0" encoding="UTF-8" standalone="no"?>
<!DOCTYPE svg PUBLIC "-//W3C//DTD SVG 1.1//EN"
 "http://www.w3.org/Graphics/SVG/1.1/DTD/svg11.dtd">
<!-- Generated by graphviz version 12.2.0 (20241103.1931)
 -->
<!-- Title: /github/workspace/include/fcarouge/typed_linear_algebra.hpp Pages: 1 -->
<svg width="363pt" height="227pt"
 viewBox="0.00 0.00 362.70 226.75" xmlns="http://www.w3.org/2000/svg" xmlns:xlink="http://www.w3.org/1999/xlink">
<g id="graph0" class="graph" transform="scale(1 1) rotate(0) translate(4 222.75)">
<title>/github/workspace/include/fcarouge/typed_linear_algebra.hpp</title>
<!-- Node1 -->
<g id="Node000001" class="node">
<title>Node1</title>
<g id="a_Node000001"><a xlink:title="Typed linear algebra implementation.">
<polygon fill="#999999" stroke="#666666" points="243.57,-218.75 114.32,-218.75 114.32,-177 243.57,-177 243.57,-218.75"/>
<text text-anchor="start" x="122.32" y="-205.25" font-family="Helvetica,sans-Serif" font-size="10.00">/github/workspace/include</text>
<text text-anchor="start" x="122.32" y="-194" font-family="Helvetica,sans-Serif" font-size="10.00">/fcarouge/typed_linear</text>
<text text-anchor="middle" x="178.95" y="-182.75" font-family="Helvetica,sans-Serif" font-size="10.00">_algebra.hpp</text>
</a>
</g>
</g>
<!-- Node2 -->
<g id="Node000002" class="node">
<title>Node2</title>
<g id="a_Node000002"><a xlink:href="format_8hpp.xhtml" target="_top" xlink:title="Formatting support for the typed matrix.">
<polygon fill="white" stroke="#666666" points="151.2,-141 46.7,-141 46.7,-110.5 151.2,-110.5 151.2,-141"/>
<text text-anchor="start" x="54.7" y="-127.5" font-family="Helvetica,sans-Serif" font-size="10.00">typed_linear_algebra</text>
<text text-anchor="middle" x="98.95" y="-116.25" font-family="Helvetica,sans-Serif" font-size="10.00">_internal/format.hpp</text>
</a>
</g>
</g>
<!-- Node1&#45;&gt;Node2 -->
<g id="edge1_Node000001_Node000002" class="edge">
<title>Node1&#45;&gt;Node2</title>
<g id="a_edge1_Node000001_Node000002"><a xlink:title=" ">
<path fill="none" stroke="#63b8ff" d="M155.81,-176.59C145.89,-167.89 134.27,-157.71 124.13,-148.83"/>
<polygon fill="#63b8ff" stroke="#63b8ff" points="126.65,-146.38 116.82,-142.42 122.03,-151.64 126.65,-146.38"/>
</a>
</g>
</g>
<!-- Node3 -->
<g id="Node000003" class="node">
<title>Node3</title>
<g id="a_Node000003"><a xlink:href="utility_8hpp.xhtml" target="_top" xlink:title=" ">
<polygon fill="white" stroke="#666666" points="203.2,-74.5 146.7,-74.5 146.7,-55.25 203.2,-55.25 203.2,-74.5"/>
<text text-anchor="middle" x="174.95" y="-61" font-family="Helvetica,sans-Serif" font-size="10.00">utility.hpp</text>
</a>
</g>
</g>
<!-- Node1&#45;&gt;Node3 -->
<g id="edge8_Node000001_Node000003" class="edge">
<title>Node1&#45;&gt;Node3</title>
<g id="a_edge8_Node000001_Node000003"><a xlink:title=" ">
<path fill="none" stroke="#63b8ff" d="M186.29,-176.57C191.66,-159.02 197.32,-133.02 192.95,-110.5 191.28,-101.9 187.95,-92.85 184.61,-85.17"/>
<polygon fill="#63b8ff" stroke="#63b8ff" points="187.8,-83.72 180.38,-76.16 181.46,-86.7 187.8,-83.72"/>
</a>
</g>
</g>
<!-- Node4 -->
<g id="Node000004" class="node">
<title>Node4</title>
<g id="a_Node000004"><a xlink:title=" ">
<polygon fill="#e0e0e0" stroke="#999999" points="61.82,-19.25 6.07,-19.25 6.07,0 61.82,0 61.82,-19.25"/>
<text text-anchor="middle" x="33.95" y="-5.75" font-family="Helvetica,sans-Serif" font-size="10.00">concepts</text>
</a>
</g>
</g>
<!-- Node1&#45;&gt;Node4 -->
<g id="edge9_Node000001_Node000004" class="edge">
<title>Node1&#45;&gt;Node4</title>
<g id="a_edge9_Node000001_Node000004"><a xlink:title=" ">
<path fill="none" stroke="#63b8ff" d="M113.85,-186.93C83.44,-179.15 48.95,-165.37 25.95,-141 -0.91,-112.54 -4.87,-92.86 5.95,-55.25 8.69,-45.72 14.14,-36.25 19.5,-28.51"/>
<polygon fill="#63b8ff" stroke="#63b8ff" points="22.18,-30.77 25.37,-20.67 16.57,-26.58 22.18,-30.77"/>
</a>
</g>
</g>
<!-- Node5 -->
<g id="Node000005" class="node">
<title>Node5</title>
<g id="a_Node000005"><a xlink:title=" ">
<polygon fill="#e0e0e0" stroke="#999999" points="270.45,-19.25 233.45,-19.25 233.45,0 270.45,0 270.45,-19.25"/>
<text text-anchor="middle" x="251.95" y="-5.75" font-family="Helvetica,sans-Serif" font-size="10.00">tuple</text>
</a>
</g>
</g>
<!-- Node1&#45;&gt;Node5 -->
<g id="edge13_Node000001_Node000005" class="edge">
<title>Node1&#45;&gt;Node5</title>
<g id="a_edge13_Node000001_Node000005"><a xlink:title=" ">
<path fill="none" stroke="#63b8ff" d="M190.46,-176.54C196.12,-166.1 202.82,-153.07 207.95,-141 224.18,-102.84 238.63,-56.48 246.25,-30.59"/>
<polygon fill="#63b8ff" stroke="#63b8ff" points="249.58,-31.69 249,-21.11 242.85,-29.74 249.58,-31.69"/>
</a>
</g>
</g>
<!-- Node7 -->
<g id="Node000007" class="node">
<title>Node7</title>
<g id="a_Node000007"><a xlink:title=" ">
<polygon fill="#e0e0e0" stroke="#999999" points="63.07,-74.5 14.82,-74.5 14.82,-55.25 63.07,-55.25 63.07,-74.5"/>
<text text-anchor="middle" x="38.95" y="-61" font-family="Helvetica,sans-Serif" font-size="10.00">cstddef</text>
</a>
</g>
</g>
<!-- Node1&#45;&gt;Node7 -->
<g id="edge10_Node000001_Node000007" class="edge">
<title>Node1&#45;&gt;Node7</title>
<g id="a_edge10_Node000001_Node000007"><a xlink:title=" ">
<path fill="none" stroke="#63b8ff" d="M113.96,-187.69C85.67,-180.11 55.11,-166.27 37.95,-141 26.97,-124.84 29.18,-101.86 32.91,-85.59"/>
<polygon fill="#63b8ff" stroke="#63b8ff" points="36.23,-86.7 35.46,-76.13 29.47,-84.87 36.23,-86.7"/>
</a>
</g>
</g>
<!-- Node8 -->
<g id="Node000008" class="node">
<title>Node8</title>
<g id="a_Node000008"><a xlink:title=" ">
<polygon fill="#e0e0e0" stroke="#999999" points="125.82,-74.5 82.07,-74.5 82.07,-55.25 125.82,-55.25 125.82,-74.5"/>
<text text-anchor="middle" x="103.95" y="-61" font-family="Helvetica,sans-Serif" font-size="10.00">format</text>
</a>
</g>
</g>
<!-- Node1&#45;&gt;Node8 -->
<g id="edge11_Node000001_Node000008" class="edge">
<title>Node1&#45;&gt;Node8</title>
<g id="a_edge11_Node000001_Node000008"><a xlink:title=" ">
<path fill="none" stroke="#63b8ff" d="M178.29,-176.58C176.84,-158.1 172.53,-130.7 159.95,-110.5 152.6,-98.71 140.99,-88.7 130.24,-81.18"/>
<polygon fill="#63b8ff" stroke="#63b8ff" points="132.32,-78.35 122.03,-75.81 128.49,-84.21 132.32,-78.35"/>
</a>
</g>
</g>
<!-- Node9 -->
<g id="Node000009" class="node">
<title>Node9</title>
<g id="a_Node000009"><a xlink:title=" ">
<polygon fill="#e0e0e0" stroke="#999999" points="354.7,-135.38 283.2,-135.38 283.2,-116.12 354.7,-116.12 354.7,-135.38"/>
<text text-anchor="middle" x="318.95" y="-121.88" font-family="Helvetica,sans-Serif" font-size="10.00">initializer_list</text>
</a>
</g>
</g>
<!-- Node1&#45;&gt;Node9 -->
<g id="edge12_Node000001_Node000009" class="edge">
<title>Node1&#45;&gt;Node9</title>
<g id="a_edge12_Node000001_Node000009"><a xlink:title=" ">
<path fill="none" stroke="#63b8ff" d="M219.44,-176.59C242.31,-165.14 270.31,-151.11 290.78,-140.86"/>
<polygon fill="#63b8ff" stroke="#63b8ff" points="292.28,-144.02 299.66,-136.41 289.15,-137.76 292.28,-144.02"/>
</a>
</g>
</g>
<!-- Node2&#45;&gt;Node3 -->
<g id="edge2_Node000002_Node000003" class="edge">
<title>Node2&#45;&gt;Node3</title>
<g id="a_edge2_Node000002_Node000003"><a xlink:title=" ">
<path fill="none" stroke="#63b8ff" d="M117.73,-110.2C128.86,-101.58 142.97,-90.65 154.39,-81.8"/>
<polygon fill="#63b8ff" stroke="#63b8ff" points="156.27,-84.77 162.04,-75.88 151.99,-79.24 156.27,-84.77"/>
</a>
</g>
</g>
<!-- Node2&#45;&gt;Node7 -->
<g id="edge6_Node000002_Node000007" class="edge">
<title>Node2&#45;&gt;Node7</title>
<g id="a_edge6_Node000002_Node000007"><a xlink:title=" ">
<path fill="none" stroke="#63b8ff" d="M84.12,-110.2C75.68,-101.92 65.08,-91.52 56.27,-82.87"/>
<polygon fill="#63b8ff" stroke="#63b8ff" points="58.87,-80.52 49.28,-76.01 53.96,-85.51 58.87,-80.52"/>
</a>
</g>
</g>
<!-- Node2&#45;&gt;Node8 -->
<g id="edge7_Node000002_Node000008" class="edge">
<title>Node2&#45;&gt;Node8</title>
<g id="a_edge7_Node000002_Node000008"><a xlink:title=" ">
<path fill="none" stroke="#63b8ff" d="M100.18,-110.2C100.8,-102.96 101.55,-94.09 102.22,-86.19"/>
<polygon fill="#63b8ff" stroke="#63b8ff" points="105.69,-86.72 103.05,-76.46 98.72,-86.13 105.69,-86.72"/>
</a>
</g>
</g>
<!-- Node3&#45;&gt;Node4 -->
<g id="edge3_Node000003_Node000004" class="edge">
<title>Node3&#45;&gt;Node4</title>
<g id="a_edge3_Node000003_Node000004"><a xlink:title=" ">
<path fill="none" stroke="#63b8ff" d="M151.03,-54.84C128.44,-46.31 94.31,-33.42 68.72,-23.76"/>
<polygon fill="#63b8ff" stroke="#63b8ff" points="69.99,-20.5 59.4,-20.24 67.52,-27.04 69.99,-20.5"/>
</a>
</g>
</g>
<!-- Node3&#45;&gt;Node5 -->
<g id="edge4_Node000003_Node000005" class="edge">
<title>Node3&#45;&gt;Node5</title>
<g id="a_edge4_Node000003_Node000005"><a xlink:title=" ">
<path fill="none" stroke="#63b8ff" d="M188.01,-54.84C199.4,-46.96 216.18,-35.36 229.69,-26.02"/>
<polygon fill="#63b8ff" stroke="#63b8ff" points="231.34,-29.13 237.58,-20.56 227.36,-23.37 231.34,-29.13"/>
</a>
</g>
</g>
<!-- Node6 -->
<g id="Node000006" class="node">
<title>Node6</title>
<g id="a_Node000006"><a xlink:title=" ">
<polygon fill="#e0e0e0" stroke="#999999" points="205.45,-19.25 144.45,-19.25 144.45,0 205.45,0 205.45,-19.25"/>
<text text-anchor="middle" x="174.95" y="-5.75" font-family="Helvetica,sans-Serif" font-size="10.00">type_traits</text>
</a>
</g>
</g>
<!-- Node3&#45;&gt;Node6 -->
<g id="edge5_Node000003_Node000006" class="edge">
<title>Node3&#45;&gt;Node6</title>
<g id="a_edge5_Node000003_Node000006"><a xlink:title=" ">
<path fill="none" stroke="#63b8ff" d="M174.95,-55.08C174.95,-48.57 174.95,-39.42 174.95,-31.12"/>
<polygon fill="#63b8ff" stroke="#63b8ff" points="178.45,-31.12 174.95,-21.12 171.45,-31.12 178.45,-31.12"/>
</a>
</g>
</g>
</g>
</svg>
