<?xml version="1.0" encoding="UTF-8" standalone="no"?>
<!DOCTYPE svg PUBLIC "-//W3C//DTD SVG 1.1//EN"
 "http://www.w3.org/Graphics/SVG/1.1/DTD/svg11.dtd">
<!-- Generated by graphviz version 12.2.0 (20241103.1931)
 -->
<!-- Title: /github/workspace/include/fcarouge/typed_linear_algebra.hpp Pages: 1 -->
<svg width="492pt" height="238pt"
 viewBox="0.00 0.00 491.90 238.00" xmlns="http://www.w3.org/2000/svg" xmlns:xlink="http://www.w3.org/1999/xlink">
<g id="graph0" class="graph" transform="scale(1 1) rotate(0) translate(4 234)">
<title>/github/workspace/include/fcarouge/typed_linear_algebra.hpp</title>
<!-- Node1 -->
<g id="Node000001" class="node">
<title>Node1</title>
<g id="a_Node000001"><a xlink:title="Typed linear algebra implementation.">
<polygon fill="#999999" stroke="#666666" points="244.77,-230 115.52,-230 115.52,-188.25 244.77,-188.25 244.77,-230"/>
<text text-anchor="start" x="123.52" y="-216.5" font-family="Helvetica,sans-Serif" font-size="10.00">/github/workspace/include</text>
<text text-anchor="start" x="123.52" y="-205.25" font-family="Helvetica,sans-Serif" font-size="10.00">/fcarouge/typed_linear</text>
<text text-anchor="middle" x="180.15" y="-194" font-family="Helvetica,sans-Serif" font-size="10.00">_algebra.hpp</text>
</a>
</g>
</g>
<!-- Node2 -->
<g id="Node000002" class="node">
<title>Node2</title>
<g id="a_Node000002"><a xlink:href="format_8hpp.xhtml" target="_top" xlink:title="Formatting support for the typed matrix.">
<polygon fill="white" stroke="#666666" points="192.4,-146.62 87.9,-146.62 87.9,-116.12 192.4,-116.12 192.4,-146.62"/>
<text text-anchor="start" x="95.9" y="-133.12" font-family="Helvetica,sans-Serif" font-size="10.00">typed_linear_algebra</text>
<text text-anchor="middle" x="140.15" y="-121.88" font-family="Helvetica,sans-Serif" font-size="10.00">_internal/format.hpp</text>
</a>
</g>
</g>
<!-- Node1&#45;&gt;Node2 -->
<g id="edge1_Node000001_Node000002" class="edge">
<title>Node1&#45;&gt;Node2</title>
<g id="a_edge1_Node000001_Node000002"><a xlink:title=" ">
<path fill="none" stroke="#63b8ff" d="M169.43,-187.83C164.4,-178.3 158.36,-166.87 153.08,-156.86"/>
<polygon fill="#63b8ff" stroke="#63b8ff" points="156.2,-155.28 148.43,-148.07 150.01,-158.54 156.2,-155.28"/>
</a>
</g>
</g>
<!-- Node3 -->
<g id="Node000003" class="node">
<title>Node3</title>
<g id="a_Node000003"><a xlink:href="utility_8hpp.xhtml" target="_top" xlink:title=" ">
<polygon fill="white" stroke="#666666" points="207.4,-74.5 150.9,-74.5 150.9,-55.25 207.4,-55.25 207.4,-74.5"/>
<text text-anchor="middle" x="179.15" y="-61" font-family="Helvetica,sans-Serif" font-size="10.00">utility.hpp</text>
</a>
</g>
</g>
<!-- Node1&#45;&gt;Node3 -->
<g id="edge8_Node000001_Node000003" class="edge">
<title>Node1&#45;&gt;Node3</title>
<g id="a_edge8_Node000001_Node000003"><a xlink:title=" ">
<path fill="none" stroke="#63b8ff" d="M189.75,-187.93C194.17,-177.53 198.92,-164.49 201.15,-152.25 204.46,-133.99 205.36,-128.57 201.15,-110.5 199.07,-101.58 194.94,-92.39 190.81,-84.69"/>
<polygon fill="#63b8ff" stroke="#63b8ff" points="193.99,-83.19 185.95,-76.29 187.92,-86.7 193.99,-83.19"/>
</a>
</g>
</g>
<!-- Node4 -->
<g id="Node000004" class="node">
<title>Node4</title>
<g id="a_Node000004"><a xlink:title=" ">
<polygon fill="#e0e0e0" stroke="#999999" points="66.02,-19.25 10.27,-19.25 10.27,0 66.02,0 66.02,-19.25"/>
<text text-anchor="middle" x="38.15" y="-5.75" font-family="Helvetica,sans-Serif" font-size="10.00">concepts</text>
</a>
</g>
</g>
<!-- Node1&#45;&gt;Node4 -->
<g id="edge9_Node000001_Node000004" class="edge">
<title>Node1&#45;&gt;Node4</title>
<g id="a_edge9_Node000001_Node000004"><a xlink:title=" ">
<path fill="none" stroke="#63b8ff" d="M115.22,-192.01C90.71,-183.39 63.98,-170.65 44.15,-152.25 10.08,-120.65 -9.4,-99.38 5.15,-55.25 8.45,-45.23 14.96,-35.62 21.34,-27.9"/>
<polygon fill="#63b8ff" stroke="#63b8ff" points="23.76,-30.44 27.81,-20.65 18.54,-25.78 23.76,-30.44"/>
</a>
</g>
</g>
<!-- Node5 -->
<g id="Node000005" class="node">
<title>Node5</title>
<g id="a_Node000005"><a xlink:title=" ">
<polygon fill="#e0e0e0" stroke="#999999" points="275.65,-19.25 238.65,-19.25 238.65,0 275.65,0 275.65,-19.25"/>
<text text-anchor="middle" x="257.15" y="-5.75" font-family="Helvetica,sans-Serif" font-size="10.00">tuple</text>
</a>
</g>
</g>
<!-- Node1&#45;&gt;Node5 -->
<g id="edge13_Node000001_Node000005" class="edge">
<title>Node1&#45;&gt;Node5</title>
<g id="a_edge13_Node000001_Node000005"><a xlink:title=" ">
<path fill="none" stroke="#63b8ff" d="M195.15,-187.98C202.28,-177.7 210.46,-164.75 216.15,-152.25 234.99,-110.83 247.44,-58.64 253.28,-30.61"/>
<polygon fill="#63b8ff" stroke="#63b8ff" points="256.66,-31.54 255.2,-21.05 249.8,-30.16 256.66,-31.54"/>
</a>
</g>
</g>
<!-- Node7 -->
<g id="Node000007" class="node">
<title>Node7</title>
<g id="a_Node000007"><a xlink:title=" ">
<polygon fill="#e0e0e0" stroke="#999999" points="62.27,-74.5 14.02,-74.5 14.02,-55.25 62.27,-55.25 62.27,-74.5"/>
<text text-anchor="middle" x="38.15" y="-61" font-family="Helvetica,sans-Serif" font-size="10.00">cstddef</text>
</a>
</g>
</g>
<!-- Node1&#45;&gt;Node7 -->
<g id="edge10_Node000001_Node000007" class="edge">
<title>Node1&#45;&gt;Node7</title>
<g id="a_edge10_Node000001_Node000007"><a xlink:title=" ">
<path fill="none" stroke="#63b8ff" d="M120.7,-187.79C102.52,-179.18 83.75,-167.52 70.15,-152.25 53.38,-133.44 45.13,-105.06 41.27,-86.02"/>
<polygon fill="#63b8ff" stroke="#63b8ff" points="44.73,-85.53 39.54,-76.3 37.84,-86.75 44.73,-85.53"/>
</a>
</g>
</g>
<!-- Node8 -->
<g id="Node000008" class="node">
<title>Node8</title>
<g id="a_Node000008"><a xlink:title=" ">
<polygon fill="#e0e0e0" stroke="#999999" points="130.02,-74.5 86.27,-74.5 86.27,-55.25 130.02,-55.25 130.02,-74.5"/>
<text text-anchor="middle" x="108.15" y="-61" font-family="Helvetica,sans-Serif" font-size="10.00">format</text>
</a>
</g>
</g>
<!-- Node1&#45;&gt;Node8 -->
<g id="edge11_Node000001_Node000008" class="edge">
<title>Node1&#45;&gt;Node8</title>
<g id="a_edge11_Node000001_Node000008"><a xlink:title=" ">
<path fill="none" stroke="#63b8ff" d="M119.64,-187.85C103.68,-179.43 88.36,-167.87 79.15,-152.25 66.33,-130.51 80.76,-102.31 93.44,-84.15"/>
<polygon fill="#63b8ff" stroke="#63b8ff" points="96.22,-86.29 99.41,-76.19 90.61,-82.1 96.22,-86.29"/>
</a>
</g>
</g>
<!-- Node9 -->
<g id="Node000009" class="node">
<title>Node9</title>
<g id="a_Node000009"><a xlink:title=" ">
<polygon fill="#e0e0e0" stroke="#999999" points="357.9,-141 286.4,-141 286.4,-121.75 357.9,-121.75 357.9,-141"/>
<text text-anchor="middle" x="322.15" y="-127.5" font-family="Helvetica,sans-Serif" font-size="10.00">initializer_list</text>
</a>
</g>
</g>
<!-- Node1&#45;&gt;Node9 -->
<g id="edge12_Node000001_Node000009" class="edge">
<title>Node1&#45;&gt;Node9</title>
<g id="a_edge12_Node000001_Node000009"><a xlink:title=" ">
<path fill="none" stroke="#63b8ff" d="M218.2,-187.83C242.49,-174.87 273.38,-158.39 295.16,-146.77"/>
<polygon fill="#63b8ff" stroke="#63b8ff" points="296.53,-150.01 303.71,-142.21 293.24,-143.83 296.53,-150.01"/>
</a>
</g>
</g>
<!-- Node10 -->
<g id="Node000010" class="node">
<title>Node10</title>
<g id="a_Node000010"><a xlink:title=" ">
<polygon fill="#e0e0e0" stroke="#999999" points="483.9,-152.25 376.4,-152.25 376.4,-110.5 483.9,-110.5 483.9,-152.25"/>
<text text-anchor="start" x="384.4" y="-138.75" font-family="Helvetica,sans-Serif" font-size="10.00">typed_linear_algebra</text>
<text text-anchor="start" x="384.4" y="-127.5" font-family="Helvetica,sans-Serif" font-size="10.00">_internal/typed_linear</text>
<text text-anchor="middle" x="430.15" y="-116.25" font-family="Helvetica,sans-Serif" font-size="10.00">_algebra.tpp</text>
</a>
</g>
</g>
<!-- Node1&#45;&gt;Node10 -->
<g id="edge14_Node000001_Node000010" class="edge">
<title>Node1&#45;&gt;Node10</title>
<g id="a_edge14_Node000001_Node000010"><a xlink:title=" ">
<path fill="none" stroke="#63b8ff" d="M245.13,-188.97C278.45,-179.09 319.95,-166.69 365.24,-152.82"/>
<polygon fill="#63b8ff" stroke="#63b8ff" points="366.23,-156.17 374.76,-149.9 364.17,-149.48 366.23,-156.17"/>
</a>
</g>
</g>
<!-- Node2&#45;&gt;Node3 -->
<g id="edge2_Node000002_Node000003" class="edge">
<title>Node2&#45;&gt;Node3</title>
<g id="a_edge2_Node000002_Node000003"><a xlink:title=" ">
<path fill="none" stroke="#63b8ff" d="M149,-115.74C154.61,-106.46 161.92,-94.37 167.93,-84.42"/>
<polygon fill="#63b8ff" stroke="#63b8ff" points="170.85,-86.36 173.03,-75.99 164.86,-82.74 170.85,-86.36"/>
</a>
</g>
</g>
<!-- Node2&#45;&gt;Node7 -->
<g id="edge6_Node000002_Node000007" class="edge">
<title>Node2&#45;&gt;Node7</title>
<g id="a_edge6_Node000002_Node000007"><a xlink:title=" ">
<path fill="none" stroke="#63b8ff" d="M117,-115.74C100.55,-105.34 78.52,-91.4 61.92,-80.91"/>
<polygon fill="#63b8ff" stroke="#63b8ff" points="64,-78.08 53.67,-75.69 60.25,-84 64,-78.08"/>
</a>
</g>
</g>
<!-- Node2&#45;&gt;Node8 -->
<g id="edge7_Node000002_Node000008" class="edge">
<title>Node2&#45;&gt;Node8</title>
<g id="a_edge7_Node000002_Node000008"><a xlink:title=" ">
<path fill="none" stroke="#63b8ff" d="M132.88,-115.74C128.33,-106.56 122.41,-94.63 117.5,-84.74"/>
<polygon fill="#63b8ff" stroke="#63b8ff" points="120.78,-83.46 113.2,-76.05 114.5,-86.57 120.78,-83.46"/>
</a>
</g>
</g>
<!-- Node3&#45;&gt;Node4 -->
<g id="edge3_Node000003_Node000004" class="edge">
<title>Node3&#45;&gt;Node4</title>
<g id="a_edge3_Node000003_Node000004"><a xlink:title=" ">
<path fill="none" stroke="#63b8ff" d="M155.23,-54.84C132.64,-46.31 98.51,-33.42 72.92,-23.76"/>
<polygon fill="#63b8ff" stroke="#63b8ff" points="74.19,-20.5 63.6,-20.24 71.72,-27.04 74.19,-20.5"/>
</a>
</g>
</g>
<!-- Node3&#45;&gt;Node5 -->
<g id="edge4_Node000003_Node000005" class="edge">
<title>Node3&#45;&gt;Node5</title>
<g id="a_edge4_Node000003_Node000005"><a xlink:title=" ">
<path fill="none" stroke="#63b8ff" d="M192.38,-54.84C203.92,-46.96 220.91,-35.36 234.6,-26.02"/>
<polygon fill="#63b8ff" stroke="#63b8ff" points="236.31,-29.08 242.6,-20.56 232.37,-23.3 236.31,-29.08"/>
</a>
</g>
</g>
<!-- Node6 -->
<g id="Node000006" class="node">
<title>Node6</title>
<g id="a_Node000006"><a xlink:title=" ">
<polygon fill="#e0e0e0" stroke="#999999" points="209.65,-19.25 148.65,-19.25 148.65,0 209.65,0 209.65,-19.25"/>
<text text-anchor="middle" x="179.15" y="-5.75" font-family="Helvetica,sans-Serif" font-size="10.00">type_traits</text>
</a>
</g>
</g>
<!-- Node3&#45;&gt;Node6 -->
<g id="edge5_Node000003_Node000006" class="edge">
<title>Node3&#45;&gt;Node6</title>
<g id="a_edge5_Node000003_Node000006"><a xlink:title=" ">
<path fill="none" stroke="#63b8ff" d="M179.15,-55.08C179.15,-48.57 179.15,-39.42 179.15,-31.12"/>
<polygon fill="#63b8ff" stroke="#63b8ff" points="182.65,-31.12 179.15,-21.12 175.65,-31.12 182.65,-31.12"/>
</a>
</g>
</g>
</g>
</svg>
