<?xml version="1.0" encoding="UTF-8" standalone="no"?>
<!DOCTYPE svg PUBLIC "-//W3C//DTD SVG 1.1//EN"
 "http://www.w3.org/Graphics/SVG/1.1/DTD/svg11.dtd">
<!-- Generated by graphviz version 12.2.0 (20241103.1931)
 -->
<!-- Title: /github/workspace/include/fcarouge/typed_linear_algebra.hpp Pages: 1 -->
<svg width="422pt" height="172pt"
 viewBox="0.00 0.00 421.62 171.50" xmlns="http://www.w3.org/2000/svg" xmlns:xlink="http://www.w3.org/1999/xlink">
<g id="graph0" class="graph" transform="scale(1 1) rotate(0) translate(4 167.5)">
<title>/github/workspace/include/fcarouge/typed_linear_algebra.hpp</title>
<!-- Node1 -->
<g id="Node000001" class="node">
<title>Node1</title>
<g id="a_Node000001"><a xlink:title="Index typed linear algebra implementation.">
<polygon fill="#999999" stroke="#666666" points="276.5,-163.5 147.25,-163.5 147.25,-121.75 276.5,-121.75 276.5,-163.5"/>
<text text-anchor="start" x="155.25" y="-150" font-family="Helvetica,sans-Serif" font-size="10.00">/github/workspace/include</text>
<text text-anchor="start" x="155.25" y="-138.75" font-family="Helvetica,sans-Serif" font-size="10.00">/fcarouge/typed_linear</text>
<text text-anchor="middle" x="211.88" y="-127.5" font-family="Helvetica,sans-Serif" font-size="10.00">_algebra.hpp</text>
</a>
</g>
</g>
<!-- Node2 -->
<g id="Node000002" class="node">
<title>Node2</title>
<g id="a_Node000002"><a xlink:href="utility_8hpp.xhtml" target="_top" xlink:title=" ">
<polygon fill="white" stroke="#666666" points="158.12,-85.75 53.62,-85.75 53.62,-55.25 158.12,-55.25 158.12,-85.75"/>
<text text-anchor="start" x="61.62" y="-72.25" font-family="Helvetica,sans-Serif" font-size="10.00">typed_linear_algebra</text>
<text text-anchor="middle" x="105.88" y="-61" font-family="Helvetica,sans-Serif" font-size="10.00">_internal/utility.hpp</text>
</a>
</g>
</g>
<!-- Node1&#45;&gt;Node2 -->
<g id="edge1_Node000001_Node000002" class="edge">
<title>Node1&#45;&gt;Node2</title>
<g id="a_edge1_Node000001_Node000002"><a xlink:title=" ">
<path fill="none" stroke="#63b8ff" d="M181.22,-121.34C167.54,-112.29 151.43,-101.64 137.63,-92.5"/>
<polygon fill="#63b8ff" stroke="#63b8ff" points="139.58,-89.6 129.31,-87 135.72,-95.44 139.58,-89.6"/>
</a>
</g>
</g>
<!-- Node3 -->
<g id="Node000003" class="node">
<title>Node3</title>
<g id="a_Node000003"><a xlink:title=" ">
<polygon fill="#e0e0e0" stroke="#999999" points="55.75,-19.25 0,-19.25 0,0 55.75,0 55.75,-19.25"/>
<text text-anchor="middle" x="27.88" y="-5.75" font-family="Helvetica,sans-Serif" font-size="10.00">concepts</text>
</a>
</g>
</g>
<!-- Node1&#45;&gt;Node3 -->
<g id="edge5_Node000001_Node000003" class="edge">
<title>Node1&#45;&gt;Node3</title>
<g id="a_edge5_Node000001_Node000003"><a xlink:title=" ">
<path fill="none" stroke="#63b8ff" d="M146.82,-135.22C111.9,-128.41 70.82,-114.43 44.88,-85.75 31.29,-70.73 27.83,-47.2 27.27,-30.48"/>
<polygon fill="#63b8ff" stroke="#63b8ff" points="30.77,-30.79 27.28,-20.79 23.77,-30.78 30.77,-30.79"/>
</a>
</g>
</g>
<!-- Node4 -->
<g id="Node000004" class="node">
<title>Node4</title>
<g id="a_Node000004"><a xlink:title=" ">
<polygon fill="#e0e0e0" stroke="#999999" points="197.38,-19.25 160.38,-19.25 160.38,0 197.38,0 197.38,-19.25"/>
<text text-anchor="middle" x="178.88" y="-5.75" font-family="Helvetica,sans-Serif" font-size="10.00">tuple</text>
</a>
</g>
</g>
<!-- Node1&#45;&gt;Node4 -->
<g id="edge9_Node000001_Node000004" class="edge">
<title>Node1&#45;&gt;Node4</title>
<g id="a_edge9_Node000001_Node000004"><a xlink:title=" ">
<path fill="none" stroke="#63b8ff" d="M206.79,-121.44C200.57,-96.75 190.11,-55.21 183.91,-30.61"/>
<polygon fill="#63b8ff" stroke="#63b8ff" points="187.31,-29.78 181.47,-20.93 180.52,-31.49 187.31,-29.78"/>
</a>
</g>
</g>
<!-- Node6 -->
<g id="Node000006" class="node">
<title>Node6</title>
<g id="a_Node000006"><a xlink:title=" ">
<polygon fill="#e0e0e0" stroke="#999999" points="262,-80.12 213.75,-80.12 213.75,-60.88 262,-60.88 262,-80.12"/>
<text text-anchor="middle" x="237.88" y="-66.62" font-family="Helvetica,sans-Serif" font-size="10.00">cstddef</text>
</a>
</g>
</g>
<!-- Node1&#45;&gt;Node6 -->
<g id="edge6_Node000001_Node000006" class="edge">
<title>Node1&#45;&gt;Node6</title>
<g id="a_edge6_Node000001_Node000006"><a xlink:title=" ">
<path fill="none" stroke="#63b8ff" d="M219.4,-121.34C222.94,-111.79 227.15,-100.44 230.65,-90.98"/>
<polygon fill="#63b8ff" stroke="#63b8ff" points="233.89,-92.31 234.09,-81.72 227.33,-89.88 233.89,-92.31"/>
</a>
</g>
</g>
<!-- Node7 -->
<g id="Node000007" class="node">
<title>Node7</title>
<g id="a_Node000007"><a xlink:title=" ">
<polygon fill="#e0e0e0" stroke="#999999" points="323.75,-80.12 280,-80.12 280,-60.88 323.75,-60.88 323.75,-80.12"/>
<text text-anchor="middle" x="301.88" y="-66.62" font-family="Helvetica,sans-Serif" font-size="10.00">format</text>
</a>
</g>
</g>
<!-- Node1&#45;&gt;Node7 -->
<g id="edge7_Node000001_Node000007" class="edge">
<title>Node1&#45;&gt;Node7</title>
<g id="a_edge7_Node000001_Node000007"><a xlink:title=" ">
<path fill="none" stroke="#63b8ff" d="M237.91,-121.34C251.81,-110.51 268.66,-97.38 281.58,-87.31"/>
<polygon fill="#63b8ff" stroke="#63b8ff" points="283.65,-90.14 289.39,-81.23 279.35,-84.62 283.65,-90.14"/>
</a>
</g>
</g>
<!-- Node8 -->
<g id="Node000008" class="node">
<title>Node8</title>
<g id="a_Node000008"><a xlink:title=" ">
<polygon fill="#e0e0e0" stroke="#999999" points="413.62,-80.12 342.12,-80.12 342.12,-60.88 413.62,-60.88 413.62,-80.12"/>
<text text-anchor="middle" x="377.88" y="-66.62" font-family="Helvetica,sans-Serif" font-size="10.00">initializer_list</text>
</a>
</g>
</g>
<!-- Node1&#45;&gt;Node8 -->
<g id="edge8_Node000001_Node000008" class="edge">
<title>Node1&#45;&gt;Node8</title>
<g id="a_edge8_Node000001_Node000008"><a xlink:title=" ">
<path fill="none" stroke="#63b8ff" d="M259.89,-121.34C287.62,-109.63 321.74,-95.21 346.14,-84.91"/>
<polygon fill="#63b8ff" stroke="#63b8ff" points="347.36,-88.19 355.21,-81.07 344.64,-81.74 347.36,-88.19"/>
</a>
</g>
</g>
<!-- Node2&#45;&gt;Node3 -->
<g id="edge2_Node000002_Node000003" class="edge">
<title>Node2&#45;&gt;Node3</title>
<g id="a_edge2_Node000002_Node000003"><a xlink:title=" ">
<path fill="none" stroke="#63b8ff" d="M86.59,-54.95C75.17,-46.33 60.69,-35.4 48.97,-26.55"/>
<polygon fill="#63b8ff" stroke="#63b8ff" points="51.2,-23.84 41.11,-20.61 46.98,-29.43 51.2,-23.84"/>
</a>
</g>
</g>
<!-- Node2&#45;&gt;Node4 -->
<g id="edge3_Node000002_Node000004" class="edge">
<title>Node2&#45;&gt;Node4</title>
<g id="a_edge3_Node000002_Node000004"><a xlink:title=" ">
<path fill="none" stroke="#63b8ff" d="M123.92,-54.95C134.5,-46.41 147.89,-35.62 158.8,-26.81"/>
<polygon fill="#63b8ff" stroke="#63b8ff" points="160.86,-29.65 166.44,-20.65 156.46,-24.2 160.86,-29.65"/>
</a>
</g>
</g>
<!-- Node5 -->
<g id="Node000005" class="node">
<title>Node5</title>
<g id="a_Node000005"><a xlink:title=" ">
<polygon fill="#e0e0e0" stroke="#999999" points="136.38,-19.25 75.38,-19.25 75.38,0 136.38,0 136.38,-19.25"/>
<text text-anchor="middle" x="105.88" y="-5.75" font-family="Helvetica,sans-Serif" font-size="10.00">type_traits</text>
</a>
</g>
</g>
<!-- Node2&#45;&gt;Node5 -->
<g id="edge4_Node000002_Node000005" class="edge">
<title>Node2&#45;&gt;Node5</title>
<g id="a_edge4_Node000002_Node000005"><a xlink:title=" ">
<path fill="none" stroke="#63b8ff" d="M105.88,-54.95C105.88,-47.71 105.88,-38.84 105.88,-30.94"/>
<polygon fill="#63b8ff" stroke="#63b8ff" points="109.38,-31.21 105.88,-21.21 102.38,-31.21 109.38,-31.21"/>
</a>
</g>
</g>
</g>
</svg>
