<?xml version="1.0" encoding="UTF-8" standalone="no"?>
<!DOCTYPE svg PUBLIC "-//W3C//DTD SVG 1.1//EN"
 "http://www.w3.org/Graphics/SVG/1.1/DTD/svg11.dtd">
<!-- Generated by graphviz version 12.2.0 (20241103.1931)
 -->
<!-- Title: /github/workspace/include/fcarouge/utility.hpp Pages: 1 -->
<svg width="501pt" height="183pt"
 viewBox="0.00 0.00 501.38 182.75" xmlns="http://www.w3.org/2000/svg" xmlns:xlink="http://www.w3.org/1999/xlink">
<g id="graph0" class="graph" transform="scale(1 1) rotate(0) translate(4 178.75)">
<title>/github/workspace/include/fcarouge/utility.hpp</title>
<!-- Node1 -->
<g id="Node000001" class="node">
<title>Node1</title>
<g id="a_Node000001"><a xlink:title="The collection of utilities supporting the library.">
<polygon fill="#999999" stroke="#666666" points="323.62,-174.75 194.38,-174.75 194.38,-144.25 323.62,-144.25 323.62,-174.75"/>
<text text-anchor="start" x="202.38" y="-161.25" font-family="Helvetica,sans-Serif" font-size="10.00">/github/workspace/include</text>
<text text-anchor="middle" x="259" y="-150" font-family="Helvetica,sans-Serif" font-size="10.00">/fcarouge/utility.hpp</text>
</a>
</g>
</g>
<!-- Node2 -->
<g id="Node000002" class="node">
<title>Node2</title>
<g id="a_Node000002"><a xlink:href="type_8hpp.xhtml" target="_top" xlink:title=" ">
<polygon fill="white" stroke="#666666" points="130,-102.62 0,-102.62 0,-72.12 130,-72.12 130,-102.62"/>
<text text-anchor="start" x="8" y="-89.12" font-family="Helvetica,sans-Serif" font-size="10.00">/github/workspace/include</text>
<text text-anchor="middle" x="65" y="-77.88" font-family="Helvetica,sans-Serif" font-size="10.00">/fcarouge/internal/type.hpp</text>
</a>
</g>
</g>
<!-- Node1&#45;&gt;Node2 -->
<g id="edge1_Node000001_Node000002" class="edge">
<title>Node1&#45;&gt;Node2</title>
<g id="a_edge1_Node000001_Node000002"><a xlink:title=" ">
<path fill="none" stroke="#63b8ff" d="M207.86,-140.01C175.91,-128.47 135.35,-113.8 105.62,-103.06"/>
<polygon fill="#63b8ff" stroke="#63b8ff" points="206.31,-143.18 216.91,-143.28 208.69,-136.59 206.31,-143.18"/>
</a>
</g>
</g>
<!-- Node3 -->
<g id="Node000003" class="node">
<title>Node3</title>
<g id="a_Node000003"><a xlink:href="typed__linear__algebra_8hpp.xhtml" target="_top" xlink:title="Index typed linear algebra implementation.">
<polygon fill="white" stroke="#666666" points="277.62,-108.25 148.38,-108.25 148.38,-66.5 277.62,-66.5 277.62,-108.25"/>
<text text-anchor="start" x="156.38" y="-94.75" font-family="Helvetica,sans-Serif" font-size="10.00">/github/workspace/include</text>
<text text-anchor="start" x="156.38" y="-83.5" font-family="Helvetica,sans-Serif" font-size="10.00">/fcarouge/typed_linear</text>
<text text-anchor="middle" x="213" y="-72.25" font-family="Helvetica,sans-Serif" font-size="10.00">_algebra.hpp</text>
</a>
</g>
</g>
<!-- Node1&#45;&gt;Node3 -->
<g id="edge2_Node000001_Node000003" class="edge">
<title>Node1&#45;&gt;Node3</title>
<g id="a_edge2_Node000001_Node000003"><a xlink:title=" ">
<path fill="none" stroke="#63b8ff" d="M243.18,-134.38C237.7,-126.03 231.62,-116.76 226.36,-108.74"/>
<polygon fill="#63b8ff" stroke="#63b8ff" points="240.23,-136.26 248.64,-142.7 246.08,-132.42 240.23,-136.26"/>
</a>
</g>
</g>
<!-- Node4 -->
<g id="Node000004" class="node">
<title>Node4</title>
<g id="a_Node000004"><a xlink:href="eigexed_2fcarouge_2linalg_8hpp.xhtml" target="_top" xlink:title="Scalar type linear algebra with Eigen implementation.">
<polygon fill="white" stroke="#666666" points="345,-30.5 209,-30.5 209,0 345,0 345,-30.5"/>
<text text-anchor="start" x="217" y="-17" font-family="Helvetica,sans-Serif" font-size="10.00">/github/workspace/support</text>
<text text-anchor="middle" x="277" y="-5.75" font-family="Helvetica,sans-Serif" font-size="10.00">/eigexed/fcarouge/linalg.hpp</text>
</a>
</g>
</g>
<!-- Node1&#45;&gt;Node4 -->
<g id="edge7_Node000001_Node000004" class="edge">
<title>Node1&#45;&gt;Node4</title>
<g id="a_edge7_Node000001_Node000004"><a xlink:title=" ">
<path fill="none" stroke="#63b8ff" d="M275.73,-134.3C280.31,-126.36 284.66,-117.26 287,-108.25 293.95,-81.5 287.05,-49.17 281.77,-30.83"/>
<polygon fill="#63b8ff" stroke="#63b8ff" points="272.83,-132.34 270.52,-142.68 278.78,-136.04 272.83,-132.34"/>
</a>
</g>
</g>
<!-- Node5 -->
<g id="Node000005" class="node">
<title>Node5</title>
<g id="a_Node000005"><a xlink:href="eigen_8hpp.xhtml" target="_top" xlink:title="Linear algebra facade for Eigen3 third party implementation.">
<polygon fill="white" stroke="#666666" points="464.38,-102.62 333.62,-102.62 333.62,-72.12 464.38,-72.12 464.38,-102.62"/>
<text text-anchor="start" x="341.62" y="-89.12" font-family="Helvetica,sans-Serif" font-size="10.00">/github/workspace/support</text>
<text text-anchor="middle" x="399" y="-77.88" font-family="Helvetica,sans-Serif" font-size="10.00">/eigen/fcarouge/eigen.hpp</text>
</a>
</g>
</g>
<!-- Node1&#45;&gt;Node5 -->
<g id="edge4_Node000001_Node000005" class="edge">
<title>Node1&#45;&gt;Node5</title>
<g id="a_edge4_Node000001_Node000005"><a xlink:title=" ">
<path fill="none" stroke="#63b8ff" d="M298.64,-138.64C321.24,-127.32 349.07,-113.38 369.69,-103.06"/>
<polygon fill="#63b8ff" stroke="#63b8ff" points="297.08,-135.51 289.7,-143.12 300.21,-141.77 297.08,-135.51"/>
</a>
</g>
</g>
<!-- Node3&#45;&gt;Node4 -->
<g id="edge3_Node000003_Node000004" class="edge">
<title>Node3&#45;&gt;Node4</title>
<g id="a_edge3_Node000003_Node000004"><a xlink:title=" ">
<path fill="none" stroke="#63b8ff" d="M239.09,-57.79C247.59,-48.48 256.67,-38.53 263.81,-30.7"/>
<polygon fill="#63b8ff" stroke="#63b8ff" points="236.69,-55.23 232.53,-64.97 241.86,-59.95 236.69,-55.23"/>
</a>
</g>
</g>
<!-- Node5&#45;&gt;Node4 -->
<g id="edge6_Node000005_Node000004" class="edge">
<title>Node5&#45;&gt;Node4</title>
<g id="a_edge6_Node000005_Node000004"><a xlink:title=" ">
<path fill="none" stroke="#63b8ff" d="M363.65,-66.06C344.11,-54.82 320.26,-41.12 302.54,-30.93"/>
<polygon fill="#63b8ff" stroke="#63b8ff" points="361.7,-68.97 372.11,-70.92 365.19,-62.9 361.7,-68.97"/>
</a>
</g>
</g>
<!-- Node6 -->
<g id="Node000006" class="node">
<title>Node6</title>
<g id="a_Node000006"><a xlink:href="eigen_2fcarouge_2linalg_8hpp.xhtml" target="_top" xlink:title=" ">
<polygon fill="white" stroke="#666666" points="493.38,-30.5 362.62,-30.5 362.62,0 493.38,0 493.38,-30.5"/>
<text text-anchor="start" x="370.62" y="-17" font-family="Helvetica,sans-Serif" font-size="10.00">/github/workspace/support</text>
<text text-anchor="middle" x="428" y="-5.75" font-family="Helvetica,sans-Serif" font-size="10.00">/eigen/fcarouge/linalg.hpp</text>
</a>
</g>
</g>
<!-- Node5&#45;&gt;Node6 -->
<g id="edge5_Node000005_Node000006" class="edge">
<title>Node5&#45;&gt;Node6</title>
<g id="a_edge5_Node000005_Node000006"><a xlink:title=" ">
<path fill="none" stroke="#63b8ff" d="M409.33,-61.39C413.58,-51.12 418.35,-39.6 422,-30.76"/>
<polygon fill="#63b8ff" stroke="#63b8ff" points="406.17,-59.87 405.59,-70.45 412.64,-62.54 406.17,-59.87"/>
</a>
</g>
</g>
</g>
</svg>
