<?xml version="1.0" encoding="UTF-8" standalone="no"?>
<!DOCTYPE svg PUBLIC "-//W3C//DTD SVG 1.1//EN"
 "http://www.w3.org/Graphics/SVG/1.1/DTD/svg11.dtd">
<!-- Generated by graphviz version 12.2.0 (20241103.1931)
 -->
<!-- Title: /github/workspace/include/fcarouge/typed_linear_algebra_internal/utility.hpp Pages: 1 -->
<svg width="296pt" height="338pt"
 viewBox="0.00 0.00 295.50 338.25" xmlns="http://www.w3.org/2000/svg" xmlns:xlink="http://www.w3.org/1999/xlink">
<g id="graph0" class="graph" transform="scale(1 1) rotate(0) translate(4 334.25)">
<title>/github/workspace/include/fcarouge/typed_linear_algebra_internal/utility.hpp</title>
<!-- Node1 -->
<g id="Node000001" class="node">
<title>Node1</title>
<g id="a_Node000001"><a xlink:title=" ">
<polygon fill="#999999" stroke="#666666" points="235.88,-330.25 102.88,-330.25 102.88,-288.5 235.88,-288.5 235.88,-330.25"/>
<text text-anchor="start" x="110.88" y="-316.75" font-family="Helvetica,sans-Serif" font-size="10.00">/github/workspace/include</text>
<text text-anchor="start" x="110.88" y="-305.5" font-family="Helvetica,sans-Serif" font-size="10.00">/fcarouge/typed_linear</text>
<text text-anchor="middle" x="169.38" y="-294.25" font-family="Helvetica,sans-Serif" font-size="10.00">_algebra_internal/utility.hpp</text>
</a>
</g>
</g>
<!-- Node2 -->
<g id="Node000002" class="node">
<title>Node2</title>
<g id="a_Node000002"><a xlink:href="typed__linear__algebra_8hpp.xhtml" target="_top" xlink:title="Typed linear algebra implementation.">
<polygon fill="white" stroke="#666666" points="234,-174.75 104.75,-174.75 104.75,-133 234,-133 234,-174.75"/>
<text text-anchor="start" x="112.75" y="-161.25" font-family="Helvetica,sans-Serif" font-size="10.00">/github/workspace/include</text>
<text text-anchor="start" x="112.75" y="-150" font-family="Helvetica,sans-Serif" font-size="10.00">/fcarouge/typed_linear</text>
<text text-anchor="middle" x="169.38" y="-138.75" font-family="Helvetica,sans-Serif" font-size="10.00">_algebra.hpp</text>
</a>
</g>
</g>
<!-- Node1&#45;&gt;Node2 -->
<g id="edge1_Node000001_Node000002" class="edge">
<title>Node1&#45;&gt;Node2</title>
<g id="a_edge1_Node000001_Node000002"><a xlink:title=" ">
<path fill="none" stroke="#63b8ff" d="M150.35,-278.11C146.24,-270.08 142.5,-261.21 140.38,-252.5 135.98,-234.47 135.98,-228.78 140.38,-210.75 143.43,-198.22 149.83,-185.37 155.84,-175.16"/>
<polygon fill="#63b8ff" stroke="#63b8ff" points="147.23,-279.69 155.11,-286.77 153.36,-276.32 147.23,-279.69"/>
</a>
</g>
</g>
<!-- Node6 -->
<g id="Node000006" class="node">
<title>Node6</title>
<g id="a_Node000006"><a xlink:href="format_8hpp.xhtml" target="_top" xlink:title="Formatting support for the typed matrix.">
<polygon fill="white" stroke="#666666" points="287.5,-252.5 149.25,-252.5 149.25,-210.75 287.5,-210.75 287.5,-252.5"/>
<text text-anchor="start" x="157.25" y="-239" font-family="Helvetica,sans-Serif" font-size="10.00">/github/workspace/include</text>
<text text-anchor="start" x="157.25" y="-227.75" font-family="Helvetica,sans-Serif" font-size="10.00">/fcarouge/typed_linear</text>
<text text-anchor="middle" x="218.38" y="-216.5" font-family="Helvetica,sans-Serif" font-size="10.00">_algebra_internal/format.hpp</text>
</a>
</g>
</g>
<!-- Node1&#45;&gt;Node6 -->
<g id="edge6_Node000001_Node000006" class="edge">
<title>Node1&#45;&gt;Node6</title>
<g id="a_edge6_Node000001_Node000006"><a xlink:title=" ">
<path fill="none" stroke="#63b8ff" d="M188.75,-278.43C194.27,-269.89 200.15,-260.8 205.21,-252.98"/>
<polygon fill="#63b8ff" stroke="#63b8ff" points="185.82,-276.51 183.33,-286.8 191.7,-280.31 185.82,-276.51"/>
</a>
</g>
</g>
<!-- Node3 -->
<g id="Node000003" class="node">
<title>Node3</title>
<g id="a_Node000003"><a xlink:href="eigen_8hpp.xhtml" target="_top" xlink:title="Linear algebra facade for Eigen3 third party implementation.">
<polygon fill="white" stroke="#666666" points="188.75,-97 58,-97 58,-66.5 188.75,-66.5 188.75,-97"/>
<text text-anchor="start" x="66" y="-83.5" font-family="Helvetica,sans-Serif" font-size="10.00">/github/workspace/support</text>
<text text-anchor="middle" x="123.38" y="-72.25" font-family="Helvetica,sans-Serif" font-size="10.00">/eigen/fcarouge/eigen.hpp</text>
</a>
</g>
</g>
<!-- Node2&#45;&gt;Node3 -->
<g id="edge2_Node000002_Node000003" class="edge">
<title>Node2&#45;&gt;Node3</title>
<g id="a_edge2_Node000002_Node000003"><a xlink:title=" ">
<path fill="none" stroke="#63b8ff" d="M149.88,-123.15C143.98,-114.17 137.78,-104.71 132.85,-97.2"/>
<polygon fill="#63b8ff" stroke="#63b8ff" points="146.83,-124.88 155.24,-131.33 152.68,-121.05 146.83,-124.88"/>
</a>
</g>
</g>
<!-- Node5 -->
<g id="Node000005" class="node">
<title>Node5</title>
<g id="a_Node000005"><a xlink:href="eigexed_2fcarouge_2linalg_8hpp.xhtml" target="_top" xlink:title="Scalar type linear algebra with Eigen implementation.">
<polygon fill="white" stroke="#666666" points="284.38,-30.5 148.38,-30.5 148.38,0 284.38,0 284.38,-30.5"/>
<text text-anchor="start" x="156.38" y="-17" font-family="Helvetica,sans-Serif" font-size="10.00">/github/workspace/support</text>
<text text-anchor="middle" x="216.38" y="-5.75" font-family="Helvetica,sans-Serif" font-size="10.00">/eigexed/fcarouge/linalg.hpp</text>
</a>
</g>
</g>
<!-- Node2&#45;&gt;Node5 -->
<g id="edge5_Node000002_Node000005" class="edge">
<title>Node2&#45;&gt;Node5</title>
<g id="a_edge5_Node000002_Node000005"><a xlink:title=" ">
<path fill="none" stroke="#63b8ff" d="M186.18,-122.54C190.24,-114.41 194.29,-105.51 197.38,-97 205.52,-74.52 211.09,-47.24 214,-30.84"/>
<polygon fill="#63b8ff" stroke="#63b8ff" points="183.12,-120.85 181.62,-131.34 189.33,-124.07 183.12,-120.85"/>
</a>
</g>
</g>
<!-- Node4 -->
<g id="Node000004" class="node">
<title>Node4</title>
<g id="a_Node000004"><a xlink:href="eigen_2fcarouge_2linalg_8hpp.xhtml" target="_top" xlink:title=" ">
<polygon fill="white" stroke="#666666" points="130.75,-30.5 0,-30.5 0,0 130.75,0 130.75,-30.5"/>
<text text-anchor="start" x="8" y="-17" font-family="Helvetica,sans-Serif" font-size="10.00">/github/workspace/support</text>
<text text-anchor="middle" x="65.38" y="-5.75" font-family="Helvetica,sans-Serif" font-size="10.00">/eigen/fcarouge/linalg.hpp</text>
</a>
</g>
</g>
<!-- Node3&#45;&gt;Node4 -->
<g id="edge3_Node000003_Node000004" class="edge">
<title>Node3&#45;&gt;Node4</title>
<g id="a_edge3_Node000003_Node000004"><a xlink:title=" ">
<path fill="none" stroke="#63b8ff" d="M102.58,-57.63C94.55,-48.69 85.59,-38.74 78.48,-30.83"/>
<polygon fill="#63b8ff" stroke="#63b8ff" points="99.91,-59.89 109.2,-64.99 105.12,-55.21 99.91,-59.89"/>
</a>
</g>
</g>
<!-- Node3&#45;&gt;Node5 -->
<g id="edge4_Node000003_Node000005" class="edge">
<title>Node3&#45;&gt;Node5</title>
<g id="a_edge4_Node000003_Node000005"><a xlink:title=" ">
<path fill="none" stroke="#63b8ff" d="M153.92,-59.57C167.49,-50.16 183.12,-39.31 195.36,-30.83"/>
<polygon fill="#63b8ff" stroke="#63b8ff" points="151.94,-56.68 145.72,-65.25 155.93,-62.43 151.94,-56.68"/>
</a>
</g>
</g>
<!-- Node6&#45;&gt;Node2 -->
<g id="edge7_Node000006_Node000002" class="edge">
<title>Node6&#45;&gt;Node2</title>
<g id="a_edge7_Node000006_Node000002"><a xlink:title=" ">
<path fill="none" stroke="#63b8ff" d="M199,-200.68C193.48,-192.14 187.6,-183.05 182.54,-175.23"/>
<polygon fill="#63b8ff" stroke="#63b8ff" points="196.05,-202.56 204.42,-209.05 201.93,-198.76 196.05,-202.56"/>
</a>
</g>
</g>
</g>
</svg>
